<svg xmlns="http://www.w3.org/2000/svg" xmlns:xlink="http://www.w3.org/1999/xlink" width="500" zoomAndPan="magnify" viewBox="0 0 375 374.999991" height="500" preserveAspectRatio="xMidYMid meet" version="1.0"><defs><clipPath id="5eb6b52e51"><path d="M 103 18.75 L 272 18.75 L 272 280 L 103 280 Z M 103 18.75 " clip-rule="nonzero"/></clipPath><clipPath id="10f8da1cbc"><path d="M 18.75 228 L 356.25 228 L 356.25 356.25 L 18.75 356.25 Z M 18.75 228 " clip-rule="nonzero"/></clipPath></defs><g clip-path="url(#5eb6b52e51)"><path fill="#000000" d="M 202.367188 228.160156 L 202.367188 33.617188 C 202.367188 29.679688 200.839844 25.902344 198.027344 23.089844 C 195.214844 20.355469 191.4375 18.75 187.5 18.75 C 183.5625 18.75 179.785156 20.355469 176.972656 23.089844 C 174.160156 25.902344 172.632812 29.679688 172.632812 33.617188 L 172.632812 228.160156 C 172.632812 228.160156 144.269531 199.792969 128.4375 183.964844 C 125.625 181.152344 121.847656 179.625 117.910156 179.625 C 113.972656 179.625 110.195312 181.152344 107.382812 183.964844 C 101.597656 189.75 101.597656 199.152344 107.382812 204.9375 L 177.535156 275.089844 C 180.1875 277.742188 183.722656 279.1875 187.5 279.1875 C 191.277344 279.1875 194.8125 277.742188 197.464844 275.089844 L 267.617188 204.9375 C 273.402344 199.152344 273.402344 189.75 267.617188 183.964844 C 264.804688 181.152344 261.027344 179.625 257.089844 179.625 C 253.152344 179.625 249.375 181.152344 246.5625 183.964844 C 230.652344 199.792969 202.367188 228.160156 202.367188 228.160156 Z M 202.367188 228.160156 " fill-opacity="1" fill-rule="evenodd"/></g><g clip-path="url(#10f8da1cbc)"><path fill="#000000" d="M 18.75 328.125 C 18.75 335.597656 21.722656 342.75 27.027344 347.972656 C 32.332031 353.277344 39.480469 356.25 46.875 356.25 L 328.125 356.25 C 335.597656 356.25 342.75 353.277344 347.972656 347.972656 C 353.277344 342.667969 356.25 335.519531 356.25 328.125 L 356.25 243.027344 C 356.25 234.832031 349.582031 228.160156 341.382812 228.160156 C 337.445312 228.160156 333.667969 229.769531 330.855469 232.5 C 328.042969 235.3125 326.519531 239.089844 326.519531 243.027344 L 326.519531 312.535156 C 326.519531 320.332031 320.25 326.597656 312.457031 326.597656 L 62.542969 326.597656 C 54.75 326.597656 48.480469 320.332031 48.480469 312.535156 L 48.480469 243.027344 C 48.480469 239.089844 46.875 235.3125 44.144531 232.5 C 41.332031 229.6875 37.554688 228.160156 33.617188 228.160156 C 25.417969 228.160156 18.75 234.832031 18.75 243.027344 Z M 18.75 328.125 " fill-opacity="1" fill-rule="evenodd"/></g></svg>