<svg xmlns="http://www.w3.org/2000/svg" xmlns:xlink="http://www.w3.org/1999/xlink" width="500" zoomAndPan="magnify" viewBox="0 0 375 374.999991" height="500" preserveAspectRatio="xMidYMid meet" version="1.0"><defs><clipPath id="69a1650c38"><path d="M 24.304688 37.5 L 336 37.5 L 336 322 L 24.304688 322 Z M 24.304688 37.5 " clip-rule="nonzero"/></clipPath><clipPath id="c7272f0cca"><path d="M 38 52 L 350.554688 52 L 350.554688 336 L 38 336 Z M 38 52 " clip-rule="nonzero"/></clipPath></defs><g clip-path="url(#69a1650c38)"><path fill="#2beae4" d="M 276.863281 149.015625 L 263.925781 208.152344 L 312.863281 208.152344 L 312.863281 256.023438 L 253.800781 256.023438 L 239.742188 321.355469 L 188.554688 321.355469 L 202.617188 256.023438 L 132.871094 256.023438 L 118.808594 321.355469 L 68.183594 321.355469 L 82.246094 256.023438 L 24.3125 256.023438 L 24.3125 208.152344 L 92.371094 208.152344 L 105.308594 149.015625 L 47.9375 149.015625 L 47.9375 101.140625 L 115.996094 101.140625 L 128.933594 37.5 L 179.554688 37.5 L 166.054688 101.140625 L 235.804688 101.140625 L 249.304688 37.5 L 300.488281 37.5 L 286.988281 101.140625 L 335.925781 101.140625 L 335.925781 149.015625 Z M 225.679688 149.015625 L 155.933594 149.015625 L 142.996094 208.152344 L 212.742188 208.152344 Z M 225.679688 149.015625 " fill-opacity="1" fill-rule="nonzero"/></g><g clip-path="url(#c7272f0cca)"><path fill="#f23358" d="M 291.488281 163.660156 L 278.550781 222.796875 L 327.488281 222.796875 L 327.488281 270.667969 L 268.425781 270.667969 L 254.363281 336 L 203.179688 336 L 217.242188 270.667969 L 147.496094 270.667969 L 133.433594 336 L 82.808594 336 L 96.871094 270.667969 L 38.9375 270.667969 L 38.9375 222.796875 L 106.996094 222.796875 L 119.933594 163.660156 L 62 163.660156 L 62 115.785156 L 130.058594 115.785156 L 143.558594 52.144531 L 194.179688 52.144531 L 180.679688 115.785156 L 250.429688 115.785156 L 263.925781 52.144531 L 315.113281 52.144531 L 301.613281 115.785156 L 350.546875 115.785156 L 350.546875 163.660156 Z M 240.304688 163.660156 L 170.554688 163.660156 L 157.621094 222.796875 L 227.367188 222.796875 Z M 240.304688 163.660156 " fill-opacity="1" fill-rule="nonzero"/></g><path fill="#000000" d="M 284.175781 156.335938 L 271.238281 215.472656 L 320.175781 215.472656 L 320.175781 263.347656 L 261.113281 263.347656 L 247.054688 328.679688 L 195.867188 328.679688 L 209.929688 263.910156 L 140.183594 263.910156 L 126.121094 329.242188 L 75.496094 329.242188 L 89.558594 263.910156 L 31.625 263.910156 L 31.625 216.035156 L 99.683594 216.035156 L 112.621094 156.898438 L 55.25 156.898438 L 55.25 109.027344 L 123.308594 109.027344 L 136.808594 45.386719 L 187.429688 45.386719 L 173.929688 109.027344 L 243.679688 109.027344 L 257.175781 45.386719 L 308.363281 45.386719 L 294.300781 108.464844 L 343.238281 108.464844 L 343.238281 156.335938 Z M 232.992188 156.335938 L 163.242188 156.335938 L 150.308594 215.472656 L 220.054688 215.472656 Z M 232.992188 156.335938 " fill-opacity="1" fill-rule="nonzero"/></svg>