<svg width="24" height="24" viewBox="0 0 24 24" fill="none" xmlns="http://www.w3.org/2000/svg">
<path d="M13.7325 1.2225L14.3115 2.8495C14.3978 3.09196 14.534 3.31362 14.7113 3.50016C14.8886 3.6867 15.1031 3.83397 15.3409 3.93245C15.5786 4.03094 15.8344 4.07844 16.0917 4.07191C16.349 4.06537 16.602 4.00493 16.8345 3.8945L18.3945 3.1535C19.9575 2.4105 21.5885 4.0415 20.8455 5.6045L20.1045 7.1645C19.9937 7.39692 19.9331 7.65001 19.9264 7.90738C19.9197 8.16475 19.9671 8.42065 20.0656 8.65851C20.1642 8.89637 20.3115 9.11088 20.4983 9.28814C20.685 9.4654 20.9068 9.60146 21.1495 9.6875L22.7765 10.2655C24.4065 10.8455 24.4065 13.1515 22.7765 13.7325L21.1495 14.3115C20.907 14.3978 20.6854 14.534 20.4988 14.7113C20.3123 14.8886 20.165 15.1031 20.0665 15.3409C19.9681 15.5786 19.9206 15.8344 19.9271 16.0917C19.9336 16.349 19.9941 16.602 20.1045 16.8345L20.8455 18.3945C21.5885 19.9575 19.9575 21.5885 18.3945 20.8455L16.8345 20.1045C16.6021 19.9939 16.3491 19.9333 16.0918 19.9266C15.8346 19.9199 15.5788 19.9673 15.3409 20.0657C15.1031 20.1641 14.8886 20.3113 14.7113 20.4979C14.534 20.6844 14.3978 20.906 14.3115 21.1485L13.7325 22.7765C13.1525 24.4065 10.8465 24.4065 10.2665 22.7765L9.6875 21.1485C9.6011 20.9061 9.46482 20.6846 9.28746 20.4981C9.11011 20.3117 8.89563 20.1645 8.65786 20.0662C8.4201 19.9678 8.16435 19.9204 7.90712 19.927C7.64989 19.9336 7.3969 19.994 7.1645 20.1045L5.6045 20.8445C4.0415 21.5885 2.4105 19.9575 3.1535 18.3945L3.8945 16.8345C4.00527 16.6019 4.06598 16.3487 4.07269 16.0912C4.0794 15.8337 4.03197 15.5776 3.93347 15.3396C3.83496 15.1016 3.68757 14.8869 3.50085 14.7095C3.31413 14.532 3.09222 14.3958 2.8495 14.3095L1.2225 13.7315C-0.4075 13.1515 -0.4075 10.8445 1.2225 10.2645L2.8495 9.6865C3.09223 9.60051 3.3142 9.46453 3.50106 9.28736C3.68793 9.11018 3.83553 8.89575 3.93431 8.65795C4.03309 8.42014 4.08085 8.16425 4.07451 7.90682C4.06817 7.64939 4.00787 7.39616 3.8975 7.1635L3.1555 5.6035C2.4125 4.0395 4.0435 2.4085 5.6075 3.1515L7.1675 3.8935C7.39985 4.00379 7.65275 4.06413 7.90986 4.07065C8.16698 4.07717 8.42261 4.02971 8.66025 3.93133C8.89789 3.83296 9.11227 3.68586 9.28955 3.49952C9.46683 3.31318 9.60308 3.09174 9.6895 2.8495L10.2675 1.2225C10.8455 -0.4075 13.1515 -0.4075 13.7315 1.2225H13.7325Z" fill="#FF884D"/>
</svg>
