<svg xmlns="http://www.w3.org/2000/svg" xmlns:xlink="http://www.w3.org/1999/xlink" width="500" zoomAndPan="magnify" viewBox="0 0 375 374.999991" height="500" preserveAspectRatio="xMidYMid meet" version="1.0"><path fill="#ff3050" d="M 148.457031 200.792969 L 302.34375 169.40625 C 310.332031 167.777344 318.230469 173 319.714844 181.015625 L 340.628906 283.566406 C 342.257812 291.554688 337.035156 299.453125 329.050781 301.082031 L 292.730469 308.488281 L 270.480469 348.972656 C 266.027344 357.011719 255.472656 359.164062 248.230469 353.511719 L 211.90625 324.972656 L 175.304688 332.4375 C 167.316406 334.066406 159.417969 328.84375 157.789062 320.859375 L 136.878906 218.308594 C 135.25 210.320312 140.46875 202.421875 148.457031 200.792969 Z M 148.457031 200.792969 " fill-opacity="1" fill-rule="evenodd"/><path fill="#ff3050" d="M 278.292969 225.566406 C 273.925781 217.988281 266.511719 212.964844 258.890625 212.738281 C 255.75 212.636719 252.808594 212.789062 250.242188 213.3125 C 242.96875 214.796875 237.734375 218.984375 234.476562 226.332031 L 234.054688 227.164062 L 233.335938 226.566406 C 227.492188 221.222656 221.007812 219.277344 213.734375 220.757812 C 211.164062 221.28125 208.398438 222.292969 205.550781 223.617188 C 198.625 226.8125 193.773438 234.339844 192.722656 243.019531 C 191.53125 252.472656 195.101562 261.253906 202.234375 267.078125 C 217.378906 279.4375 247.152344 293.570312 247.351562 293.828125 L 247.664062 293.910156 L 247.921875 293.710938 C 248.746094 292.652344 270.089844 268.390625 278.960938 251.429688 C 283.214844 243.132812 282.949219 233.828125 278.292969 225.566406 Z M 278.292969 225.566406 " fill-opacity="1" fill-rule="nonzero"/><path fill="#ff3050" d="M 91.601562 31.4375 L 193.59375 75.679688 C 198.886719 77.972656 201.347656 84.207031 198.957031 89.460938 L 169.480469 157.425781 C 167.183594 162.71875 160.949219 165.183594 155.65625 162.886719 L 131.585938 152.445312 L 102.253906 166.898438 C 96.410156 169.753906 89.417969 166.722656 87.507812 160.503906 L 78.019531 129.210938 L 53.761719 118.6875 C 48.46875 116.390625 46.007812 110.15625 48.300781 104.863281 L 77.78125 36.898438 C 80.074219 31.605469 86.308594 29.144531 91.601562 31.4375 Z M 91.601562 31.4375 " fill-opacity="1" fill-rule="evenodd"/><path fill="#ff3050" d="M 156.859375 98.492188 C 157.398438 92.324219 155.136719 86.402344 150.808594 83.175781 C 149.027344 81.84375 147.261719 80.738281 145.5625 80.003906 C 140.738281 77.910156 136.003906 78.214844 131.132812 81.15625 L 130.550781 81.464844 L 130.378906 80.828125 C 129.15625 75.359375 126.183594 71.597656 121.363281 69.507812 C 119.660156 68.769531 117.648438 68.230469 115.457031 67.84375 C 110.144531 66.886719 104.277344 69.28125 100.144531 73.890625 C 95.617188 78.890625 94.128906 85.433594 95.898438 91.707031 C 99.671875 105.023438 111.203125 125.296875 111.214844 125.527344 L 111.363281 125.703125 L 111.59375 125.691406 C 112.5 125.410156 134.726562 120.003906 146.753906 113.765625 C 152.582031 110.675781 156.207031 105.171875 156.859375 98.492188 Z M 156.859375 98.492188 " fill-opacity="1" fill-rule="nonzero"/><path fill="#ff3050" d="M 233.808594 83.582031 L 291.558594 55.628906 C 294.554688 54.179688 298.210938 55.449219 299.605469 58.472656 L 318.230469 96.957031 C 319.679688 99.953125 318.410156 103.609375 315.414062 105.058594 L 301.785156 111.65625 L 297.058594 129.925781 C 296.109375 133.558594 292.148438 135.472656 288.710938 133.96875 L 271.453125 126.335938 L 257.71875 132.984375 C 254.71875 134.433594 251.066406 133.164062 249.617188 130.164062 L 230.992188 91.683594 C 229.542969 88.683594 230.8125 85.03125 233.808594 83.582031 Z M 233.808594 83.582031 " fill-opacity="1" fill-rule="evenodd"/><path fill="#ff3050" d="M 287.703125 80.289062 C 285.207031 77.730469 281.769531 76.488281 278.726562 77.167969 C 277.472656 77.445312 276.324219 77.800781 275.363281 78.269531 C 272.632812 79.589844 270.980469 81.777344 270.433594 85.011719 L 270.351562 85.382812 L 270.007812 85.21875 C 267.152344 83.695312 264.390625 83.578125 261.660156 84.898438 C 260.699219 85.367188 259.703125 86.042969 258.710938 86.855469 C 256.292969 88.820312 255.128906 92.289062 255.589844 95.832031 C 256.070312 99.695312 258.371094 102.808594 261.78125 104.394531 C 269.023438 107.761719 282.234375 110.351562 282.339844 110.433594 L 282.472656 110.433594 L 282.554688 110.328125 C 282.773438 109.824219 288.773438 98.070312 290.574219 90.460938 C 291.421875 86.746094 290.378906 83.089844 287.703125 80.289062 Z M 287.703125 80.289062 " fill-opacity="1" fill-rule="nonzero"/><path fill="#3ce8ec" d="M 134.964844 187.300781 L 288.851562 155.914062 C 296.839844 154.285156 304.738281 159.507812 306.222656 167.527344 L 327.136719 270.074219 C 328.765625 278.0625 323.542969 285.960938 315.558594 287.589844 L 279.238281 294.996094 L 256.988281 335.480469 C 252.535156 343.519531 241.984375 345.671875 234.738281 340.019531 L 198.414062 311.480469 L 161.8125 318.945312 C 153.828125 320.574219 145.929688 315.351562 144.300781 307.367188 L 123.386719 204.816406 C 121.757812 196.828125 126.980469 188.929688 134.964844 187.300781 Z M 134.964844 187.300781 " fill-opacity="1" fill-rule="evenodd"/><path fill="#3ce8ec" d="M 264.800781 212.074219 C 260.433594 204.5 253.023438 199.472656 245.398438 199.246094 C 242.257812 199.144531 239.320312 199.296875 236.75 199.820312 C 229.476562 201.304688 224.242188 205.492188 220.988281 212.839844 L 220.5625 213.671875 L 219.847656 213.074219 C 214.003906 207.730469 207.515625 205.785156 200.242188 207.269531 C 197.675781 207.789062 194.910156 208.800781 192.058594 210.125 C 185.136719 213.320312 180.28125 220.847656 179.230469 229.527344 C 178.039062 238.980469 181.613281 247.761719 188.742188 253.585938 C 203.890625 265.945312 233.660156 280.078125 233.859375 280.335938 L 234.175781 280.417969 L 234.429688 280.21875 C 235.253906 279.160156 256.601562 254.898438 265.472656 237.9375 C 269.722656 229.640625 269.457031 220.335938 264.800781 212.074219 Z M 264.800781 212.074219 " fill-opacity="1" fill-rule="nonzero"/><path fill="#3ce8ec" d="M 78.113281 17.945312 L 180.101562 62.1875 C 185.394531 64.480469 187.855469 70.714844 185.46875 75.96875 L 155.988281 143.933594 C 153.695312 149.226562 147.460938 151.691406 142.167969 149.394531 L 118.09375 138.953125 L 88.761719 153.40625 C 82.921875 156.261719 75.925781 153.230469 74.019531 147.011719 L 64.527344 115.71875 L 40.269531 105.195312 C 34.976562 102.898438 32.515625 96.664062 34.8125 91.371094 L 64.289062 23.40625 C 66.585938 18.113281 72.816406 15.652344 78.113281 17.945312 Z M 78.113281 17.945312 " fill-opacity="1" fill-rule="evenodd"/><path fill="#3ce8ec" d="M 143.367188 85 C 143.90625 78.832031 141.648438 72.910156 137.316406 69.683594 C 135.539062 68.351562 133.769531 67.25 132.070312 66.511719 C 127.25 64.417969 122.511719 64.722656 117.644531 67.664062 L 117.058594 67.972656 L 116.886719 67.335938 C 115.664062 61.867188 112.691406 58.105469 107.871094 56.015625 C 106.171875 55.277344 104.15625 54.738281 101.964844 54.351562 C 96.652344 53.394531 90.785156 55.789062 86.652344 60.398438 C 82.125 65.398438 80.636719 71.941406 82.40625 78.214844 C 86.179688 91.53125 97.710938 111.804688 97.722656 112.035156 L 97.871094 112.210938 L 98.101562 112.199219 C 99.007812 111.917969 121.234375 106.511719 133.261719 100.273438 C 139.09375 97.183594 142.714844 91.679688 143.367188 85 Z M 143.367188 85 " fill-opacity="1" fill-rule="nonzero"/><path fill="#3ce8ec" d="M 220.316406 70.089844 L 278.066406 42.136719 C 281.0625 40.6875 284.71875 41.957031 286.113281 44.980469 L 304.738281 83.464844 C 306.191406 86.460938 304.917969 90.117188 301.921875 91.566406 L 288.292969 98.164062 L 283.566406 116.433594 C 282.617188 120.066406 278.65625 121.980469 275.21875 120.476562 L 257.960938 112.84375 L 244.226562 119.492188 C 241.230469 120.941406 237.574219 119.671875 236.125 116.671875 L 217.5 78.191406 C 216.050781 75.191406 217.320312 71.539062 220.316406 70.089844 Z M 220.316406 70.089844 " fill-opacity="1" fill-rule="evenodd"/><path fill="#3ce8ec" d="M 274.210938 66.796875 C 271.71875 64.238281 268.277344 62.996094 265.234375 63.675781 C 263.984375 63.953125 262.832031 64.308594 261.871094 64.777344 C 259.140625 66.097656 257.492188 68.285156 256.945312 71.519531 L 256.859375 71.890625 L 256.515625 71.726562 C 253.664062 70.203125 250.898438 70.085938 248.167969 71.40625 C 247.207031 71.875 246.214844 72.554688 245.21875 73.363281 C 242.800781 75.328125 241.636719 78.796875 242.097656 82.339844 C 242.578125 86.203125 244.878906 89.316406 248.289062 90.902344 C 255.53125 94.269531 268.742188 96.859375 268.847656 96.941406 L 268.980469 96.941406 L 269.0625 96.835938 C 269.28125 96.332031 275.285156 84.578125 277.085938 76.96875 C 277.929688 73.253906 276.886719 69.597656 274.210938 66.796875 Z M 274.210938 66.796875 " fill-opacity="1" fill-rule="nonzero"/><path fill="#000000" d="M 141.710938 192.820312 L 295.597656 161.433594 C 303.585938 159.804688 311.484375 165.027344 312.96875 173.046875 L 333.882812 275.59375 C 335.511719 283.582031 330.289062 291.480469 322.304688 293.109375 L 285.984375 300.515625 L 263.734375 341 C 259.28125 349.039062 248.730469 351.191406 241.484375 345.539062 L 205.160156 317 L 168.558594 324.464844 C 160.570312 326.09375 152.671875 320.871094 151.042969 312.886719 L 130.132812 210.335938 C 128.503906 202.347656 133.726562 194.449219 141.710938 192.820312 Z M 141.710938 192.820312 " fill-opacity="1" fill-rule="evenodd"/><path fill="#ffffff" d="M 271.546875 217.59375 C 267.179688 210.015625 259.769531 204.992188 252.144531 204.765625 C 249.003906 204.664062 246.066406 204.816406 243.496094 205.339844 C 236.222656 206.824219 230.988281 211.011719 227.730469 218.359375 L 227.308594 219.191406 L 226.589844 218.59375 C 220.75 213.25 214.261719 211.304688 206.988281 212.789062 C 204.417969 213.308594 201.65625 214.320312 198.804688 215.644531 C 191.878906 218.839844 187.027344 226.367188 185.976562 235.046875 C 184.785156 244.5 188.355469 253.28125 195.488281 259.105469 C 210.636719 271.464844 240.40625 285.597656 240.605469 285.855469 L 240.921875 285.9375 L 241.175781 285.738281 C 242 284.679688 263.347656 260.417969 272.214844 243.457031 C 276.46875 235.160156 276.203125 225.855469 271.546875 217.59375 Z M 271.546875 217.59375 " fill-opacity="1" fill-rule="nonzero"/><path fill="#000000" d="M 84.855469 23.464844 L 186.847656 67.707031 C 192.140625 70 194.601562 76.234375 192.210938 81.488281 L 162.734375 149.453125 C 160.4375 154.746094 154.203125 157.210938 148.910156 154.914062 L 124.839844 144.472656 L 95.507812 158.925781 C 89.664062 161.78125 82.671875 158.75 80.765625 152.53125 L 71.273438 121.238281 L 47.015625 110.714844 C 41.722656 108.417969 39.261719 102.183594 41.554688 96.890625 L 71.035156 28.925781 C 73.328125 23.632812 79.5625 21.171875 84.855469 23.464844 Z M 84.855469 23.464844 " fill-opacity="1" fill-rule="evenodd"/><path fill="#ffffff" d="M 150.113281 90.519531 C 150.652344 84.351562 148.390625 78.429688 144.0625 75.203125 C 142.285156 73.871094 140.515625 72.769531 138.816406 72.03125 C 133.996094 69.9375 129.257812 70.242188 124.386719 73.183594 L 123.804688 73.492188 L 123.632812 72.855469 C 122.410156 67.386719 119.4375 63.625 114.617188 61.535156 C 112.914062 60.796875 110.902344 60.257812 108.710938 59.871094 C 103.398438 58.914062 97.53125 61.308594 93.398438 65.917969 C 88.871094 70.917969 87.382812 77.460938 89.152344 83.734375 C 92.925781 97.050781 104.457031 117.324219 104.46875 117.554688 L 104.617188 117.730469 L 104.847656 117.71875 C 105.753906 117.4375 127.980469 112.03125 140.007812 105.792969 C 145.835938 102.703125 149.460938 97.199219 150.113281 90.519531 Z M 150.113281 90.519531 " fill-opacity="1" fill-rule="nonzero"/><path fill="#000000" d="M 227.0625 75.609375 L 284.8125 47.65625 C 287.808594 46.207031 291.464844 47.476562 292.859375 50.5 L 311.484375 88.984375 C 312.933594 91.980469 311.664062 95.636719 308.667969 97.085938 L 295.039062 103.683594 L 290.3125 121.953125 C 289.363281 125.585938 285.402344 127.5 281.964844 125.996094 L 264.707031 118.363281 L 250.972656 125.011719 C 247.972656 126.460938 244.320312 125.191406 242.871094 122.191406 L 224.246094 83.710938 C 222.796875 80.710938 224.066406 77.058594 227.0625 75.609375 Z M 227.0625 75.609375 " fill-opacity="1" fill-rule="evenodd"/><path fill="#ffffff" d="M 280.957031 72.316406 C 278.464844 69.757812 275.023438 68.515625 271.980469 69.195312 C 270.726562 69.472656 269.578125 69.828125 268.617188 70.296875 C 265.886719 71.617188 264.234375 73.804688 263.6875 77.039062 L 263.605469 77.410156 L 263.261719 77.25 C 260.410156 75.722656 257.644531 75.605469 254.914062 76.925781 C 253.953125 77.394531 252.957031 78.074219 251.964844 78.882812 C 249.546875 80.847656 248.382812 84.316406 248.84375 87.859375 C 249.324219 91.722656 251.625 94.835938 255.035156 96.421875 C 262.277344 99.789062 275.488281 102.378906 275.59375 102.460938 L 275.726562 102.460938 L 275.808594 102.355469 C 276.027344 101.851562 282.03125 90.097656 283.832031 82.488281 C 284.675781 78.773438 283.632812 75.117188 280.957031 72.316406 Z M 280.957031 72.316406 " fill-opacity="1" fill-rule="nonzero"/></svg>