<svg xmlns="http://www.w3.org/2000/svg" xmlns:xlink="http://www.w3.org/1999/xlink" width="500" zoomAndPan="magnify" viewBox="0 0 375 374.999991" height="500" preserveAspectRatio="xMidYMid meet" version="1.0"><path fill="#ed2024" d="M 188.636719 56.023438 C 198.96875 56.023438 198.96875 56.023438 202.164062 45.933594 C 202.78125 44.085938 203.269531 42.242188 204.007812 40.394531 C 206.960938 32.519531 214.585938 28.457031 222.457031 30.671875 C 223.390625 30.960938 224.292969 31.339844 225.15625 31.800781 C 226.023438 32.261719 226.835938 32.804688 227.597656 33.421875 C 228.359375 34.039062 229.054688 34.726562 229.683594 35.476562 C 230.316406 36.226562 230.867188 37.03125 231.34375 37.890625 C 231.824219 38.746094 232.214844 39.640625 232.519531 40.574219 C 232.824219 41.507812 233.039062 42.460938 233.164062 43.433594 C 233.285156 44.40625 233.316406 45.382812 233.253906 46.363281 C 233.1875 47.339844 233.03125 48.304688 232.785156 49.253906 C 231.855469 53.070312 230.667969 56.804688 229.21875 60.453125 C 227.742188 64.144531 228.972656 65.992188 232.171875 67.960938 C 261.5625 86.296875 275.949219 113.125 274.105469 147.582031 C 273.367188 159.519531 269.1875 171.335938 265.988281 183.027344 C 261.316406 199.394531 256.152344 215.636719 250.984375 232.003906 C 249.671875 236.050781 249.035156 240.199219 249.078125 244.453125 C 249.117188 248.710938 249.835938 252.84375 251.230469 256.863281 C 255.042969 267.816406 258.488281 278.769531 261.808594 289.96875 C 262.421875 292.308594 262.546875 296 261.191406 297.351562 C 259.839844 298.707031 256.027344 298.707031 253.691406 297.96875 C 191.957031 279.261719 130.222656 260.433594 68.488281 241.480469 C 61.355469 239.390625 54.226562 237.421875 47.214844 234.960938 C 45 234.21875 42.171875 232.25 41.804688 230.527344 C 41.433594 228.804688 43.402344 225.730469 45.125 224.375 C 53.734375 217.113281 62.464844 210.101562 71.441406 203.453125 C 73.34375 202.074219 75.121094 200.542969 76.769531 198.867188 C 78.417969 197.191406 79.917969 195.386719 81.265625 193.460938 C 82.617188 191.535156 83.796875 189.511719 84.8125 187.386719 C 85.824219 185.265625 86.65625 183.070312 87.304688 180.8125 C 93.699219 159.152344 100.257812 137.53125 106.980469 115.957031 C 107.664062 113.800781 108.429688 111.679688 109.28125 109.585938 C 110.128906 107.492188 111.058594 105.4375 112.074219 103.417969 C 113.085938 101.398438 114.175781 99.421875 115.34375 97.488281 C 116.511719 95.554688 117.753906 93.671875 119.070312 91.835938 C 120.386719 90 121.769531 88.21875 123.226562 86.492188 C 124.683594 84.765625 126.207031 83.101562 127.796875 81.496094 C 129.382812 79.890625 131.03125 78.347656 132.742188 76.875 C 134.453125 75.398438 136.214844 73.992188 138.035156 72.65625 C 139.859375 71.320312 141.726562 70.058594 143.648438 68.871094 C 145.566406 67.679688 147.53125 66.570312 149.539062 65.535156 C 151.546875 64.503906 153.589844 63.550781 155.675781 62.679688 C 157.757812 61.808594 159.871094 61.019531 162.015625 60.3125 C 164.160156 59.609375 166.328125 58.988281 168.523438 58.457031 C 170.71875 57.921875 172.929688 57.476562 175.15625 57.117188 C 177.386719 56.757812 179.625 56.484375 181.875 56.304688 C 184.125 56.121094 186.378906 56.027344 188.636719 56.023438 Z M 188.636719 56.023438 " fill-opacity="1" fill-rule="nonzero"/><path fill="#ed2024" d="M 312.964844 159.152344 C 313.5625 153.535156 313.601562 147.914062 313.089844 142.292969 C 312.964844 140.816406 312.964844 139.214844 312.964844 137.613281 C 312.832031 134.476562 313.199219 131.402344 314.074219 128.386719 C 315.792969 123.460938 319.113281 120.015625 324.648438 119.523438 C 330.183594 119.03125 334.609375 121.863281 336.453125 126.785156 C 338.46875 132.101562 339.617188 137.597656 339.898438 143.277344 C 341.25 175.640625 331.535156 204.316406 310.261719 229.050781 L 307.800781 231.511719 C 302.144531 236.066406 294.273438 236.929688 289.847656 233.234375 C 285.417969 229.542969 284.433594 221.914062 287.878906 215.390625 C 288.691406 213.804688 289.71875 212.371094 290.953125 211.085938 C 294.089844 207.46875 296.925781 203.628906 299.457031 199.566406 C 301.992188 195.503906 304.191406 191.269531 306.0625 186.859375 C 307.929688 182.449219 309.441406 177.921875 310.601562 173.277344 C 311.757812 168.628906 312.546875 163.921875 312.964844 159.152344 Z M 312.964844 159.152344 " fill-opacity="1" fill-rule="nonzero"/><path fill="#ed2024" d="M 40.207031 147.707031 C 38.832031 140.960938 38.164062 134.148438 38.207031 127.265625 C 38.246094 120.382812 38.996094 113.578125 40.453125 106.847656 C 41.480469 101.863281 42.824219 96.96875 44.480469 92.15625 C 46.140625 87.34375 48.101562 82.660156 50.363281 78.101562 C 52.625 73.542969 55.171875 69.148438 58 64.917969 C 60.824219 60.6875 63.914062 56.65625 67.261719 52.824219 C 68.648438 51.195312 70.226562 49.785156 72.003906 48.59375 C 73.777344 47.402344 75.683594 46.476562 77.714844 45.808594 C 87.304688 42.980469 94.5625 50.238281 92.222656 60.085938 C 91.382812 63.53125 89.867188 66.648438 87.675781 69.4375 C 69.84375 90.972656 62.21875 115.464844 65.414062 143.277344 C 65.597656 146.257812 65.226562 149.171875 64.308594 152.015625 C 62.710938 157.304688 59.144531 160.75 53.363281 161.121094 C 47.585938 161.488281 43.035156 158.414062 41.558594 153.121094 C 41.066406 151.398438 40.574219 149.550781 40.207031 147.707031 Z M 40.207031 147.707031 " fill-opacity="1" fill-rule="nonzero"/><path fill="#ed2024" d="M 116.203125 263.511719 C 138.09375 270.03125 159.492188 276.679688 180.890625 283.199219 C 180.027344 296.121094 171.175781 307.199219 158.507812 311.628906 C 156.886719 312.191406 155.230469 312.632812 153.546875 312.953125 C 151.859375 313.269531 150.15625 313.464844 148.441406 313.53125 C 146.726562 313.597656 145.015625 313.539062 143.308594 313.351562 C 141.601562 313.164062 139.917969 312.851562 138.257812 312.417969 C 136.597656 311.980469 134.976562 311.425781 133.398438 310.75 C 131.820312 310.074219 130.300781 309.285156 128.839844 308.386719 C 127.375 307.484375 125.988281 306.480469 124.675781 305.375 C 123.363281 304.269531 122.136719 303.070312 121 301.78125 C 111.53125 291.078125 109.6875 277.046875 116.203125 263.511719 Z M 116.203125 263.511719 " fill-opacity="1" fill-rule="nonzero"/></svg>