<svg xmlns="http://www.w3.org/2000/svg" xmlns:xlink="http://www.w3.org/1999/xlink" width="500" zoomAndPan="magnify" viewBox="0 0 375 374.999991" height="500" preserveAspectRatio="xMidYMid meet" version="1.0"><defs><filter x="0%" y="0%" width="100%" height="100%" id="cc53e12d2e"><feColorMatrix values="0 0 0 0 1 0 0 0 0 1 0 0 0 0 1 0 0 0 1 0" color-interpolation-filters="sRGB"/></filter><mask id="b364510724"><g filter="url(#cc53e12d2e)"><rect x="-37.5" width="450" fill="#000000" y="-37.499999" height="449.999989" fill-opacity="0.6"/></g></mask><clipPath id="6bf8b7255f"><path d="M 1 0.0390625 L 78.320312 0.0390625 L 78.320312 77.800781 L 1 77.800781 Z M 1 0.0390625 " clip-rule="nonzero"/></clipPath><clipPath id="db731f8605"><rect x="0" width="79" y="0" height="78"/></clipPath><mask id="5f1de4c270"><g filter="url(#cc53e12d2e)"><rect x="-37.5" width="450" fill="#000000" y="-37.499999" height="449.999989" fill-opacity="0.4"/></g></mask><clipPath id="f67504060b"><path d="M 0.839844 0.160156 L 47.878906 0.160156 L 47.878906 47.199219 L 0.839844 47.199219 Z M 0.839844 0.160156 " clip-rule="nonzero"/></clipPath><clipPath id="491ffd8395"><rect x="0" width="48" y="0" height="48"/></clipPath><mask id="814e2dc4f9"><g filter="url(#cc53e12d2e)"><rect x="-37.5" width="450" fill="#000000" y="-37.499999" height="449.999989" fill-opacity="0.5"/></g></mask><clipPath id="1b26815c5d"><path d="M 1 0.558594 L 53.519531 0.558594 L 53.519531 53 L 1 53 Z M 1 0.558594 " clip-rule="nonzero"/></clipPath><clipPath id="4850c79b1b"><rect x="0" width="54" y="0" height="54"/></clipPath><mask id="336e6dcb4c"><g filter="url(#cc53e12d2e)"><rect x="-37.5" width="450" fill="#000000" y="-37.499999" height="449.999989" fill-opacity="0.5"/></g></mask><clipPath id="d4408a968c"><path d="M 0.199219 0.238281 L 52.761719 0.238281 L 52.761719 52.800781 L 0.199219 52.800781 Z M 0.199219 0.238281 " clip-rule="nonzero"/></clipPath><clipPath id="1bcea37503"><rect x="0" width="53" y="0" height="53"/></clipPath><mask id="f0e8d4b6d5"><g filter="url(#cc53e12d2e)"><rect x="-37.5" width="450" fill="#000000" y="-37.499999" height="449.999989" fill-opacity="0.8"/></g></mask><clipPath id="b16f59281d"><path d="M 0.359375 0 L 114 0 L 114 113.519531 L 0.359375 113.519531 Z M 0.359375 0 " clip-rule="nonzero"/></clipPath><clipPath id="e7ec4e6b0b"><rect x="0" width="115" y="0" height="114"/></clipPath><mask id="c3e0ea5565"><g filter="url(#cc53e12d2e)"><rect x="-37.5" width="450" fill="#000000" y="-37.499999" height="449.999989" fill-opacity="0.4"/></g></mask><clipPath id="236abbed25"><path d="M 0.480469 0.078125 L 44 0.078125 L 44 43.761719 L 0.480469 43.761719 Z M 0.480469 0.078125 " clip-rule="nonzero"/></clipPath><clipPath id="ac769ee62a"><rect x="0" width="45" y="0" height="44"/></clipPath><mask id="28c331fdea"><g filter="url(#cc53e12d2e)"><rect x="-37.5" width="450" fill="#000000" y="-37.499999" height="449.999989" fill-opacity="0.3"/></g></mask><clipPath id="e131206edb"><path d="M 0 0.359375 L 43.679688 0.359375 L 43.679688 44 L 0 44 Z M 0 0.359375 " clip-rule="nonzero"/></clipPath><clipPath id="01d4dd445f"><rect x="0" width="44" y="0" height="45"/></clipPath><mask id="7a37ab1852"><g filter="url(#cc53e12d2e)"><rect x="-37.5" width="450" fill="#000000" y="-37.499999" height="449.999989" fill-opacity="0.2"/></g></mask><clipPath id="8a6e74bca5"><path d="M 0.679688 0.320312 L 44.359375 0.320312 L 44.359375 44 L 0.679688 44 Z M 0.679688 0.320312 " clip-rule="nonzero"/></clipPath><clipPath id="f3ac435e81"><rect x="0" width="45" y="0" height="44"/></clipPath><mask id="96e2a4f74c"><g filter="url(#cc53e12d2e)"><rect x="-37.5" width="450" fill="#000000" y="-37.499999" height="449.999989" fill-opacity="0.1"/></g></mask><clipPath id="5e45080b7a"><path d="M 0.359375 1 L 27 1 L 27 27.480469 L 0.359375 27.480469 Z M 0.359375 1 " clip-rule="nonzero"/></clipPath><clipPath id="a7d503b0ff"><rect x="0" width="27" y="0" height="28"/></clipPath><mask id="0081bbf469"><g filter="url(#cc53e12d2e)"><rect x="-37.5" width="450" fill="#000000" y="-37.499999" height="449.999989" fill-opacity="0.1"/></g></mask><clipPath id="4447de785f"><path d="M 0.441406 0.640625 L 27 0.640625 L 27 27 L 0.441406 27 Z M 0.441406 0.640625 " clip-rule="nonzero"/></clipPath><clipPath id="7bedb9bafe"><rect x="0" width="28" y="0" height="28"/></clipPath><mask id="6cc249cb04"><g filter="url(#cc53e12d2e)"><rect x="-37.5" width="450" fill="#000000" y="-37.499999" height="449.999989" fill-opacity="0.2"/></g></mask><clipPath id="ae441b1cdf"><path d="M 0.640625 0.679688 L 57.761719 0.679688 L 57.761719 58 L 0.640625 58 Z M 0.640625 0.679688 " clip-rule="nonzero"/></clipPath><clipPath id="14edaccc5c"><rect x="0" width="58" y="0" height="59"/></clipPath><mask id="b29593d8a9"><g filter="url(#cc53e12d2e)"><rect x="-37.5" width="450" fill="#000000" y="-37.499999" height="449.999989" fill-opacity="0.7"/></g></mask><clipPath id="c88da6c154"><path d="M 0.0390625 1 L 71.800781 1 L 71.800781 73 L 0.0390625 73 Z M 0.0390625 1 " clip-rule="nonzero"/></clipPath><clipPath id="32a595beb0"><rect x="0" width="72" y="0" height="74"/></clipPath><mask id="24b1adbb56"><g filter="url(#cc53e12d2e)"><rect x="-37.5" width="450" fill="#000000" y="-37.499999" height="449.999989" fill-opacity="0.6"/></g></mask><clipPath id="49c8f54a0a"><path d="M 1 0.078125 L 78.601562 0.078125 L 78.601562 77.839844 L 1 77.839844 Z M 1 0.078125 " clip-rule="nonzero"/></clipPath><clipPath id="3b02dc6da7"><rect x="0" width="79" y="0" height="78"/></clipPath><mask id="a79b81a115"><g filter="url(#cc53e12d2e)"><rect x="-37.5" width="450" fill="#000000" y="-37.499999" height="449.999989" fill-opacity="0.4"/></g></mask><clipPath id="4d8790439e"><path d="M 1 0.441406 L 47.921875 0.441406 L 47.921875 47.480469 L 1 47.480469 Z M 1 0.441406 " clip-rule="nonzero"/></clipPath><clipPath id="d621fdf22e"><rect x="0" width="48" y="0" height="48"/></clipPath><mask id="0aa7acdc15"><g filter="url(#cc53e12d2e)"><rect x="-37.5" width="450" fill="#000000" y="-37.499999" height="449.999989" fill-opacity="0.5"/></g></mask><clipPath id="62bd5a9c01"><path d="M 0 0.839844 L 52.558594 0.839844 L 52.558594 53.398438 L 0 53.398438 Z M 0 0.839844 " clip-rule="nonzero"/></clipPath><clipPath id="49d694921b"><rect x="0" width="53" y="0" height="54"/></clipPath><mask id="0abc5406a3"><g filter="url(#cc53e12d2e)"><rect x="-37.5" width="450" fill="#000000" y="-37.499999" height="449.999989" fill-opacity="0.5"/></g></mask><clipPath id="1bd277caa7"><path d="M 0.238281 0.28125 L 53 0.28125 L 53 53 L 0.238281 53 Z M 0.238281 0.28125 " clip-rule="nonzero"/></clipPath><clipPath id="727fc1756d"><rect x="0" width="54" y="0" height="54"/></clipPath><mask id="85262a218e"><g filter="url(#cc53e12d2e)"><rect x="-37.5" width="450" fill="#000000" y="-37.499999" height="449.999989" fill-opacity="0.8"/></g></mask><clipPath id="7975855368"><path d="M 0.640625 0.28125 L 114 0.28125 L 114 113.800781 L 0.640625 113.800781 Z M 0.640625 0.28125 " clip-rule="nonzero"/></clipPath><clipPath id="d441c40749"><rect x="0" width="115" y="0" height="114"/></clipPath><mask id="768554950c"><g filter="url(#cc53e12d2e)"><rect x="-37.5" width="450" fill="#000000" y="-37.499999" height="449.999989" fill-opacity="0.4"/></g></mask><clipPath id="303007039b"><path d="M 0.761719 0.359375 L 44.441406 0.359375 L 44.441406 44 L 0.761719 44 Z M 0.761719 0.359375 " clip-rule="nonzero"/></clipPath><clipPath id="1fa5291693"><rect x="0" width="45" y="0" height="45"/></clipPath><mask id="a044ecfd2f"><g filter="url(#cc53e12d2e)"><rect x="-37.5" width="450" fill="#000000" y="-37.499999" height="449.999989" fill-opacity="0.3"/></g></mask><clipPath id="6a69c86758"><path d="M 0.0390625 0.640625 L 43.71875 0.640625 L 43.71875 44.320312 L 0.0390625 44.320312 Z M 0.0390625 0.640625 " clip-rule="nonzero"/></clipPath><clipPath id="31923bb02c"><rect x="0" width="44" y="0" height="45"/></clipPath><mask id="075ad3ff50"><g filter="url(#cc53e12d2e)"><rect x="-37.5" width="450" fill="#000000" y="-37.499999" height="449.999989" fill-opacity="0.2"/></g></mask><clipPath id="7b5513da2c"><path d="M 1 0.359375 L 44.640625 0.359375 L 44.640625 44 L 1 44 Z M 1 0.359375 " clip-rule="nonzero"/></clipPath><clipPath id="2cb70e3cf6"><rect x="0" width="45" y="0" height="45"/></clipPath><mask id="c04c5f51b7"><g filter="url(#cc53e12d2e)"><rect x="-37.5" width="450" fill="#000000" y="-37.499999" height="449.999989" fill-opacity="0.1"/></g></mask><clipPath id="66a649ddbb"><path d="M 0.640625 0.121094 L 27 0.121094 L 27 26.761719 L 0.640625 26.761719 Z M 0.640625 0.121094 " clip-rule="nonzero"/></clipPath><clipPath id="e01e13f265"><rect x="0" width="28" y="0" height="27"/></clipPath><mask id="a5dc754e8a"><g filter="url(#cc53e12d2e)"><rect x="-37.5" width="450" fill="#000000" y="-37.499999" height="449.999989" fill-opacity="0.1"/></g></mask><clipPath id="22e2835af9"><path d="M 0.480469 1 L 27 1 L 27 27.320312 L 0.480469 27.320312 Z M 0.480469 1 " clip-rule="nonzero"/></clipPath><clipPath id="950d98e092"><rect x="0" width="28" y="0" height="28"/></clipPath><mask id="94605e6c42"><g filter="url(#cc53e12d2e)"><rect x="-37.5" width="450" fill="#000000" y="-37.499999" height="449.999989" fill-opacity="0.2"/></g></mask><clipPath id="6645138af6"><path d="M 1 0.71875 L 58 0.71875 L 58 58 L 1 58 Z M 1 0.71875 " clip-rule="nonzero"/></clipPath><clipPath id="7c124924aa"><rect x="0" width="59" y="0" height="59"/></clipPath><mask id="4699467a0b"><g filter="url(#cc53e12d2e)"><rect x="-37.5" width="450" fill="#000000" y="-37.499999" height="449.999989" fill-opacity="0.7"/></g></mask><clipPath id="9bca47d2a7"><path d="M 0.078125 0.199219 L 72 0.199219 L 72 72 L 0.078125 72 Z M 0.078125 0.199219 " clip-rule="nonzero"/></clipPath><clipPath id="04f486ee21"><rect x="0" width="73" y="0" height="73"/></clipPath><mask id="330f19fa7b"><g filter="url(#cc53e12d2e)"><rect x="-37.5" width="450" fill="#000000" y="-37.499999" height="449.999989" fill-opacity="0.6"/></g></mask><clipPath id="07db645964"><path d="M 0.199219 1 L 77.960938 1 L 77.960938 78.71875 L 0.199219 78.71875 Z M 0.199219 1 " clip-rule="nonzero"/></clipPath><clipPath id="4366df4c95"><rect x="0" width="78" y="0" height="79"/></clipPath><mask id="8b82cc0003"><g filter="url(#cc53e12d2e)"><rect x="-37.5" width="450" fill="#000000" y="-37.499999" height="449.999989" fill-opacity="0.4"/></g></mask><clipPath id="a5f14a52b1"><path d="M 0.238281 0.078125 L 47.519531 0.078125 L 47.519531 47.121094 L 0.238281 47.121094 Z M 0.238281 0.078125 " clip-rule="nonzero"/></clipPath><clipPath id="ac2a8fe153"><rect x="0" width="48" y="0" height="48"/></clipPath><mask id="fb7f9458c6"><g filter="url(#cc53e12d2e)"><rect x="-37.5" width="450" fill="#000000" y="-37.499999" height="449.999989" fill-opacity="0.5"/></g></mask><clipPath id="85e26eff4e"><path d="M 0.359375 0.480469 L 52.921875 0.480469 L 52.921875 53 L 0.359375 53 Z M 0.359375 0.480469 " clip-rule="nonzero"/></clipPath><clipPath id="884a33f2b2"><rect x="0" width="53" y="0" height="54"/></clipPath><mask id="24ecd6f348"><g filter="url(#cc53e12d2e)"><rect x="-37.5" width="450" fill="#000000" y="-37.499999" height="449.999989" fill-opacity="0.5"/></g></mask><clipPath id="16a28027c0"><path d="M 1 0.160156 L 53.398438 0.160156 L 53.398438 52.71875 L 1 52.71875 Z M 1 0.160156 " clip-rule="nonzero"/></clipPath><clipPath id="a866b78a37"><rect x="0" width="54" y="0" height="53"/></clipPath><mask id="db469012da"><g filter="url(#cc53e12d2e)"><rect x="-37.5" width="450" fill="#000000" y="-37.499999" height="449.999989" fill-opacity="0.8"/></g></mask><clipPath id="a0b0a2af6c"><path d="M 0 1 L 113.761719 1 L 113.761719 114.441406 L 0 114.441406 Z M 0 1 " clip-rule="nonzero"/></clipPath><clipPath id="f1c38e3723"><rect x="0" width="114" y="0" height="115"/></clipPath><mask id="4184922621"><g filter="url(#cc53e12d2e)"><rect x="-37.5" width="450" fill="#000000" y="-37.499999" height="449.999989" fill-opacity="0.4"/></g></mask><clipPath id="338d1d90fb"><path d="M 0.121094 0.238281 L 43.800781 0.238281 L 43.800781 43.921875 L 0.121094 43.921875 Z M 0.121094 0.238281 " clip-rule="nonzero"/></clipPath><clipPath id="4dd8ec51ec"><rect x="0" width="44" y="0" height="44"/></clipPath><mask id="83473e50b1"><g filter="url(#cc53e12d2e)"><rect x="-37.5" width="450" fill="#000000" y="-37.499999" height="449.999989" fill-opacity="0.3"/></g></mask><clipPath id="3c36acc191"><path d="M 0.398438 0.519531 L 44 0.519531 L 44 44 L 0.398438 44 Z M 0.398438 0.519531 " clip-rule="nonzero"/></clipPath><clipPath id="61b5b5d9c1"><rect x="0" width="45" y="0" height="45"/></clipPath><mask id="e8b31601a1"><g filter="url(#cc53e12d2e)"><rect x="-37.5" width="450" fill="#000000" y="-37.499999" height="449.999989" fill-opacity="0.2"/></g></mask><clipPath id="e8da8bcdb8"><path d="M 0.320312 0.238281 L 44 0.238281 L 44 43.921875 L 0.320312 43.921875 Z M 0.320312 0.238281 " clip-rule="nonzero"/></clipPath><clipPath id="ceb1db13b1"><rect x="0" width="44" y="0" height="44"/></clipPath><mask id="5377e78caf"><g filter="url(#cc53e12d2e)"><rect x="-37.5" width="450" fill="#000000" y="-37.499999" height="449.999989" fill-opacity="0.1"/></g></mask><clipPath id="6df89f8ae2"><path d="M 0 1 L 26.640625 1 L 26.640625 27.398438 L 0 27.398438 Z M 0 1 " clip-rule="nonzero"/></clipPath><clipPath id="4381534cad"><rect x="0" width="27" y="0" height="28"/></clipPath><mask id="2d55ab1e86"><g filter="url(#cc53e12d2e)"><rect x="-37.5" width="450" fill="#000000" y="-37.499999" height="449.999989" fill-opacity="0.1"/></g></mask><clipPath id="d9534b76fd"><path d="M 0.078125 0.558594 L 26.480469 0.558594 L 26.480469 27 L 0.078125 27 Z M 0.078125 0.558594 " clip-rule="nonzero"/></clipPath><clipPath id="d29003e412"><rect x="0" width="27" y="0" height="28"/></clipPath><mask id="bb51ead340"><g filter="url(#cc53e12d2e)"><rect x="-37.5" width="450" fill="#000000" y="-37.499999" height="449.999989" fill-opacity="0.2"/></g></mask><clipPath id="828b766009"><path d="M 0.0390625 0.601562 L 57.398438 0.601562 L 57.398438 57.960938 L 0.0390625 57.960938 Z M 0.0390625 0.601562 " clip-rule="nonzero"/></clipPath><clipPath id="5ebf049261"><rect x="0" width="58" y="0" height="58"/></clipPath><mask id="0f8734b30a"><g filter="url(#cc53e12d2e)"><rect x="-37.5" width="450" fill="#000000" y="-37.499999" height="449.999989" fill-opacity="0.7"/></g></mask><clipPath id="83c9450721"><path d="M 0.441406 1 L 72.441406 1 L 72.441406 73 L 0.441406 73 Z M 0.441406 1 " clip-rule="nonzero"/></clipPath><clipPath id="7d7047e335"><rect x="0" width="73" y="0" height="74"/></clipPath></defs><path fill="#ff3050" d="M 247.832031 83.53125 C 220.613281 78.046875 194.132812 95.660156 188.648438 122.886719 C 183.167969 150.113281 200.773438 176.609375 227.988281 182.09375 C 255.203125 187.578125 281.683594 169.964844 287.167969 142.738281 C 292.648438 115.511719 275.046875 89.015625 247.832031 83.53125 Z M 247.832031 83.53125 " fill-opacity="1" fill-rule="nonzero"/><path fill="#ff3050" d="M 258.140625 111.25 C 244.59375 108.519531 240.613281 119.382812 240.613281 119.382812 C 240.613281 119.382812 241.144531 107.824219 227.601562 105.09375 C 214.546875 102.464844 207.976562 115.371094 208.089844 123.085938 C 208.378906 143.269531 231.882812 162.109375 231.882812 162.109375 C 231.882812 162.109375 260.839844 153.84375 268.921875 135.34375 C 272.132812 128.296875 271.070312 113.855469 258.140625 111.25 Z M 258.140625 111.25 " fill-opacity="1" fill-rule="nonzero"/><g mask="url(#b364510724)"><g transform="matrix(1, 0, 0, 1, 118, 251)"><g clip-path="url(#db731f8605)"><g clip-path="url(#6bf8b7255f)"><path fill="#ff3050" d="M 23.832031 3.566406 C 4.375 12.296875 -4.316406 35.128906 4.40625 54.597656 C 13.128906 74.0625 35.953125 82.761719 55.414062 74.035156 C 74.871094 65.304688 83.5625 42.46875 74.839844 23.003906 C 66.117188 3.539062 43.292969 -5.160156 23.832031 3.566406 Z M 23.832031 3.566406 " fill-opacity="1" fill-rule="nonzero"/></g><path fill="#ff3050" d="M 42.644531 16.285156 C 32.960938 20.628906 35.320312 29.199219 35.320312 29.199219 C 35.320312 29.199219 30.496094 21.734375 20.808594 26.078125 C 11.476562 30.265625 13.128906 41.265625 16.644531 46.039062 C 25.832031 58.523438 48.929688 59.800781 48.929688 59.800781 C 48.929688 59.800781 63.339844 41.703125 60.136719 26.53125 C 59 20.691406 51.890625 12.140625 42.644531 16.285156 Z M 42.644531 16.285156 " fill-opacity="1" fill-rule="nonzero"/></g></g></g><g mask="url(#5f1de4c270)"><g transform="matrix(1, 0, 0, 1, 285, 284)"><g clip-path="url(#491ffd8395)"><g clip-path="url(#f67504060b)"><path fill="#ff3050" d="M 39.9375 6.476562 C 30.398438 -2.203125 15.644531 -1.507812 6.964844 8.035156 C -1.710938 17.578125 -1.015625 32.339844 8.523438 41.019531 C 18.0625 49.703125 32.816406 49.003906 41.496094 39.460938 C 50.171875 29.917969 49.472656 15.15625 39.9375 6.476562 Z M 39.9375 6.476562 " fill-opacity="1" fill-rule="nonzero"/></g><path fill="#ff3050" d="M 37.433594 19.980469 C 32.6875 15.660156 28.511719 19.039062 28.511719 19.039062 C 28.511719 19.039062 31.480469 14.5625 26.730469 10.238281 C 22.15625 6.074219 16.460938 9.652344 14.664062 12.753906 C 9.96875 20.867188 14.84375 33.984375 14.84375 33.984375 C 14.84375 33.984375 28.355469 37.601562 35.988281 32.15625 C 38.945312 30.117188 41.96875 24.105469 37.433594 19.980469 Z M 37.433594 19.980469 " fill-opacity="1" fill-rule="nonzero"/></g></g></g><path fill="#ff3050" d="M 307.46875 34.339844 C 300.679688 38.011719 298.152344 46.492188 301.828125 53.28125 C 305.5 60.074219 313.972656 62.601562 320.761719 58.925781 C 327.550781 55.25 330.078125 46.773438 326.402344 39.980469 C 322.730469 33.1875 314.257812 30.664062 307.46875 34.339844 Z M 307.46875 34.339844 " fill-opacity="1" fill-rule="nonzero"/><path fill="#ff3050" d="M 314.601562 38.421875 C 311.21875 40.25 312.304688 43.28125 312.304688 43.28125 C 312.304688 43.28125 310.359375 40.71875 306.980469 42.546875 C 303.726562 44.308594 304.617188 48.234375 306.015625 49.863281 C 309.667969 54.125 318.039062 53.960938 318.039062 53.960938 C 318.039062 53.960938 322.753906 47.039062 321.191406 41.648438 C 320.621094 39.574219 317.824219 36.675781 314.601562 38.421875 Z M 314.601562 38.421875 " fill-opacity="1" fill-rule="nonzero"/><g mask="url(#814e2dc4f9)"><g transform="matrix(1, 0, 0, 1, 294, 202)"><g clip-path="url(#4850c79b1b)"><g clip-path="url(#1b26815c5d)"><path fill="#ff3050" d="M 16.429688 3.078125 C 3.300781 8.96875 -2.5625 24.375 3.320312 37.507812 C 9.207031 50.640625 24.609375 56.507812 37.734375 50.621094 C 50.863281 44.734375 56.730469 29.324219 50.84375 16.191406 C 44.957031 3.058594 29.558594 -2.808594 16.429688 3.078125 Z M 16.429688 3.078125 " fill-opacity="1" fill-rule="nonzero"/></g><path fill="#ff3050" d="M 29.121094 11.660156 C 22.589844 14.589844 24.179688 20.371094 24.179688 20.371094 C 24.179688 20.371094 20.925781 15.335938 14.390625 18.269531 C 8.09375 21.09375 9.207031 28.515625 11.578125 31.734375 C 17.78125 40.15625 33.363281 41.019531 33.363281 41.019531 C 33.363281 41.019531 43.085938 28.808594 40.921875 18.570312 C 40.15625 14.632812 35.359375 8.863281 29.121094 11.660156 Z M 29.121094 11.660156 " fill-opacity="1" fill-rule="nonzero"/></g></g></g><g mask="url(#336e6dcb4c)"><g transform="matrix(1, 0, 0, 1, 133, 60)"><g clip-path="url(#1bcea37503)"><g clip-path="url(#d4408a968c)"><path fill="#ff3050" d="M 15.984375 2.855469 C 2.859375 8.742188 -3.007812 24.148438 2.878906 37.285156 C 8.761719 50.417969 24.164062 56.285156 37.289062 50.398438 C 50.417969 44.507812 56.285156 29.101562 50.398438 15.96875 C 44.511719 2.835938 29.113281 -3.035156 15.984375 2.855469 Z M 15.984375 2.855469 " fill-opacity="1" fill-rule="nonzero"/></g><path fill="#ff3050" d="M 28.675781 11.4375 C 22.144531 14.367188 23.734375 20.148438 23.734375 20.148438 C 23.734375 20.148438 20.480469 15.113281 13.945312 18.042969 C 7.648438 20.867188 8.765625 28.289062 11.132812 31.507812 C 17.335938 39.933594 32.917969 40.796875 32.917969 40.796875 C 32.917969 40.796875 42.640625 28.582031 40.476562 18.347656 C 39.710938 14.410156 34.914062 8.636719 28.675781 11.4375 Z M 28.675781 11.4375 " fill-opacity="1" fill-rule="nonzero"/></g></g></g><g mask="url(#f0e8d4b6d5)"><g transform="matrix(1, 0, 0, 1, 63, 120)"><g clip-path="url(#e7ec4e6b0b)"><g clip-path="url(#b16f59281d)"><path fill="#ff3050" d="M 46.289062 1.273438 C 15.683594 7.324219 -4.207031 37.023438 1.839844 67.644531 C 7.890625 98.261719 37.578125 118.160156 68.183594 112.109375 C 98.789062 106.058594 118.675781 76.355469 112.628906 45.738281 C 106.578125 15.121094 76.890625 -4.78125 46.289062 1.273438 Z M 46.289062 1.273438 " fill-opacity="1" fill-rule="nonzero"/></g><path fill="#ff3050" d="M 84.304688 46.585938 C 88.566406 48.480469 88.96875 54.160156 85.363281 57.03125 C 88.121094 60.085938 86.394531 65.175781 82.984375 66.859375 C 83.730469 67.71875 84.171875 68.496094 84.226562 69.492188 C 84.464844 73.621094 80.171875 75.1875 76.847656 75.847656 L 58.707031 79.433594 C 51.503906 80.855469 47.109375 77.550781 46.453125 74.226562 L 43.085938 57.183594 C 41.308594 48.179688 49.910156 38.558594 48.652344 32.1875 L 46.289062 24.59375 C 46.207031 24.175781 45.960938 22.929688 46.320312 22.570312 C 46.765625 21.90625 48.238281 20.609375 50.589844 20.144531 C 52.113281 19.84375 53.277344 19.898438 54.660156 20.347656 C 59.226562 21.601562 60.792969 26.621094 61.613281 30.777344 C 61.996094 32.714844 60.679688 39.167969 60.8125 41.300781 C 63.78125 39.5625 71.011719 36.835938 76.992188 36.515625 C 83.96875 36.144531 86.8125 40.332031 84.304688 46.585938 Z M 26.101562 51.328125 L 31.917969 50.179688 C 33.027344 49.960938 34.214844 50.15625 35.210938 50.824219 C 36.207031 51.492188 36.839844 52.515625 37.058594 53.625 L 42.5625 81.472656 C 42.78125 82.582031 42.582031 83.773438 41.917969 84.765625 C 41.25 85.761719 40.222656 86.398438 39.117188 86.617188 L 33.300781 87.765625 C 32.191406 87.984375 31.003906 87.789062 30.007812 87.121094 C 29.011719 86.457031 28.378906 85.429688 28.160156 84.320312 L 22.65625 56.472656 C 22.4375 55.363281 22.636719 54.175781 23.300781 53.179688 C 23.96875 52.183594 24.996094 51.546875 26.101562 51.328125 Z M 26.101562 51.328125 " fill-opacity="1" fill-rule="nonzero"/></g></g></g><g mask="url(#c3e0ea5565)"><g transform="matrix(1, 0, 0, 1, 234, 28)"><g clip-path="url(#ac769ee62a)"><g clip-path="url(#236abbed25)"><path fill="#ff3050" d="M 18.179688 0.773438 C 6.46875 3.089844 -1.144531 14.457031 1.171875 26.175781 C 3.484375 37.894531 14.847656 45.507812 26.558594 43.191406 C 38.273438 40.878906 45.886719 29.511719 43.570312 17.792969 C 41.257812 6.074219 29.894531 -1.542969 18.179688 0.773438 Z M 18.179688 0.773438 " fill-opacity="1" fill-rule="nonzero"/></g><path fill="#ff3050" d="M 32.730469 18.117188 C 34.359375 18.839844 34.515625 21.015625 33.136719 22.113281 C 34.191406 23.28125 33.53125 25.230469 32.226562 25.875 C 32.511719 26.203125 32.679688 26.5 32.699219 26.882812 C 32.792969 28.460938 31.148438 29.0625 29.875 29.3125 L 22.933594 30.6875 C 20.175781 31.230469 18.496094 29.96875 18.242188 28.695312 L 16.957031 22.171875 C 16.273438 18.726562 19.566406 15.042969 19.085938 12.605469 L 18.179688 9.699219 C 18.148438 9.539062 18.054688 9.0625 18.195312 8.925781 C 18.363281 8.671875 18.925781 8.175781 19.828125 7.996094 C 20.410156 7.878906 20.855469 7.902344 21.382812 8.074219 C 23.132812 8.554688 23.730469 10.476562 24.046875 12.066406 C 24.191406 12.808594 23.6875 15.277344 23.738281 16.09375 C 24.875 15.425781 27.644531 14.382812 29.933594 14.261719 C 32.601562 14.121094 33.691406 15.722656 32.730469 18.117188 Z M 10.457031 19.929688 L 12.679688 19.492188 C 13.105469 19.40625 13.5625 19.484375 13.941406 19.738281 C 14.324219 19.992188 14.566406 20.386719 14.648438 20.808594 L 16.753906 31.46875 C 16.839844 31.890625 16.761719 32.347656 16.507812 32.730469 C 16.253906 33.109375 15.859375 33.351562 15.4375 33.4375 L 13.210938 33.875 C 12.785156 33.960938 12.332031 33.886719 11.949219 33.628906 C 11.570312 33.375 11.324219 32.980469 11.242188 32.558594 L 9.136719 21.898438 C 9.054688 21.476562 9.128906 21.019531 9.382812 20.640625 C 9.636719 20.257812 10.03125 20.015625 10.457031 19.929688 Z M 10.457031 19.929688 " fill-opacity="1" fill-rule="nonzero"/></g></g></g><g mask="url(#28c331fdea)"><g transform="matrix(1, 0, 0, 1, 306, 141)"><g clip-path="url(#01d4dd445f)"><g clip-path="url(#e131206edb)"><path fill="#ff3050" d="M 17.511719 1.125 C 5.800781 3.4375 -1.8125 14.804688 0.5 26.523438 C 2.816406 38.242188 14.179688 45.859375 25.890625 43.542969 C 37.605469 41.226562 45.214844 29.859375 42.902344 18.140625 C 40.585938 6.421875 29.226562 -1.191406 17.511719 1.125 Z M 17.511719 1.125 " fill-opacity="1" fill-rule="nonzero"/></g><path fill="#ff3050" d="M 32.0625 18.464844 C 33.691406 19.191406 33.847656 21.363281 32.464844 22.464844 C 33.523438 23.632812 32.863281 25.582031 31.558594 26.222656 C 31.84375 26.554688 32.011719 26.851562 32.03125 27.230469 C 32.121094 28.8125 30.480469 29.410156 29.207031 29.664062 L 22.265625 31.035156 C 19.507812 31.582031 17.828125 30.316406 17.574219 29.042969 L 16.285156 22.519531 C 15.605469 19.074219 18.898438 15.394531 18.417969 12.953125 L 17.511719 10.046875 C 17.480469 9.890625 17.386719 9.410156 17.523438 9.273438 C 17.695312 9.019531 18.257812 8.523438 19.160156 8.34375 C 19.742188 8.230469 20.1875 8.253906 20.714844 8.421875 C 22.464844 8.902344 23.0625 10.824219 23.375 12.414062 C 23.523438 13.15625 23.019531 15.625 23.070312 16.441406 C 24.207031 15.777344 26.972656 14.734375 29.261719 14.613281 C 31.933594 14.46875 33.019531 16.074219 32.0625 18.464844 Z M 9.785156 20.28125 L 12.011719 19.839844 C 12.4375 19.757812 12.890625 19.832031 13.273438 20.085938 C 13.652344 20.34375 13.894531 20.734375 13.980469 21.160156 L 16.085938 31.816406 C 16.167969 32.242188 16.09375 32.695312 15.839844 33.078125 C 15.582031 33.460938 15.191406 33.703125 14.765625 33.785156 L 12.542969 34.226562 C 12.117188 34.308594 11.660156 34.234375 11.28125 33.980469 C 10.898438 33.722656 10.65625 33.332031 10.574219 32.90625 L 8.46875 22.25 C 8.382812 21.824219 8.460938 21.371094 8.714844 20.988281 C 8.96875 20.605469 9.363281 20.363281 9.785156 20.28125 Z M 9.785156 20.28125 " fill-opacity="1" fill-rule="nonzero"/></g></g></g><g mask="url(#7a37ab1852)"><g transform="matrix(1, 0, 0, 1, 67, 238)"><g clip-path="url(#f3ac435e81)"><g clip-path="url(#8a6e74bca5)"><path fill="#ff3050" d="M 18.328125 0.929688 C 6.613281 3.246094 -0.996094 14.613281 1.316406 26.328125 C 3.632812 38.046875 14.996094 45.664062 26.707031 43.347656 C 38.421875 41.03125 46.03125 29.664062 43.71875 17.945312 C 41.402344 6.226562 30.039062 -1.386719 18.328125 0.929688 Z M 18.328125 0.929688 " fill-opacity="1" fill-rule="nonzero"/></g><path fill="#ff3050" d="M 32.878906 18.269531 C 34.507812 18.996094 34.660156 21.167969 33.28125 22.269531 C 34.339844 23.4375 33.675781 25.386719 32.371094 26.03125 C 32.65625 26.359375 32.828125 26.65625 32.847656 27.039062 C 32.9375 28.617188 31.296875 29.21875 30.023438 29.46875 L 23.082031 30.839844 C 20.324219 31.386719 18.640625 30.121094 18.390625 28.847656 L 17.101562 22.328125 C 16.421875 18.878906 19.714844 15.199219 19.234375 12.761719 L 18.328125 9.855469 C 18.296875 9.695312 18.203125 9.21875 18.339844 9.078125 C 18.511719 8.824219 19.074219 8.328125 19.972656 8.152344 C 20.558594 8.035156 21.003906 8.058594 21.53125 8.230469 C 23.277344 8.710938 23.878906 10.628906 24.191406 12.21875 C 24.339844 12.960938 23.835938 15.429688 23.886719 16.246094 C 25.023438 15.582031 27.789062 14.539062 30.078125 14.417969 C 32.75 14.273438 33.835938 15.878906 32.878906 18.269531 Z M 10.601562 20.085938 L 12.828125 19.644531 C 13.253906 19.5625 13.707031 19.636719 14.089844 19.894531 C 14.46875 20.148438 14.710938 20.539062 14.796875 20.964844 L 16.902344 31.621094 C 16.984375 32.046875 16.910156 32.503906 16.65625 32.882812 C 16.398438 33.265625 16.007812 33.507812 15.582031 33.589844 L 13.355469 34.03125 C 12.933594 34.117188 12.476562 34.039062 12.097656 33.785156 C 11.714844 33.53125 11.472656 33.136719 11.390625 32.710938 L 9.285156 22.054688 C 9.199219 21.628906 9.273438 21.175781 9.53125 20.792969 C 9.785156 20.414062 10.179688 20.171875 10.601562 20.085938 Z M 10.601562 20.085938 " fill-opacity="1" fill-rule="nonzero"/></g></g></g><g mask="url(#96e2a4f74c)"><g transform="matrix(1, 0, 0, 1, 303, 81)"><g clip-path="url(#a7d503b0ff)"><g clip-path="url(#5e45080b7a)"><path fill="#ff3050" d="M 11.132812 1.332031 C 4.085938 2.726562 -0.492188 9.5625 0.902344 16.609375 C 2.292969 23.660156 9.128906 28.238281 16.171875 26.847656 C 23.21875 25.453125 27.796875 18.617188 26.402344 11.570312 C 25.011719 4.519531 18.175781 -0.0585938 11.132812 1.332031 Z M 11.132812 1.332031 " fill-opacity="1" fill-rule="nonzero"/></g><path fill="#ff3050" d="M 19.882812 11.761719 C 20.863281 12.199219 20.957031 13.507812 20.125 14.167969 C 20.761719 14.871094 20.363281 16.042969 19.578125 16.429688 C 19.75 16.628906 19.851562 16.804688 19.863281 17.035156 C 19.917969 17.984375 18.929688 18.347656 18.167969 18.496094 L 13.992188 19.324219 C 12.332031 19.652344 11.320312 18.890625 11.171875 18.125 L 10.394531 14.203125 C 9.984375 12.128906 11.964844 9.914062 11.675781 8.449219 L 11.132812 6.699219 C 11.113281 6.605469 11.058594 6.316406 11.140625 6.234375 C 11.242188 6.082031 11.582031 5.78125 12.121094 5.675781 C 12.472656 5.605469 12.742188 5.621094 13.058594 5.722656 C 14.109375 6.011719 14.46875 7.167969 14.660156 8.125 C 14.746094 8.570312 14.445312 10.054688 14.476562 10.546875 C 15.160156 10.144531 16.824219 9.519531 18.199219 9.445312 C 19.804688 9.359375 20.460938 10.324219 19.882812 11.761719 Z M 6.484375 12.855469 L 7.824219 12.589844 C 8.078125 12.539062 8.351562 12.585938 8.582031 12.738281 C 8.8125 12.890625 8.957031 13.128906 9.007812 13.382812 L 10.273438 19.792969 C 10.324219 20.046875 10.277344 20.324219 10.125 20.550781 C 9.972656 20.78125 9.734375 20.925781 9.480469 20.976562 L 8.140625 21.242188 C 7.886719 21.292969 7.613281 21.246094 7.382812 21.09375 C 7.15625 20.941406 7.007812 20.703125 6.957031 20.449219 L 5.691406 14.039062 C 5.640625 13.785156 5.6875 13.507812 5.839844 13.28125 C 5.996094 13.050781 6.230469 12.90625 6.484375 12.855469 Z M 6.484375 12.855469 " fill-opacity="1" fill-rule="nonzero"/></g></g></g><g mask="url(#0081bbf469)"><g transform="matrix(1, 0, 0, 1, 85, 80)"><g clip-path="url(#7bedb9bafe)"><g clip-path="url(#4447de785f)"><path fill="#ff3050" d="M 11.105469 1.09375 C 4.0625 2.484375 -0.515625 9.320312 0.875 16.371094 C 2.269531 23.417969 9.101562 27.996094 16.148438 26.605469 C 23.191406 25.210938 27.769531 18.375 26.378906 11.328125 C 24.984375 4.28125 18.152344 -0.300781 11.105469 1.09375 Z M 11.105469 1.09375 " fill-opacity="1" fill-rule="nonzero"/></g><path fill="#ff3050" d="M 19.859375 11.523438 C 20.839844 11.957031 20.929688 13.265625 20.101562 13.925781 C 20.738281 14.628906 20.339844 15.800781 19.554688 16.1875 C 19.726562 16.386719 19.828125 16.566406 19.839844 16.792969 C 19.894531 17.746094 18.90625 18.105469 18.140625 18.257812 L 13.964844 19.082031 C 12.308594 19.410156 11.296875 18.648438 11.144531 17.882812 L 10.371094 13.960938 C 9.960938 11.886719 11.941406 9.675781 11.652344 8.207031 L 11.105469 6.460938 C 11.089844 6.363281 11.03125 6.078125 11.113281 5.992188 C 11.214844 5.839844 11.554688 5.542969 12.097656 5.433594 C 12.449219 5.367188 12.714844 5.378906 13.035156 5.480469 C 14.085938 5.769531 14.445312 6.925781 14.632812 7.882812 C 14.722656 8.328125 14.417969 9.8125 14.449219 10.304688 C 15.132812 9.90625 16.796875 9.277344 18.175781 9.203125 C 19.78125 9.117188 20.433594 10.082031 19.859375 11.523438 Z M 6.460938 12.613281 L 7.800781 12.347656 C 8.054688 12.296875 8.328125 12.34375 8.558594 12.496094 C 8.785156 12.652344 8.933594 12.886719 8.980469 13.140625 L 10.25 19.550781 C 10.300781 19.808594 10.253906 20.082031 10.101562 20.308594 C 9.945312 20.539062 9.710938 20.6875 9.457031 20.734375 L 8.117188 21 C 7.863281 21.050781 7.589844 21.007812 7.359375 20.851562 C 7.128906 20.699219 6.984375 20.460938 6.933594 20.207031 L 5.667969 13.796875 C 5.617188 13.542969 5.660156 13.269531 5.816406 13.039062 C 5.96875 12.808594 6.203125 12.664062 6.460938 12.613281 Z M 6.460938 12.613281 " fill-opacity="1" fill-rule="nonzero"/></g></g></g><g mask="url(#6cc249cb04)"><g transform="matrix(1, 0, 0, 1, 212, 295)"><g clip-path="url(#14edaccc5c)"><g clip-path="url(#ae441b1cdf)"><path fill="#ff3050" d="M 8.867188 9.554688 C -1.996094 20.871094 -1.628906 38.839844 9.679688 49.707031 C 20.992188 60.574219 38.953125 60.210938 49.816406 48.890625 C 60.679688 37.578125 60.3125 19.609375 49.003906 8.742188 C 37.691406 -2.125 19.730469 -1.761719 8.867188 9.554688 Z M 8.867188 9.554688 " fill-opacity="1" fill-rule="nonzero"/></g><path fill="#ff3050" d="M 37.582031 17.257812 C 39.878906 16.808594 41.683594 19.03125 41.023438 21.253906 C 43.042969 21.714844 43.796875 24.3125 42.875 25.988281 C 43.429688 26.125 43.835938 26.316406 44.144531 26.714844 C 45.433594 28.34375 44.117188 30.230469 42.9375 31.457031 L 36.5 38.167969 C 33.941406 40.828125 31.179688 40.734375 29.953125 39.554688 L 23.65625 33.503906 C 20.328125 30.308594 21.101562 23.867188 18.746094 21.605469 L 15.585938 19.160156 C 15.433594 19.011719 14.972656 18.570312 15.015625 18.316406 C 15.007812 17.914062 15.242188 16.957031 16.078125 16.085938 C 16.617188 15.523438 17.113281 15.210938 17.8125 14.996094 C 20.054688 14.199219 22.144531 15.8125 23.679688 17.289062 C 24.394531 17.976562 25.710938 21.011719 26.382812 21.851562 C 27.101562 20.28125 29.296875 17.074219 31.667969 15.21875 C 34.433594 13.050781 36.8125 13.957031 37.582031 17.257812 Z M 14.972656 35.992188 L 17.039062 33.839844 C 17.429688 33.429688 17.976562 33.171875 18.578125 33.160156 C 19.183594 33.144531 19.738281 33.386719 20.148438 33.777344 L 30.4375 43.660156 C 30.847656 44.054688 31.109375 44.601562 31.121094 45.203125 C 31.132812 45.808594 30.894531 46.363281 30.5 46.773438 L 28.433594 48.921875 C 28.042969 49.332031 27.496094 49.597656 26.894531 49.609375 C 26.292969 49.621094 25.734375 49.378906 25.324219 48.988281 L 15.035156 39.101562 C 14.628906 38.710938 14.367188 38.164062 14.351562 37.5625 C 14.339844 36.960938 14.582031 36.402344 14.972656 35.992188 Z M 14.972656 35.992188 " fill-opacity="1" fill-rule="nonzero"/></g></g></g><g mask="url(#b29593d8a9)"><g transform="matrix(1, 0, 0, 1, 203, 205)"><g clip-path="url(#32a595beb0)"><g clip-path="url(#c88da6c154)"><path fill="#ff3050" d="M 28.96875 1.886719 C 9.574219 5.71875 -3.03125 24.542969 0.804688 43.945312 C 4.636719 63.347656 23.449219 75.957031 42.84375 72.121094 C 62.238281 68.289062 74.84375 49.464844 71.007812 30.0625 C 67.175781 10.660156 48.363281 -1.949219 28.96875 1.886719 Z M 28.96875 1.886719 " fill-opacity="1" fill-rule="nonzero"/></g><path fill="#ff3050" d="M 53.058594 30.601562 C 55.757812 31.800781 56.015625 35.402344 53.730469 37.222656 C 55.480469 39.15625 54.382812 42.382812 52.222656 43.449219 C 52.695312 43.992188 52.976562 44.484375 53.007812 45.117188 C 53.160156 47.734375 50.441406 48.726562 48.332031 49.144531 L 36.835938 51.417969 C 32.273438 52.320312 29.488281 50.222656 29.074219 48.117188 L 26.941406 37.316406 C 25.8125 31.609375 31.265625 25.515625 30.46875 21.476562 L 28.96875 16.664062 C 28.917969 16.402344 28.761719 15.609375 28.988281 15.382812 C 29.273438 14.960938 30.203125 14.140625 31.695312 13.84375 C 32.660156 13.652344 33.398438 13.691406 34.273438 13.972656 C 37.167969 14.769531 38.160156 17.949219 38.679688 20.582031 C 38.921875 21.8125 38.089844 25.898438 38.171875 27.25 C 40.054688 26.148438 44.636719 24.421875 48.425781 24.222656 C 52.847656 23.984375 54.648438 26.640625 53.058594 30.601562 Z M 16.175781 33.605469 L 19.863281 32.878906 C 20.566406 32.738281 21.320312 32.863281 21.949219 33.289062 C 22.578125 33.710938 22.980469 34.359375 23.121094 35.0625 L 26.605469 52.710938 C 26.746094 53.410156 26.621094 54.167969 26.199219 54.796875 C 25.777344 55.429688 25.125 55.832031 24.421875 55.96875 L 20.738281 56.699219 C 20.035156 56.835938 19.28125 56.710938 18.652344 56.289062 C 18.019531 55.867188 17.617188 55.214844 17.480469 54.515625 L 13.992188 36.867188 C 13.855469 36.164062 13.980469 35.410156 14.402344 34.78125 C 14.824219 34.148438 15.472656 33.746094 16.175781 33.605469 Z M 16.175781 33.605469 " fill-opacity="1" fill-rule="nonzero"/></g></g></g><path fill="#3ce8ec" d="M 241.007812 76.707031 C 213.792969 71.222656 187.308594 88.832031 181.828125 116.0625 C 176.34375 143.289062 193.949219 169.785156 221.164062 175.265625 C 248.378906 180.75 274.863281 163.140625 280.34375 135.914062 C 285.824219 108.6875 268.222656 82.191406 241.007812 76.707031 Z M 241.007812 76.707031 " fill-opacity="1" fill-rule="nonzero"/><path fill="#3ce8ec" d="M 251.316406 104.421875 C 237.769531 101.691406 233.789062 112.558594 233.789062 112.558594 C 233.789062 112.558594 234.324219 100.996094 220.777344 98.269531 C 207.722656 95.636719 201.152344 108.542969 201.265625 116.257812 C 201.558594 136.445312 225.058594 155.28125 225.058594 155.28125 C 225.058594 155.28125 254.019531 147.015625 262.097656 128.515625 C 265.3125 121.472656 264.246094 107.027344 251.316406 104.421875 Z M 251.316406 104.421875 " fill-opacity="1" fill-rule="nonzero"/><g mask="url(#24b1adbb56)"><g transform="matrix(1, 0, 0, 1, 111, 244)"><g clip-path="url(#3b02dc6da7)"><g clip-path="url(#49c8f54a0a)"><path fill="#3ce8ec" d="M 24.011719 3.742188 C 4.554688 12.46875 -4.140625 35.304688 4.582031 54.769531 C 13.304688 74.238281 36.132812 82.933594 55.589844 74.207031 C 75.046875 65.480469 83.742188 42.644531 75.015625 23.179688 C 66.292969 3.710938 43.46875 -4.984375 24.011719 3.742188 Z M 24.011719 3.742188 " fill-opacity="1" fill-rule="nonzero"/></g><path fill="#3ce8ec" d="M 42.820312 16.460938 C 33.136719 20.804688 35.496094 29.371094 35.496094 29.371094 C 35.496094 29.371094 30.671875 21.910156 20.988281 26.253906 C 11.65625 30.4375 13.308594 41.441406 16.820312 46.210938 C 26.011719 58.699219 49.105469 59.976562 49.105469 59.976562 C 49.105469 59.976562 63.515625 41.875 60.3125 26.703125 C 59.175781 20.867188 52.066406 12.3125 42.820312 16.460938 Z M 42.820312 16.460938 " fill-opacity="1" fill-rule="nonzero"/></g></g></g><g mask="url(#a79b81a115)"><g transform="matrix(1, 0, 0, 1, 278, 277)"><g clip-path="url(#d621fdf22e)"><g clip-path="url(#4d8790439e)"><path fill="#3ce8ec" d="M 40.113281 6.652344 C 30.574219 -2.03125 15.820312 -1.332031 7.140625 8.210938 C -1.535156 17.753906 -0.835938 32.511719 8.699219 41.195312 C 18.238281 49.875 32.992188 49.179688 41.671875 39.636719 C 50.347656 30.09375 49.652344 15.332031 40.113281 6.652344 Z M 40.113281 6.652344 " fill-opacity="1" fill-rule="nonzero"/></g><path fill="#3ce8ec" d="M 37.613281 20.15625 C 32.863281 15.835938 28.6875 19.214844 28.6875 19.214844 C 28.6875 19.214844 31.65625 14.734375 26.90625 10.414062 C 22.332031 6.25 16.636719 9.824219 14.84375 12.925781 C 10.144531 21.042969 15.019531 34.15625 15.019531 34.15625 C 15.019531 34.15625 28.53125 37.777344 36.164062 32.332031 C 39.125 30.292969 42.144531 24.28125 37.613281 20.15625 Z M 37.613281 20.15625 " fill-opacity="1" fill-rule="nonzero"/></g></g></g><path fill="#3ce8ec" d="M 300.644531 27.511719 C 293.855469 31.1875 291.332031 39.664062 295.003906 46.457031 C 298.675781 53.25 307.152344 55.773438 313.941406 52.101562 C 320.730469 48.425781 323.253906 39.949219 319.582031 33.15625 C 315.90625 26.363281 307.433594 23.835938 300.644531 27.511719 Z M 300.644531 27.511719 " fill-opacity="1" fill-rule="nonzero"/><path fill="#3ce8ec" d="M 307.777344 31.597656 C 304.398438 33.425781 305.480469 36.453125 305.480469 36.453125 C 305.480469 36.453125 303.539062 33.890625 300.15625 35.71875 C 296.902344 37.484375 297.792969 41.410156 299.191406 43.039062 C 302.84375 47.296875 311.214844 47.136719 311.214844 47.136719 C 311.214844 47.136719 315.933594 40.214844 314.367188 34.824219 C 313.800781 32.746094 311.003906 29.851562 307.777344 31.597656 Z M 307.777344 31.597656 " fill-opacity="1" fill-rule="nonzero"/><g mask="url(#0aa7acdc15)"><g transform="matrix(1, 0, 0, 1, 288, 195)"><g clip-path="url(#49d694921b)"><g clip-path="url(#62bd5a9c01)"><path fill="#3ce8ec" d="M 15.605469 3.253906 C 2.480469 9.140625 -3.386719 24.546875 2.5 37.679688 C 8.386719 50.816406 23.785156 56.683594 36.914062 50.796875 C 50.039062 44.90625 55.90625 29.5 50.019531 16.367188 C 44.136719 3.234375 28.734375 -2.636719 15.605469 3.253906 Z M 15.605469 3.253906 " fill-opacity="1" fill-rule="nonzero"/></g><path fill="#3ce8ec" d="M 28.300781 11.832031 C 21.765625 14.765625 23.355469 20.546875 23.355469 20.546875 C 23.355469 20.546875 20.101562 15.511719 13.566406 18.441406 C 7.269531 21.265625 8.386719 28.6875 10.757812 31.90625 C 16.957031 40.332031 32.539062 41.195312 32.539062 41.195312 C 32.539062 41.195312 42.261719 28.980469 40.101562 18.746094 C 39.335938 14.808594 34.535156 9.035156 28.300781 11.832031 Z M 28.300781 11.832031 " fill-opacity="1" fill-rule="nonzero"/></g></g></g><g mask="url(#0abc5406a3)"><g transform="matrix(1, 0, 0, 1, 126, 53)"><g clip-path="url(#727fc1756d)"><g clip-path="url(#1bd277caa7)"><path fill="#3ce8ec" d="M 16.164062 3.027344 C 3.035156 8.917969 -2.832031 24.324219 3.054688 37.457031 C 8.941406 50.589844 24.339844 56.460938 37.46875 50.570312 C 50.59375 44.683594 56.460938 29.277344 50.574219 16.140625 C 44.691406 3.007812 29.289062 -2.859375 16.164062 3.027344 Z M 16.164062 3.027344 " fill-opacity="1" fill-rule="nonzero"/></g><path fill="#3ce8ec" d="M 28.855469 11.609375 C 22.320312 14.539062 23.914062 20.320312 23.914062 20.320312 C 23.914062 20.320312 20.65625 15.285156 14.121094 18.21875 C 7.828125 21.042969 8.941406 28.464844 11.3125 31.683594 C 17.511719 40.109375 33.09375 40.96875 33.09375 40.96875 C 33.09375 40.96875 42.816406 28.757812 40.65625 18.523438 C 39.890625 14.582031 35.089844 8.8125 28.855469 11.609375 Z M 28.855469 11.609375 " fill-opacity="1" fill-rule="nonzero"/></g></g></g><g mask="url(#85262a218e)"><g transform="matrix(1, 0, 0, 1, 56, 113)"><g clip-path="url(#d441c40749)"><g clip-path="url(#7975855368)"><path fill="#3ce8ec" d="M 46.464844 1.445312 C 15.859375 7.496094 -4.03125 37.199219 2.019531 67.816406 C 8.066406 98.433594 37.753906 118.332031 68.359375 112.28125 C 98.964844 106.230469 118.855469 76.53125 112.804688 45.910156 C 106.757812 15.292969 77.070312 -4.605469 46.464844 1.445312 Z M 46.464844 1.445312 " fill-opacity="1" fill-rule="nonzero"/></g><path fill="#3ce8ec" d="M 84.484375 46.761719 C 88.742188 48.652344 89.144531 54.332031 85.539062 57.207031 C 88.300781 60.257812 86.570312 65.351562 83.164062 67.03125 C 83.910156 67.890625 84.347656 68.667969 84.402344 69.667969 C 84.640625 73.792969 80.347656 75.363281 77.023438 76.019531 L 58.882812 79.605469 C 51.679688 81.03125 47.285156 77.722656 46.628906 74.398438 L 43.265625 57.359375 C 41.484375 48.351562 50.089844 38.734375 48.828125 32.359375 L 46.464844 24.765625 C 46.382812 24.351562 46.136719 23.105469 46.5 22.746094 C 46.945312 22.082031 48.414062 20.78125 50.769531 20.316406 C 52.292969 20.015625 53.453125 20.074219 54.835938 20.519531 C 59.402344 21.777344 60.96875 26.792969 61.789062 30.949219 C 62.171875 32.890625 60.855469 39.339844 60.992188 41.472656 C 63.957031 39.734375 71.1875 37.007812 77.167969 36.691406 C 84.144531 36.320312 86.988281 40.507812 84.484375 46.761719 Z M 26.277344 51.503906 L 32.09375 50.351562 C 33.203125 50.132812 34.394531 50.332031 35.386719 50.996094 C 36.382812 51.664062 37.019531 52.691406 37.238281 53.800781 L 42.738281 81.648438 C 42.957031 82.753906 42.761719 83.945312 42.09375 84.941406 C 41.425781 85.9375 40.402344 86.570312 39.292969 86.789062 L 33.476562 87.941406 C 32.371094 88.160156 31.179688 87.964844 30.183594 87.296875 C 29.1875 86.628906 28.554688 85.601562 28.335938 84.496094 L 22.835938 56.648438 C 22.617188 55.539062 22.8125 54.347656 23.476562 53.351562 C 24.144531 52.355469 25.171875 51.722656 26.277344 51.503906 Z M 26.277344 51.503906 " fill-opacity="1" fill-rule="nonzero"/></g></g></g><g mask="url(#768554950c)"><g transform="matrix(1, 0, 0, 1, 227, 21)"><g clip-path="url(#1fa5291693)"><g clip-path="url(#303007039b)"><path fill="#3ce8ec" d="M 18.359375 0.949219 C 6.644531 3.265625 -0.96875 14.628906 1.347656 26.347656 C 3.664062 38.066406 15.023438 45.683594 26.738281 43.367188 C 38.449219 41.050781 46.0625 29.683594 43.746094 17.964844 C 41.433594 6.246094 30.070312 -1.367188 18.359375 0.949219 Z M 18.359375 0.949219 " fill-opacity="1" fill-rule="nonzero"/></g><path fill="#3ce8ec" d="M 32.90625 18.289062 C 34.539062 19.015625 34.691406 21.1875 33.3125 22.289062 C 34.367188 23.457031 33.707031 25.40625 32.402344 26.046875 C 32.6875 26.378906 32.855469 26.675781 32.878906 27.058594 C 32.96875 28.636719 31.324219 29.238281 30.054688 29.488281 L 23.109375 30.859375 C 20.355469 31.40625 18.671875 30.140625 18.421875 28.867188 L 17.132812 22.347656 C 16.453125 18.898438 19.746094 15.21875 19.261719 12.78125 L 18.359375 9.871094 C 18.328125 9.714844 18.234375 9.238281 18.371094 9.097656 C 18.539062 8.84375 19.105469 8.347656 20.003906 8.171875 C 20.585938 8.054688 21.03125 8.078125 21.5625 8.246094 C 23.308594 8.730469 23.910156 10.648438 24.222656 12.238281 C 24.371094 12.980469 23.867188 15.449219 23.917969 16.265625 C 25.050781 15.601562 27.820312 14.558594 30.109375 14.4375 C 32.777344 14.292969 33.867188 15.898438 32.90625 18.289062 Z M 10.632812 20.105469 L 12.859375 19.664062 C 13.28125 19.582031 13.738281 19.65625 14.117188 19.910156 C 14.5 20.167969 14.742188 20.558594 14.824219 20.984375 L 16.929688 31.640625 C 17.015625 32.066406 16.941406 32.523438 16.683594 32.902344 C 16.429688 33.285156 16.035156 33.527344 15.613281 33.609375 L 13.386719 34.050781 C 12.960938 34.132812 12.507812 34.058594 12.125 33.804688 C 11.746094 33.546875 11.503906 33.15625 11.417969 32.730469 L 9.3125 22.074219 C 9.230469 21.648438 9.304688 21.195312 9.558594 20.8125 C 9.816406 20.433594 10.207031 20.1875 10.632812 20.105469 Z M 10.632812 20.105469 " fill-opacity="1" fill-rule="nonzero"/></g></g></g><g mask="url(#a044ecfd2f)"><g transform="matrix(1, 0, 0, 1, 299, 134)"><g clip-path="url(#31923bb02c)"><g clip-path="url(#6a69c86758)"><path fill="#3ce8ec" d="M 17.6875 1.296875 C 5.976562 3.613281 -1.636719 14.980469 0.679688 26.699219 C 2.992188 38.417969 14.355469 46.03125 26.070312 43.714844 C 37.78125 41.402344 45.394531 30.035156 43.078125 18.316406 C 40.765625 6.597656 29.402344 -1.019531 17.6875 1.296875 Z M 17.6875 1.296875 " fill-opacity="1" fill-rule="nonzero"/></g><path fill="#3ce8ec" d="M 32.238281 18.640625 C 33.867188 19.363281 34.023438 21.539062 32.644531 22.636719 C 33.699219 23.804688 33.039062 25.753906 31.734375 26.398438 C 32.019531 26.726562 32.1875 27.023438 32.207031 27.40625 C 32.300781 28.984375 30.65625 29.585938 29.382812 29.835938 L 22.441406 31.210938 C 19.683594 31.753906 18.003906 30.488281 17.753906 29.21875 L 16.464844 22.695312 C 15.78125 19.25 19.074219 15.566406 18.59375 13.128906 L 17.691406 10.222656 C 17.660156 10.0625 17.5625 9.585938 17.703125 9.449219 C 17.871094 9.195312 18.433594 8.699219 19.335938 8.519531 C 19.917969 8.402344 20.363281 8.425781 20.894531 8.597656 C 22.640625 9.078125 23.238281 11 23.554688 12.589844 C 23.699219 13.332031 23.195312 15.800781 23.25 16.617188 C 24.382812 15.949219 27.152344 14.90625 29.441406 14.785156 C 32.109375 14.644531 33.199219 16.246094 32.238281 18.640625 Z M 9.964844 20.453125 L 12.191406 20.015625 C 12.613281 19.929688 13.070312 20.007812 13.449219 20.261719 C 13.832031 20.515625 14.074219 20.910156 14.15625 21.332031 L 16.261719 31.992188 C 16.347656 32.414062 16.269531 32.871094 16.015625 33.253906 C 15.761719 33.632812 15.367188 33.875 14.945312 33.960938 L 12.71875 34.398438 C 12.292969 34.484375 11.839844 34.410156 11.457031 34.152344 C 11.078125 33.898438 10.835938 33.503906 10.75 33.082031 L 8.644531 22.421875 C 8.5625 22 8.636719 21.542969 8.890625 21.164062 C 9.148438 20.78125 9.539062 20.539062 9.964844 20.453125 Z M 9.964844 20.453125 " fill-opacity="1" fill-rule="nonzero"/></g></g></g><g mask="url(#075ad3ff50)"><g transform="matrix(1, 0, 0, 1, 60, 231)"><g clip-path="url(#2cb70e3cf6)"><g clip-path="url(#7b5513da2c)"><path fill="#3ce8ec" d="M 18.503906 1.101562 C 6.792969 3.417969 -0.820312 14.785156 1.496094 26.503906 C 3.808594 38.222656 15.171875 45.835938 26.882812 43.523438 C 38.597656 41.207031 46.210938 29.839844 43.894531 18.121094 C 41.578125 6.402344 30.21875 -1.214844 18.503906 1.101562 Z M 18.503906 1.101562 " fill-opacity="1" fill-rule="nonzero"/></g><path fill="#3ce8ec" d="M 33.054688 18.445312 C 34.683594 19.167969 34.839844 21.34375 33.457031 22.441406 C 34.515625 23.609375 33.855469 25.558594 32.550781 26.203125 C 32.835938 26.53125 33.003906 26.828125 33.023438 27.210938 C 33.117188 28.792969 31.472656 29.390625 30.199219 29.644531 L 23.257812 31.015625 C 20.5 31.5625 18.820312 30.296875 18.566406 29.023438 L 17.28125 22.5 C 16.597656 19.054688 19.890625 15.375 19.410156 12.933594 L 18.503906 10.027344 C 18.472656 9.867188 18.378906 9.390625 18.519531 9.253906 C 18.6875 9 19.25 8.503906 20.152344 8.324219 C 20.734375 8.210938 21.179688 8.230469 21.707031 8.402344 C 23.457031 8.882812 24.054688 10.804688 24.371094 12.394531 C 24.515625 13.136719 24.011719 15.605469 24.0625 16.421875 C 25.199219 15.757812 27.96875 14.714844 30.253906 14.589844 C 32.925781 14.449219 34.011719 16.050781 33.054688 18.445312 Z M 10.777344 20.261719 L 13.003906 19.820312 C 13.429688 19.734375 13.882812 19.8125 14.265625 20.066406 C 14.644531 20.320312 14.890625 20.714844 14.972656 21.140625 L 17.078125 31.796875 C 17.160156 32.222656 17.085938 32.675781 16.832031 33.058594 C 16.578125 33.4375 16.183594 33.679688 15.761719 33.765625 L 13.535156 34.207031 C 13.109375 34.289062 12.65625 34.214844 12.273438 33.957031 C 11.894531 33.703125 11.648438 33.3125 11.566406 32.886719 L 9.460938 22.230469 C 9.378906 21.804688 9.453125 21.347656 9.707031 20.96875 C 9.960938 20.585938 10.355469 20.34375 10.777344 20.261719 Z M 10.777344 20.261719 " fill-opacity="1" fill-rule="nonzero"/></g></g></g><g mask="url(#c04c5f51b7)"><g transform="matrix(1, 0, 0, 1, 296, 75)"><g clip-path="url(#e01e13f265)"><g clip-path="url(#66a649ddbb)"><path fill="#3ce8ec" d="M 11.308594 0.507812 C 4.265625 1.898438 -0.3125 8.738281 1.078125 15.785156 C 2.472656 22.832031 9.304688 27.414062 16.347656 26.019531 C 23.394531 24.628906 27.972656 17.789062 26.582031 10.742188 C 25.1875 3.695312 18.355469 -0.886719 11.308594 0.507812 Z M 11.308594 0.507812 " fill-opacity="1" fill-rule="nonzero"/></g><path fill="#3ce8ec" d="M 20.058594 10.9375 C 21.039062 11.371094 21.132812 12.679688 20.304688 13.339844 C 20.9375 14.042969 20.539062 15.214844 19.757812 15.601562 C 19.929688 15.800781 20.03125 15.980469 20.042969 16.210938 C 20.097656 17.160156 19.109375 17.519531 18.34375 17.671875 L 14.167969 18.496094 C 12.507812 18.824219 11.5 18.0625 11.347656 17.296875 L 10.574219 13.375 C 10.164062 11.304688 12.144531 9.089844 11.851562 7.621094 L 11.308594 5.875 C 11.289062 5.777344 11.234375 5.492188 11.316406 5.410156 C 11.417969 5.253906 11.757812 4.957031 12.300781 4.851562 C 12.648438 4.78125 12.917969 4.792969 13.234375 4.898438 C 14.285156 5.1875 14.648438 6.339844 14.835938 7.296875 C 14.925781 7.742188 14.621094 9.230469 14.652344 9.71875 C 15.335938 9.320312 17 8.691406 18.375 8.617188 C 19.984375 8.535156 20.636719 9.496094 20.058594 10.9375 Z M 6.664062 12.027344 L 8 11.765625 C 8.257812 11.714844 8.53125 11.757812 8.757812 11.910156 C 8.988281 12.066406 9.132812 12.300781 9.183594 12.558594 L 10.449219 18.96875 C 10.5 19.222656 10.457031 19.496094 10.304688 19.726562 C 10.148438 19.953125 9.914062 20.101562 9.660156 20.152344 L 8.320312 20.414062 C 8.0625 20.464844 7.789062 20.421875 7.5625 20.265625 C 7.332031 20.113281 7.1875 19.878906 7.136719 19.621094 L 5.871094 13.210938 C 5.820312 12.957031 5.863281 12.683594 6.019531 12.453125 C 6.171875 12.226562 6.40625 12.078125 6.664062 12.027344 Z M 6.664062 12.027344 " fill-opacity="1" fill-rule="nonzero"/></g></g></g><g mask="url(#a5dc754e8a)"><g transform="matrix(1, 0, 0, 1, 78, 73)"><g clip-path="url(#950d98e092)"><g clip-path="url(#22e2835af9)"><path fill="#3ce8ec" d="M 11.285156 1.265625 C 4.238281 2.660156 -0.339844 9.496094 1.054688 16.542969 C 2.445312 23.589844 9.277344 28.171875 16.324219 26.777344 C 23.367188 25.386719 27.945312 18.550781 26.554688 11.5 C 25.164062 4.453125 18.328125 -0.128906 11.285156 1.265625 Z M 11.285156 1.265625 " fill-opacity="1" fill-rule="nonzero"/></g><path fill="#3ce8ec" d="M 20.035156 11.695312 C 21.015625 12.132812 21.109375 13.4375 20.277344 14.101562 C 20.914062 14.800781 20.515625 15.976562 19.730469 16.363281 C 19.902344 16.558594 20.003906 16.738281 20.015625 16.96875 C 20.070312 17.917969 19.082031 18.28125 18.316406 18.429688 L 14.140625 19.257812 C 12.484375 19.585938 11.472656 18.824219 11.320312 18.058594 L 10.546875 14.136719 C 10.136719 12.0625 12.117188 9.847656 11.828125 8.382812 L 11.285156 6.632812 C 11.265625 6.539062 11.207031 6.25 11.292969 6.167969 C 11.394531 6.015625 11.730469 5.714844 12.273438 5.609375 C 12.625 5.539062 12.890625 5.550781 13.210938 5.65625 C 14.261719 5.945312 14.621094 7.101562 14.8125 8.054688 C 14.898438 8.503906 14.597656 9.988281 14.628906 10.480469 C 15.308594 10.078125 16.976562 9.449219 18.351562 9.378906 C 19.957031 9.292969 20.613281 10.257812 20.035156 11.695312 Z M 6.636719 12.789062 L 7.976562 12.523438 C 8.230469 12.472656 8.503906 12.515625 8.734375 12.671875 C 8.964844 12.824219 9.109375 13.0625 9.160156 13.316406 L 10.425781 19.726562 C 10.476562 19.980469 10.429688 20.253906 10.277344 20.484375 C 10.125 20.714844 9.886719 20.859375 9.632812 20.910156 L 8.292969 21.175781 C 8.039062 21.226562 7.765625 21.179688 7.535156 21.027344 C 7.308594 20.871094 7.160156 20.636719 7.109375 20.382812 L 5.84375 13.972656 C 5.792969 13.714844 5.839844 13.441406 5.992188 13.214844 C 6.144531 12.984375 6.382812 12.839844 6.636719 12.789062 Z M 6.636719 12.789062 " fill-opacity="1" fill-rule="nonzero"/></g></g></g><g mask="url(#94605e6c42)"><g transform="matrix(1, 0, 0, 1, 205, 288)"><g clip-path="url(#7c124924aa)"><g clip-path="url(#6645138af6)"><path fill="#3ce8ec" d="M 9.046875 9.730469 C -1.816406 21.046875 -1.453125 39.011719 9.859375 49.878906 C 21.171875 60.75 39.128906 60.386719 49.992188 49.066406 C 60.855469 37.75 60.492188 19.78125 49.179688 8.914062 C 37.867188 -1.953125 19.90625 -1.589844 9.046875 9.730469 Z M 9.046875 9.730469 " fill-opacity="1" fill-rule="nonzero"/></g><path fill="#3ce8ec" d="M 37.757812 17.429688 C 40.058594 16.984375 41.859375 19.207031 41.203125 21.429688 C 43.21875 21.890625 43.972656 24.484375 43.054688 26.160156 C 43.609375 26.300781 44.015625 26.492188 44.324219 26.886719 C 45.609375 28.519531 44.292969 30.402344 43.113281 31.632812 L 36.675781 38.339844 C 34.121094 41.003906 31.359375 40.910156 30.128906 39.726562 L 23.832031 33.679688 C 20.507812 30.484375 21.277344 24.042969 18.925781 21.777344 L 15.761719 19.332031 C 15.609375 19.183594 15.148438 18.742188 15.195312 18.492188 C 15.1875 18.089844 15.417969 17.128906 16.253906 16.261719 C 16.792969 15.695312 17.289062 15.386719 17.988281 15.171875 C 20.230469 14.371094 22.320312 15.984375 23.855469 17.460938 C 24.574219 18.148438 25.890625 21.1875 26.558594 22.027344 C 27.277344 20.453125 29.472656 17.246094 31.84375 15.390625 C 34.609375 13.226562 36.988281 14.132812 37.757812 17.429688 Z M 15.152344 36.164062 L 17.214844 34.015625 C 17.609375 33.605469 18.15625 33.34375 18.757812 33.332031 C 19.359375 33.320312 19.917969 33.558594 20.324219 33.953125 L 30.613281 43.835938 C 31.023438 44.230469 31.285156 44.773438 31.296875 45.378906 C 31.308594 45.980469 31.070312 46.539062 30.675781 46.945312 L 28.613281 49.097656 C 28.21875 49.507812 27.671875 49.769531 27.070312 49.78125 C 26.46875 49.796875 25.910156 49.554688 25.5 49.164062 L 15.214844 39.277344 C 14.804688 38.882812 14.542969 38.335938 14.53125 37.734375 C 14.519531 37.132812 14.757812 36.574219 15.152344 36.164062 Z M 15.152344 36.164062 " fill-opacity="1" fill-rule="nonzero"/></g></g></g><g mask="url(#4699467a0b)"><g transform="matrix(1, 0, 0, 1, 196, 199)"><g clip-path="url(#04f486ee21)"><g clip-path="url(#9bca47d2a7)"><path fill="#3ce8ec" d="M 29.144531 1.058594 C 9.75 4.894531 -2.851562 23.714844 0.980469 43.117188 C 4.8125 62.523438 23.625 75.132812 43.019531 71.296875 C 62.414062 67.460938 75.019531 48.640625 71.1875 29.238281 C 67.351562 9.835938 48.539062 -2.773438 29.144531 1.058594 Z M 29.144531 1.058594 " fill-opacity="1" fill-rule="nonzero"/></g><path fill="#3ce8ec" d="M 53.238281 29.777344 C 55.9375 30.976562 56.191406 34.574219 53.90625 36.394531 C 55.65625 38.328125 54.5625 41.554688 52.402344 42.621094 C 52.875 43.167969 53.152344 43.660156 53.1875 44.292969 C 53.339844 46.90625 50.617188 47.902344 48.511719 48.316406 L 37.015625 50.589844 C 32.453125 51.492188 29.667969 49.398438 29.25 47.289062 L 27.117188 36.492188 C 25.988281 30.785156 31.441406 24.6875 30.644531 20.652344 L 29.144531 15.839844 C 29.09375 15.574219 28.9375 14.785156 29.167969 14.558594 C 29.449219 14.136719 30.378906 13.3125 31.871094 13.019531 C 32.835938 12.828125 33.574219 12.863281 34.449219 13.148438 C 37.34375 13.945312 38.335938 17.125 38.855469 19.757812 C 39.101562 20.984375 38.265625 25.074219 38.351562 26.425781 C 40.230469 25.324219 44.8125 23.597656 48.601562 23.394531 C 53.023438 23.160156 54.824219 25.8125 53.238281 29.777344 Z M 16.355469 32.78125 L 20.039062 32.050781 C 20.742188 31.914062 21.496094 32.039062 22.125 32.460938 C 22.757812 32.882812 23.160156 33.535156 23.296875 34.238281 L 26.785156 51.882812 C 26.921875 52.585938 26.796875 53.339844 26.375 53.972656 C 25.953125 54.601562 25.304688 55.003906 24.601562 55.144531 L 20.914062 55.871094 C 20.214844 56.011719 19.457031 55.886719 18.828125 55.464844 C 18.199219 55.039062 17.796875 54.390625 17.65625 53.6875 L 14.171875 36.042969 C 14.03125 35.339844 14.15625 34.585938 14.578125 33.953125 C 15 33.324219 15.652344 32.921875 16.355469 32.78125 Z M 16.355469 32.78125 " fill-opacity="1" fill-rule="nonzero"/></g></g></g><path fill="#000000" d="M 244.417969 79.5 C 217.203125 74.015625 190.71875 91.625 185.238281 118.855469 C 179.757812 146.082031 197.359375 172.574219 224.574219 178.058594 C 251.789062 183.542969 278.273438 165.933594 283.753906 138.707031 C 289.238281 111.476562 271.632812 84.984375 244.417969 79.5 Z M 244.417969 79.5 " fill-opacity="1" fill-rule="nonzero"/><path fill="#ffffff" d="M 254.726562 107.214844 C 241.183594 104.484375 237.199219 115.347656 237.199219 115.347656 C 237.199219 115.347656 237.734375 103.789062 224.1875 101.0625 C 211.132812 98.429688 204.5625 111.335938 204.675781 119.050781 C 204.96875 139.238281 228.472656 158.074219 228.472656 158.074219 C 228.472656 158.074219 257.429688 149.808594 265.511719 131.308594 C 268.722656 124.265625 267.660156 109.820312 254.726562 107.214844 Z M 254.726562 107.214844 " fill-opacity="1" fill-rule="nonzero"/><g mask="url(#330f19fa7b)"><g transform="matrix(1, 0, 0, 1, 115, 246)"><g clip-path="url(#4366df4c95)"><g clip-path="url(#07db645964)"><path fill="#000000" d="M 23.421875 4.535156 C 3.964844 13.261719 -4.730469 36.097656 3.992188 55.5625 C 12.71875 75.03125 35.542969 83.726562 55 75 C 74.457031 66.273438 83.152344 43.4375 74.429688 23.972656 C 65.707031 4.503906 42.878906 -4.195312 23.421875 4.535156 Z M 23.421875 4.535156 " fill-opacity="1" fill-rule="nonzero"/></g><path fill="#ffffff" d="M 42.234375 17.253906 C 32.550781 21.597656 34.90625 30.164062 34.90625 30.164062 C 34.90625 30.164062 30.082031 22.703125 20.398438 27.046875 C 11.066406 31.230469 12.71875 42.234375 16.230469 47.003906 C 25.421875 59.492188 48.515625 60.769531 48.515625 60.769531 C 48.515625 60.769531 62.929688 42.667969 59.726562 27.496094 C 58.589844 21.660156 51.476562 13.105469 42.234375 17.253906 Z M 42.234375 17.253906 " fill-opacity="1" fill-rule="nonzero"/></g></g></g><g mask="url(#8b82cc0003)"><g transform="matrix(1, 0, 0, 1, 282, 280)"><g clip-path="url(#ac2a8fe153)"><g clip-path="url(#a5f14a52b1)"><path fill="#000000" d="M 39.523438 6.441406 C 29.984375 -2.238281 15.230469 -1.542969 6.554688 8.003906 C -2.125 17.542969 -1.425781 32.304688 8.113281 40.988281 C 17.652344 49.667969 32.40625 48.972656 41.082031 39.429688 C 49.761719 29.886719 49.0625 15.125 39.523438 6.441406 Z M 39.523438 6.441406 " fill-opacity="1" fill-rule="nonzero"/></g><path fill="#ffffff" d="M 37.023438 19.949219 C 32.277344 15.628906 28.097656 19.007812 28.097656 19.007812 C 28.097656 19.007812 31.066406 14.527344 26.320312 10.207031 C 21.746094 6.042969 16.046875 9.617188 14.253906 12.71875 C 9.554688 20.832031 14.429688 33.949219 14.429688 33.949219 C 14.429688 33.949219 27.941406 37.566406 35.574219 32.125 C 38.535156 30.082031 41.554688 24.074219 37.023438 19.949219 Z M 37.023438 19.949219 " fill-opacity="1" fill-rule="nonzero"/></g></g></g><path fill="#000000" d="M 304.054688 30.304688 C 297.265625 33.980469 294.742188 42.457031 298.414062 49.25 C 302.089844 56.042969 310.5625 58.566406 317.351562 54.890625 C 324.140625 51.21875 326.664062 42.738281 322.992188 35.949219 C 319.320312 29.15625 310.84375 26.628906 304.054688 30.304688 Z M 304.054688 30.304688 " fill-opacity="1" fill-rule="nonzero"/><path fill="#ffffff" d="M 311.1875 34.390625 C 307.808594 36.21875 308.890625 39.246094 308.890625 39.246094 C 308.890625 39.246094 306.949219 36.683594 303.570312 38.511719 C 300.3125 40.273438 301.207031 44.203125 302.601562 45.828125 C 306.257812 50.089844 314.628906 49.929688 314.628906 49.929688 C 314.628906 49.929688 319.34375 43.007812 317.777344 37.617188 C 317.210938 35.539062 314.414062 32.644531 311.1875 34.390625 Z M 311.1875 34.390625 " fill-opacity="1" fill-rule="nonzero"/><g mask="url(#fb7f9458c6)"><g transform="matrix(1, 0, 0, 1, 291, 198)"><g clip-path="url(#884a33f2b2)"><g clip-path="url(#85e26eff4e)"><path fill="#000000" d="M 16.019531 3.046875 C 2.890625 8.933594 -2.976562 24.339844 2.910156 37.472656 C 8.796875 50.609375 24.195312 56.476562 37.324219 50.585938 C 50.453125 44.699219 56.316406 29.292969 50.433594 16.160156 C 44.546875 3.023438 29.144531 -2.84375 16.019531 3.046875 Z M 16.019531 3.046875 " fill-opacity="1" fill-rule="nonzero"/></g><path fill="#ffffff" d="M 28.710938 11.625 C 22.175781 14.558594 23.769531 20.339844 23.769531 20.339844 C 23.769531 20.339844 20.511719 15.304688 13.980469 18.234375 C 7.683594 21.058594 8.796875 28.480469 11.167969 31.699219 C 17.367188 40.125 32.949219 40.988281 32.949219 40.988281 C 32.949219 40.988281 42.671875 28.773438 40.511719 18.539062 C 39.746094 14.597656 34.949219 8.828125 28.710938 11.625 Z M 28.710938 11.625 " fill-opacity="1" fill-rule="nonzero"/></g></g></g><g mask="url(#24ecd6f348)"><g transform="matrix(1, 0, 0, 1, 129, 56)"><g clip-path="url(#a866b78a37)"><g clip-path="url(#16a28027c0)"><path fill="#000000" d="M 16.574219 2.820312 C 3.445312 8.710938 -2.421875 24.117188 3.464844 37.25 C 9.351562 50.382812 24.75 56.25 37.878906 50.363281 C 51.007812 44.476562 56.871094 29.070312 50.988281 15.933594 C 45.101562 2.800781 29.703125 -3.066406 16.574219 2.820312 Z M 16.574219 2.820312 " fill-opacity="1" fill-rule="nonzero"/></g><path fill="#ffffff" d="M 29.265625 11.402344 C 22.730469 14.332031 24.324219 20.113281 24.324219 20.113281 C 24.324219 20.113281 21.070312 15.078125 14.535156 18.011719 C 8.238281 20.835938 9.351562 28.257812 11.722656 31.476562 C 17.921875 39.902344 33.503906 40.761719 33.503906 40.761719 C 33.503906 40.761719 43.230469 28.550781 41.066406 18.3125 C 40.300781 14.375 35.503906 8.605469 29.265625 11.402344 Z M 29.265625 11.402344 " fill-opacity="1" fill-rule="nonzero"/></g></g></g><g mask="url(#db469012da)"><g transform="matrix(1, 0, 0, 1, 60, 115)"><g clip-path="url(#f1c38e3723)"><g clip-path="url(#a0b0a2af6c)"><path fill="#000000" d="M 45.875 2.238281 C 15.269531 8.289062 -4.621094 37.992188 1.429688 68.609375 C 7.476562 99.226562 37.164062 119.125 67.769531 113.074219 C 98.375 107.023438 118.265625 77.324219 112.21875 46.703125 C 106.167969 16.085938 76.480469 -3.8125 45.875 2.238281 Z M 45.875 2.238281 " fill-opacity="1" fill-rule="nonzero"/></g><path fill="#ffffff" d="M 83.894531 47.554688 C 88.152344 49.445312 88.554688 55.125 84.949219 57.996094 C 87.710938 61.050781 85.984375 66.144531 82.574219 67.824219 C 83.320312 68.683594 83.761719 69.460938 83.8125 70.457031 C 84.054688 74.585938 79.757812 76.15625 76.4375 76.8125 L 58.292969 80.398438 C 51.09375 81.824219 46.699219 78.515625 46.042969 75.191406 L 42.675781 58.152344 C 40.894531 49.144531 49.5 39.527344 48.242188 33.152344 L 45.878906 25.558594 C 45.796875 25.144531 45.550781 23.894531 45.910156 23.535156 C 46.355469 22.875 47.824219 21.574219 50.179688 21.109375 C 51.703125 20.808594 52.867188 20.867188 54.25 21.3125 C 58.8125 22.570312 60.378906 27.585938 61.199219 31.742188 C 61.585938 33.683594 60.269531 40.132812 60.402344 42.265625 C 63.367188 40.527344 70.601562 37.800781 76.582031 37.484375 C 83.558594 37.109375 86.398438 41.300781 83.894531 47.554688 Z M 25.691406 52.296875 L 31.507812 51.144531 C 32.613281 50.925781 33.804688 51.125 34.800781 51.789062 C 35.796875 52.457031 36.429688 53.484375 36.648438 54.589844 L 42.148438 82.441406 C 42.367188 83.546875 42.171875 84.738281 41.503906 85.734375 C 40.839844 86.730469 39.8125 87.363281 38.703125 87.582031 L 32.886719 88.734375 C 31.78125 88.953125 30.589844 88.753906 29.59375 88.089844 C 28.601562 87.421875 27.964844 86.394531 27.746094 85.285156 L 22.246094 57.4375 C 22.027344 56.332031 22.222656 55.140625 22.890625 54.144531 C 23.558594 53.148438 24.582031 52.515625 25.691406 52.296875 Z M 25.691406 52.296875 " fill-opacity="1" fill-rule="nonzero"/></g></g></g><g mask="url(#4184922621)"><g transform="matrix(1, 0, 0, 1, 231, 24)"><g clip-path="url(#4dd8ec51ec)"><g clip-path="url(#338d1d90fb)"><path fill="#000000" d="M 17.769531 0.742188 C 6.054688 3.054688 -1.554688 14.421875 0.757812 26.140625 C 3.074219 37.859375 14.4375 45.476562 26.148438 43.160156 C 37.863281 40.84375 45.472656 29.476562 43.160156 17.757812 C 40.84375 6.039062 29.480469 -1.574219 17.769531 0.742188 Z M 17.769531 0.742188 " fill-opacity="1" fill-rule="nonzero"/></g><path fill="#ffffff" d="M 32.320312 18.082031 C 33.949219 18.808594 34.101562 20.980469 32.722656 22.082031 C 33.78125 23.25 33.117188 25.199219 31.8125 25.839844 C 32.097656 26.171875 32.269531 26.46875 32.289062 26.847656 C 32.378906 28.429688 30.738281 29.027344 29.464844 29.28125 L 22.523438 30.652344 C 19.765625 31.199219 18.082031 29.933594 17.832031 28.660156 L 16.542969 22.140625 C 15.863281 18.691406 19.15625 15.011719 18.675781 12.570312 L 17.769531 9.664062 C 17.738281 9.507812 17.644531 9.027344 17.78125 8.890625 C 17.953125 8.636719 18.515625 8.140625 19.414062 7.960938 C 20 7.847656 20.445312 7.871094 20.972656 8.039062 C 22.71875 8.519531 23.320312 10.441406 23.632812 12.03125 C 23.78125 12.773438 23.277344 15.242188 23.328125 16.058594 C 24.464844 15.394531 27.230469 14.351562 29.519531 14.230469 C 32.191406 14.085938 33.277344 15.691406 32.320312 18.082031 Z M 10.042969 19.898438 L 12.269531 19.457031 C 12.695312 19.375 13.148438 19.449219 13.53125 19.703125 C 13.910156 19.960938 14.152344 20.351562 14.238281 20.777344 L 16.34375 31.433594 C 16.425781 31.859375 16.351562 32.3125 16.097656 32.695312 C 15.839844 33.078125 15.449219 33.320312 15.023438 33.402344 L 12.796875 33.84375 C 12.375 33.925781 11.917969 33.851562 11.539062 33.597656 C 11.15625 33.339844 10.914062 32.949219 10.832031 32.523438 L 8.726562 21.867188 C 8.640625 21.441406 8.71875 20.988281 8.972656 20.605469 C 9.226562 20.226562 9.621094 19.980469 10.042969 19.898438 Z M 10.042969 19.898438 " fill-opacity="1" fill-rule="nonzero"/></g></g></g><g mask="url(#83473e50b1)"><g transform="matrix(1, 0, 0, 1, 302, 137)"><g clip-path="url(#61b5b5d9c1)"><g clip-path="url(#3c36acc191)"><path fill="#000000" d="M 18.101562 1.089844 C 6.386719 3.40625 -1.226562 14.773438 1.089844 26.492188 C 3.40625 38.210938 14.765625 45.824219 26.480469 43.507812 C 38.191406 41.191406 45.804688 29.824219 43.492188 18.109375 C 41.175781 6.390625 29.8125 -1.226562 18.101562 1.089844 Z M 18.101562 1.089844 " fill-opacity="1" fill-rule="nonzero"/></g><path fill="#ffffff" d="M 32.652344 18.433594 C 34.28125 19.15625 34.433594 21.332031 33.054688 22.429688 C 34.109375 23.597656 33.449219 25.546875 32.144531 26.191406 C 32.429688 26.519531 32.597656 26.816406 32.621094 27.199219 C 32.710938 28.777344 31.066406 29.378906 29.796875 29.628906 L 22.851562 31.003906 C 20.097656 31.546875 18.414062 30.28125 18.164062 29.011719 L 16.875 22.488281 C 16.195312 19.042969 19.488281 15.359375 19.003906 12.921875 L 18.101562 10.015625 C 18.070312 9.855469 17.976562 9.378906 18.113281 9.242188 C 18.285156 8.988281 18.847656 8.488281 19.746094 8.3125 C 20.332031 8.195312 20.773438 8.21875 21.304688 8.390625 C 23.050781 8.871094 23.652344 10.789062 23.964844 12.382812 C 24.113281 13.125 23.609375 15.59375 23.660156 16.410156 C 24.792969 15.742188 27.5625 14.699219 29.851562 14.578125 C 32.523438 14.4375 33.609375 16.039062 32.652344 18.433594 Z M 10.375 20.246094 L 12.601562 19.808594 C 13.023438 19.722656 13.480469 19.796875 13.859375 20.054688 C 14.242188 20.308594 14.484375 20.703125 14.570312 21.125 L 16.675781 31.785156 C 16.757812 32.207031 16.683594 32.664062 16.425781 33.042969 C 16.171875 33.425781 15.78125 33.667969 15.355469 33.753906 L 13.128906 34.191406 C 12.707031 34.277344 12.25 34.199219 11.871094 33.945312 C 11.488281 33.691406 11.246094 33.296875 11.160156 32.875 L 9.054688 22.214844 C 8.972656 21.792969 9.046875 21.335938 9.304688 20.953125 C 9.558594 20.574219 9.949219 20.332031 10.375 20.246094 Z M 10.375 20.246094 " fill-opacity="1" fill-rule="nonzero"/></g></g></g><g mask="url(#e8b31601a1)"><g transform="matrix(1, 0, 0, 1, 64, 234)"><g clip-path="url(#ceb1db13b1)"><g clip-path="url(#e8da8bcdb8)"><path fill="#000000" d="M 17.917969 0.894531 C 6.203125 3.210938 -1.410156 14.578125 0.90625 26.296875 C 3.222656 38.015625 14.582031 45.628906 26.296875 43.3125 C 38.007812 41 45.621094 29.632812 43.304688 17.914062 C 40.992188 6.195312 29.628906 -1.421875 17.917969 0.894531 Z M 17.917969 0.894531 " fill-opacity="1" fill-rule="nonzero"/></g><path fill="#ffffff" d="M 32.464844 18.238281 C 34.097656 18.960938 34.25 21.136719 32.871094 22.234375 C 33.925781 23.402344 33.265625 25.351562 31.960938 25.996094 C 32.246094 26.324219 32.414062 26.621094 32.433594 27.003906 C 32.527344 28.582031 30.882812 29.183594 29.613281 29.433594 L 22.667969 30.808594 C 19.914062 31.351562 18.230469 30.089844 17.980469 28.816406 L 16.691406 22.292969 C 16.011719 18.847656 19.304688 15.164062 18.820312 12.726562 L 17.917969 9.820312 C 17.886719 9.660156 17.792969 9.183594 17.929688 9.046875 C 18.097656 8.792969 18.660156 8.296875 19.5625 8.117188 C 20.144531 8 20.589844 8.023438 21.121094 8.195312 C 22.867188 8.675781 23.46875 10.597656 23.78125 12.1875 C 23.929688 12.929688 23.425781 15.398438 23.476562 16.214844 C 24.609375 15.546875 27.378906 14.503906 29.667969 14.382812 C 32.335938 14.242188 33.425781 15.84375 32.464844 18.238281 Z M 10.191406 20.050781 L 12.417969 19.613281 C 12.839844 19.527344 13.296875 19.605469 13.675781 19.859375 C 14.058594 20.113281 14.300781 20.507812 14.382812 20.929688 L 16.488281 31.589844 C 16.574219 32.011719 16.5 32.46875 16.242188 32.851562 C 15.988281 33.230469 15.59375 33.472656 15.171875 33.558594 L 12.945312 33.996094 C 12.519531 34.082031 12.066406 34.007812 11.683594 33.75 C 11.304688 33.496094 11.0625 33.101562 10.976562 32.679688 L 8.871094 22.019531 C 8.789062 21.597656 8.863281 21.140625 9.117188 20.761719 C 9.375 20.378906 9.765625 20.136719 10.191406 20.050781 Z M 10.191406 20.050781 " fill-opacity="1" fill-rule="nonzero"/></g></g></g><g mask="url(#5377e78caf)"><g transform="matrix(1, 0, 0, 1, 300, 77)"><g clip-path="url(#4381534cad)"><g clip-path="url(#6df89f8ae2)"><path fill="#000000" d="M 10.722656 1.300781 C 3.675781 2.691406 -0.902344 9.527344 0.488281 16.578125 C 1.882812 23.625 8.714844 28.207031 15.761719 26.8125 C 22.804688 25.417969 27.382812 18.582031 25.992188 11.535156 C 24.597656 4.488281 17.765625 -0.09375 10.722656 1.300781 Z M 10.722656 1.300781 " fill-opacity="1" fill-rule="nonzero"/></g><path fill="#ffffff" d="M 19.472656 11.730469 C 20.453125 12.164062 20.542969 13.472656 19.714844 14.132812 C 20.351562 14.835938 19.953125 16.007812 19.167969 16.394531 C 19.339844 16.59375 19.441406 16.773438 19.453125 17 C 19.507812 17.953125 18.519531 18.3125 17.753906 18.464844 L 13.578125 19.289062 C 11.921875 19.617188 10.910156 18.855469 10.757812 18.089844 L 9.984375 14.167969 C 9.574219 12.097656 11.554688 9.882812 11.265625 8.414062 L 10.722656 6.667969 C 10.703125 6.570312 10.644531 6.285156 10.726562 6.203125 C 10.832031 6.046875 11.167969 5.75 11.710938 5.640625 C 12.0625 5.574219 12.328125 5.585938 12.648438 5.6875 C 13.699219 5.976562 14.058594 7.132812 14.25 8.089844 C 14.335938 8.535156 14.035156 10.019531 14.0625 10.511719 C 14.746094 10.113281 16.410156 9.484375 17.789062 9.410156 C 19.394531 9.324219 20.046875 10.289062 19.472656 11.730469 Z M 6.074219 12.820312 L 7.414062 12.554688 C 7.667969 12.503906 7.941406 12.550781 8.171875 12.703125 C 8.398438 12.859375 8.546875 13.09375 8.597656 13.347656 L 9.863281 19.757812 C 9.914062 20.015625 9.867188 20.289062 9.714844 20.519531 C 9.5625 20.746094 9.324219 20.894531 9.070312 20.945312 L 7.730469 21.207031 C 7.476562 21.257812 7.203125 21.214844 6.972656 21.058594 C 6.742188 20.90625 6.597656 20.671875 6.546875 20.414062 L 5.28125 14.003906 C 5.230469 13.75 5.277344 13.476562 5.429688 13.246094 C 5.582031 13.015625 5.820312 12.871094 6.074219 12.820312 Z M 6.074219 12.820312 " fill-opacity="1" fill-rule="nonzero"/></g></g></g><g mask="url(#2d55ab1e86)"><g transform="matrix(1, 0, 0, 1, 82, 76)"><g clip-path="url(#d29003e412)"><g clip-path="url(#d9534b76fd)"><path fill="#000000" d="M 10.695312 1.058594 C 3.652344 2.453125 -0.925781 9.289062 0.464844 16.335938 C 1.855469 23.382812 8.691406 27.964844 15.734375 26.570312 C 22.78125 25.179688 27.359375 18.34375 25.964844 11.292969 C 24.574219 4.246094 17.742188 -0.335938 10.695312 1.058594 Z M 10.695312 1.058594 " fill-opacity="1" fill-rule="nonzero"/></g><path fill="#ffffff" d="M 19.445312 11.488281 C 20.425781 11.925781 20.519531 13.230469 19.6875 13.890625 C 20.324219 14.59375 19.925781 15.765625 19.140625 16.15625 C 19.3125 16.351562 19.414062 16.53125 19.429688 16.761719 C 19.484375 17.710938 18.496094 18.070312 17.730469 18.222656 L 13.554688 19.046875 C 11.894531 19.375 10.882812 18.617188 10.734375 17.851562 L 9.957031 13.925781 C 9.546875 11.855469 11.527344 9.640625 11.238281 8.171875 L 10.695312 6.425781 C 10.675781 6.328125 10.621094 6.042969 10.703125 5.960938 C 10.804688 5.808594 11.144531 5.507812 11.683594 5.402344 C 12.035156 5.332031 12.304688 5.34375 12.621094 5.449219 C 13.671875 5.738281 14.035156 6.890625 14.222656 7.847656 C 14.3125 8.296875 14.007812 9.78125 14.039062 10.269531 C 14.722656 9.871094 16.386719 9.242188 17.761719 9.171875 C 19.367188 9.085938 20.023438 10.050781 19.445312 11.488281 Z M 6.046875 12.578125 L 7.386719 12.316406 C 7.640625 12.265625 7.917969 12.308594 8.144531 12.464844 C 8.375 12.617188 8.519531 12.851562 8.570312 13.109375 L 9.835938 19.519531 C 9.886719 19.773438 9.84375 20.046875 9.6875 20.277344 C 9.535156 20.507812 9.300781 20.652344 9.042969 20.703125 L 7.707031 20.96875 C 7.449219 21.019531 7.175781 20.972656 6.949219 20.820312 C 6.71875 20.664062 6.574219 20.429688 6.523438 20.175781 L 5.253906 13.765625 C 5.207031 13.507812 5.25 13.234375 5.402344 13.003906 C 5.558594 12.777344 5.792969 12.628906 6.046875 12.578125 Z M 6.046875 12.578125 " fill-opacity="1" fill-rule="nonzero"/></g></g></g><g mask="url(#bb51ead340)"><g transform="matrix(1, 0, 0, 1, 209, 291)"><g clip-path="url(#5ebf049261)"><g clip-path="url(#828b766009)"><path fill="#000000" d="M 8.457031 9.519531 C -2.40625 20.835938 -2.042969 38.804688 9.269531 49.671875 C 20.582031 60.539062 38.542969 60.175781 49.40625 48.859375 C 60.265625 37.542969 59.902344 19.574219 48.589844 8.707031 C 37.277344 -2.160156 19.320312 -1.796875 8.457031 9.519531 Z M 8.457031 9.519531 " fill-opacity="1" fill-rule="nonzero"/></g><path fill="#ffffff" d="M 37.167969 17.222656 C 39.46875 16.773438 41.269531 18.996094 40.613281 21.21875 C 42.628906 21.679688 43.382812 24.277344 42.464844 25.953125 C 43.019531 26.09375 43.425781 26.285156 43.734375 26.679688 C 45.023438 28.3125 43.707031 30.195312 42.527344 31.425781 L 36.085938 38.132812 C 33.53125 40.792969 30.769531 40.703125 29.539062 39.519531 L 23.246094 33.472656 C 19.917969 30.277344 20.691406 23.832031 18.335938 21.570312 L 15.175781 19.125 C 15.019531 18.976562 14.5625 18.535156 14.605469 18.28125 C 14.597656 17.882812 14.828125 16.921875 15.664062 16.050781 C 16.207031 15.488281 16.699219 15.179688 17.398438 14.960938 C 19.640625 14.164062 21.730469 15.777344 23.265625 17.253906 C 23.984375 17.941406 25.300781 20.976562 25.96875 21.820312 C 26.691406 20.246094 28.882812 17.039062 31.253906 15.183594 C 34.023438 13.019531 36.398438 13.925781 37.167969 17.222656 Z M 14.5625 35.957031 L 16.625 33.808594 C 17.019531 33.398438 17.566406 33.136719 18.167969 33.125 C 18.769531 33.113281 19.328125 33.351562 19.738281 33.746094 L 30.023438 43.628906 C 30.433594 44.023438 30.695312 44.566406 30.707031 45.167969 C 30.722656 45.773438 30.480469 46.328125 30.089844 46.738281 L 28.023438 48.890625 C 27.628906 49.300781 27.085938 49.5625 26.480469 49.574219 C 25.878906 49.585938 25.324219 49.347656 24.914062 48.953125 L 14.625 39.070312 C 14.214844 38.675781 13.953125 38.128906 13.941406 37.527344 C 13.929688 36.925781 14.167969 36.367188 14.5625 35.957031 Z M 14.5625 35.957031 " fill-opacity="1" fill-rule="nonzero"/></g></g></g><g mask="url(#0f8734b30a)"><g transform="matrix(1, 0, 0, 1, 199, 201)"><g clip-path="url(#7d7047e335)"><g clip-path="url(#83c9450721)"><path fill="#000000" d="M 29.558594 1.851562 C 10.164062 5.6875 -2.441406 24.507812 1.390625 43.910156 C 5.226562 63.3125 24.039062 75.921875 43.433594 72.089844 C 62.828125 68.253906 75.429688 49.433594 71.597656 30.03125 C 67.765625 10.628906 48.953125 -1.984375 29.558594 1.851562 Z M 29.558594 1.851562 " fill-opacity="1" fill-rule="nonzero"/></g><path fill="#ffffff" d="M 53.648438 30.570312 C 56.347656 31.769531 56.601562 35.367188 54.316406 37.1875 C 56.066406 39.121094 54.972656 42.347656 52.8125 43.414062 C 53.285156 43.960938 53.5625 44.453125 53.597656 45.082031 C 53.75 47.699219 51.027344 48.695312 48.921875 49.109375 L 37.425781 51.382812 C 32.863281 52.285156 30.078125 50.191406 29.660156 48.082031 L 27.527344 37.285156 C 26.402344 31.578125 31.855469 25.480469 31.054688 21.445312 L 29.558594 16.632812 C 29.507812 16.367188 29.351562 15.578125 29.578125 15.347656 C 29.859375 14.929688 30.792969 14.105469 32.285156 13.8125 C 33.25 13.621094 33.984375 13.65625 34.863281 13.941406 C 37.753906 14.738281 38.746094 17.914062 39.269531 20.550781 C 39.511719 21.777344 38.675781 25.867188 38.761719 27.21875 C 40.640625 26.117188 45.222656 24.390625 49.015625 24.1875 C 53.4375 23.953125 55.238281 26.605469 53.648438 30.570312 Z M 16.765625 33.574219 L 20.449219 32.84375 C 21.152344 32.707031 21.90625 32.832031 22.539062 33.253906 C 23.167969 33.675781 23.570312 34.328125 23.710938 35.027344 L 27.195312 52.675781 C 27.332031 53.378906 27.210938 54.132812 26.785156 54.765625 C 26.363281 55.394531 25.714844 55.796875 25.011719 55.9375 L 21.328125 56.664062 C 20.625 56.804688 19.871094 56.679688 19.238281 56.253906 C 18.609375 55.832031 18.207031 55.183594 18.066406 54.480469 L 14.582031 36.832031 C 14.445312 36.132812 14.566406 35.375 14.992188 34.746094 C 15.414062 34.113281 16.0625 33.710938 16.765625 33.574219 Z M 16.765625 33.574219 " fill-opacity="1" fill-rule="nonzero"/></g></g></g></svg>