<svg xmlns="http://www.w3.org/2000/svg" xmlns:xlink="http://www.w3.org/1999/xlink" width="500" zoomAndPan="magnify" viewBox="0 0 375 374.999991" height="500" preserveAspectRatio="xMidYMid meet" version="1.0"><defs><clipPath id="f0b933dd3a"><path d="M 35.679688 35.679688 L 337.179688 35.679688 L 337.179688 337.179688 L 35.679688 337.179688 Z M 35.679688 35.679688 " clip-rule="nonzero"/></clipPath><clipPath id="34dd00b831"><path d="M 74 61 L 337.179688 61 L 337.179688 337.179688 L 74 337.179688 Z M 74 61 " clip-rule="nonzero"/></clipPath></defs><g clip-path="url(#f0b933dd3a)"><path fill="#f73140" d="M 337.179688 186.429688 C 337.179688 188.894531 337.117188 191.359375 336.996094 193.824219 C 336.875 196.289062 336.695312 198.75 336.453125 201.203125 C 336.210938 203.660156 335.910156 206.105469 335.546875 208.546875 C 335.183594 210.988281 334.761719 213.417969 334.28125 215.839844 C 333.800781 218.257812 333.257812 220.664062 332.660156 223.058594 C 332.0625 225.449219 331.402344 227.828125 330.6875 230.1875 C 329.96875 232.550781 329.195312 234.890625 328.367188 237.214844 C 327.535156 239.535156 326.648438 241.839844 325.703125 244.117188 C 324.757812 246.398438 323.757812 248.652344 322.703125 250.882812 C 321.648438 253.113281 320.539062 255.316406 319.378906 257.492188 C 318.214844 259.667969 317 261.8125 315.730469 263.929688 C 314.460938 266.046875 313.144531 268.128906 311.773438 270.179688 C 310.402344 272.230469 308.980469 274.25 307.511719 276.230469 C 306.042969 278.210938 304.523438 280.15625 302.960938 282.0625 C 301.394531 283.96875 299.785156 285.835938 298.125 287.664062 C 296.46875 289.492188 294.769531 291.28125 293.023438 293.023438 C 291.28125 294.769531 289.492188 296.46875 287.664062 298.125 C 285.835938 299.78125 283.96875 301.394531 282.0625 302.960938 C 280.15625 304.523438 278.210938 306.042969 276.230469 307.511719 C 274.25 308.980469 272.230469 310.402344 270.179688 311.773438 C 268.128906 313.144531 266.046875 314.460938 263.929688 315.730469 C 261.8125 317 259.667969 318.214844 257.492188 319.378906 C 255.316406 320.539062 253.113281 321.648438 250.882812 322.703125 C 248.652344 323.757812 246.398438 324.757812 244.117188 325.703125 C 241.839844 326.648438 239.539062 327.535156 237.214844 328.367188 C 234.890625 329.195312 232.550781 329.96875 230.1875 330.6875 C 227.828125 331.402344 225.449219 332.0625 223.058594 332.660156 C 220.664062 333.257812 218.257812 333.800781 215.839844 334.28125 C 213.417969 334.761719 210.988281 335.183594 208.546875 335.546875 C 206.105469 335.910156 203.660156 336.210938 201.203125 336.453125 C 198.75 336.695312 196.289062 336.875 193.824219 336.996094 C 191.359375 337.117188 188.894531 337.179688 186.429688 337.179688 C 183.960938 337.179688 181.496094 337.117188 179.03125 336.996094 C 176.566406 336.875 174.105469 336.695312 171.652344 336.453125 C 169.195312 336.210938 166.75 335.910156 164.308594 335.546875 C 161.867188 335.183594 159.4375 334.761719 157.019531 334.28125 C 154.597656 333.800781 152.191406 333.257812 149.800781 332.660156 C 147.40625 332.0625 145.027344 331.402344 142.667969 330.6875 C 140.308594 329.96875 137.964844 329.195312 135.640625 328.367188 C 133.320312 327.535156 131.019531 326.648438 128.738281 325.703125 C 126.460938 324.757812 124.203125 323.757812 121.972656 322.703125 C 119.742188 321.648438 117.539062 320.539062 115.363281 319.378906 C 113.1875 318.214844 111.042969 317 108.925781 315.730469 C 106.8125 314.460938 104.726562 313.144531 102.675781 311.773438 C 100.625 310.402344 98.609375 308.980469 96.625 307.511719 C 94.644531 306.042969 92.699219 304.523438 90.792969 302.960938 C 88.886719 301.394531 87.019531 299.78125 85.191406 298.125 C 83.363281 296.46875 81.578125 294.769531 79.832031 293.023438 C 78.085938 291.28125 76.386719 289.492188 74.730469 287.664062 C 73.074219 285.835938 71.460938 283.96875 69.898438 282.0625 C 68.332031 280.15625 66.8125 278.210938 65.34375 276.230469 C 63.875 274.25 62.453125 272.230469 61.085938 270.179688 C 59.714844 268.128906 58.394531 266.046875 57.125 263.929688 C 55.855469 261.8125 54.640625 259.667969 53.476562 257.492188 C 52.316406 255.316406 51.207031 253.113281 50.152344 250.882812 C 49.097656 248.652344 48.097656 246.398438 47.152344 244.117188 C 46.210938 241.839844 45.320312 239.535156 44.492188 237.214844 C 43.660156 234.890625 42.886719 232.550781 42.167969 230.1875 C 41.453125 227.828125 40.796875 225.449219 40.195312 223.058594 C 39.597656 220.664062 39.054688 218.257812 38.574219 215.839844 C 38.09375 213.417969 37.671875 210.988281 37.308594 208.546875 C 36.949219 206.105469 36.644531 203.660156 36.402344 201.203125 C 36.164062 198.75 35.980469 196.289062 35.859375 193.824219 C 35.738281 191.359375 35.679688 188.894531 35.679688 186.429688 C 35.679688 183.960938 35.738281 181.496094 35.859375 179.03125 C 35.980469 176.566406 36.164062 174.105469 36.402344 171.652344 C 36.644531 169.195312 36.949219 166.75 37.308594 164.308594 C 37.671875 161.867188 38.09375 159.4375 38.574219 157.019531 C 39.054688 154.597656 39.597656 152.191406 40.195312 149.796875 C 40.796875 147.40625 41.453125 145.027344 42.167969 142.667969 C 42.886719 140.308594 43.660156 137.964844 44.492188 135.640625 C 45.320312 133.320312 46.210938 131.019531 47.152344 128.738281 C 48.097656 126.460938 49.097656 124.203125 50.152344 121.972656 C 51.207031 119.742188 52.316406 117.539062 53.476562 115.363281 C 54.640625 113.1875 55.855469 111.042969 57.125 108.925781 C 58.394531 106.8125 59.714844 104.726562 61.085938 102.675781 C 62.453125 100.625 63.875 98.609375 65.34375 96.625 C 66.8125 94.644531 68.332031 92.699219 69.898438 90.792969 C 71.460938 88.886719 73.074219 87.019531 74.730469 85.191406 C 76.386719 83.363281 78.085938 81.578125 79.832031 79.832031 C 81.578125 78.085938 83.363281 76.386719 85.191406 74.730469 C 87.019531 73.074219 88.886719 71.460938 90.792969 69.898438 C 92.699219 68.332031 94.644531 66.8125 96.625 65.34375 C 98.609375 63.875 100.625 62.453125 102.675781 61.085938 C 104.726562 59.714844 106.8125 58.394531 108.925781 57.125 C 111.042969 55.855469 113.1875 54.640625 115.363281 53.476562 C 117.539062 52.316406 119.742188 51.207031 121.972656 50.152344 C 124.203125 49.097656 126.460938 48.097656 128.738281 47.152344 C 131.019531 46.210938 133.320312 45.320312 135.640625 44.492188 C 137.964844 43.660156 140.308594 42.886719 142.667969 42.167969 C 145.027344 41.453125 147.40625 40.796875 149.800781 40.195312 C 152.191406 39.597656 154.597656 39.054688 157.019531 38.574219 C 159.4375 38.09375 161.867188 37.671875 164.308594 37.308594 C 166.75 36.949219 169.195312 36.644531 171.652344 36.402344 C 174.105469 36.164062 176.566406 35.980469 179.03125 35.859375 C 181.496094 35.738281 183.960938 35.679688 186.429688 35.679688 C 188.894531 35.679688 191.359375 35.738281 193.824219 35.859375 C 196.289062 35.980469 198.75 36.164062 201.203125 36.402344 C 203.660156 36.644531 206.105469 36.949219 208.546875 37.308594 C 210.988281 37.671875 213.417969 38.09375 215.839844 38.574219 C 218.257812 39.054688 220.664062 39.597656 223.058594 40.195312 C 225.449219 40.796875 227.828125 41.453125 230.1875 42.167969 C 232.550781 42.886719 234.890625 43.660156 237.214844 44.492188 C 239.539062 45.320312 241.839844 46.210938 244.117188 47.152344 C 246.398438 48.097656 248.652344 49.097656 250.882812 50.152344 C 253.113281 51.207031 255.316406 52.316406 257.492188 53.476562 C 259.667969 54.640625 261.8125 55.855469 263.929688 57.125 C 266.046875 58.394531 268.128906 59.714844 270.179688 61.085938 C 272.230469 62.453125 274.25 63.875 276.230469 65.34375 C 278.210938 66.8125 280.15625 68.332031 282.0625 69.898438 C 283.96875 71.460938 285.835938 73.074219 287.664062 74.730469 C 289.492188 76.386719 291.28125 78.085938 293.023438 79.832031 C 294.769531 81.578125 296.46875 83.363281 298.125 85.191406 C 299.785156 87.019531 301.394531 88.886719 302.960938 90.792969 C 304.523438 92.699219 306.042969 94.644531 307.511719 96.625 C 308.980469 98.609375 310.402344 100.625 311.773438 102.675781 C 313.144531 104.726562 314.460938 106.8125 315.730469 108.925781 C 317 111.042969 318.214844 113.1875 319.378906 115.363281 C 320.539062 117.539062 321.648438 119.742188 322.703125 121.972656 C 323.757812 124.203125 324.757812 126.460938 325.703125 128.738281 C 326.648438 131.019531 327.535156 133.320312 328.367188 135.640625 C 329.195312 137.964844 329.96875 140.308594 330.6875 142.667969 C 331.402344 145.027344 332.0625 147.40625 332.660156 149.796875 C 333.257812 152.191406 333.800781 154.597656 334.28125 157.019531 C 334.761719 159.4375 335.183594 161.867188 335.546875 164.308594 C 335.910156 166.75 336.210938 169.195312 336.453125 171.652344 C 336.695312 174.105469 336.875 176.566406 336.996094 179.03125 C 337.117188 181.496094 337.179688 183.960938 337.179688 186.429688 Z M 337.179688 186.429688 " fill-opacity="1" fill-rule="nonzero"/></g><g clip-path="url(#34dd00b831)"><path fill="#e5253c" d="M 337.179688 186.429688 C 337.179688 269.6875 269.683594 337.179688 186.429688 337.179688 C 142.269531 337.179688 102.546875 318.195312 74.976562 287.9375 C 99.085938 304.304688 128.195312 313.863281 159.523438 313.863281 C 242.78125 313.863281 310.273438 246.371094 310.273438 163.113281 C 310.273438 124.015625 295.390625 88.390625 270.980469 61.605469 C 310.929688 88.714844 337.179688 134.503906 337.179688 186.429688 Z M 337.179688 186.429688 " fill-opacity="1" fill-rule="nonzero"/></g><path fill="#ffffff" d="M 145.6875 257.210938 C 143.511719 257.199219 141.414062 256.789062 139.394531 255.972656 C 137.378906 255.160156 135.582031 254 134.007812 252.496094 C 133.191406 251.714844 132.460938 250.863281 131.816406 249.933594 C 131.175781 249.003906 130.632812 248.015625 130.191406 246.976562 C 129.75 245.9375 129.417969 244.863281 129.195312 243.753906 C 128.972656 242.644531 128.867188 241.527344 128.871094 240.394531 L 128.871094 132.460938 C 128.867188 131.332031 128.972656 130.210938 129.195312 129.105469 C 129.417969 127.996094 129.75 126.921875 130.191406 125.882812 C 130.632812 124.839844 131.175781 123.855469 131.816406 122.925781 C 132.460938 121.996094 133.191406 121.140625 134.007812 120.363281 C 135.582031 118.859375 137.378906 117.699219 139.394531 116.886719 C 141.414062 116.070312 143.511719 115.660156 145.6875 115.648438 C 148.683594 115.65625 151.476562 116.410156 154.066406 117.914062 L 247.542969 171.882812 C 248.820312 172.621094 249.980469 173.507812 251.023438 174.550781 C 252.066406 175.59375 252.957031 176.753906 253.691406 178.03125 C 254.429688 179.304688 254.988281 180.65625 255.371094 182.082031 C 255.753906 183.503906 255.941406 184.953125 255.941406 186.429688 C 255.941406 187.902344 255.753906 189.351562 255.371094 190.773438 C 254.988281 192.199219 254.429688 193.550781 253.691406 194.828125 C 252.957031 196.101562 252.066406 197.261719 251.023438 198.304688 C 249.980469 199.347656 248.820312 200.238281 247.542969 200.972656 L 154.066406 254.941406 C 151.476562 256.445312 148.683594 257.199219 145.6875 257.210938 Z M 145.6875 257.210938 " fill-opacity="1" fill-rule="nonzero"/></svg>