<svg xmlns="http://www.w3.org/2000/svg" xmlns:xlink="http://www.w3.org/1999/xlink" width="500" zoomAndPan="magnify" viewBox="0 0 375 374.999991" height="500" preserveAspectRatio="xMidYMid meet" version="1.0"><defs><clipPath id="53c7a14c56"><path d="M 83 34 L 319.011719 34 L 319.011719 341 L 83 341 Z M 83 34 " clip-rule="nonzero"/></clipPath></defs><g clip-path="url(#53c7a14c56)"><path stroke-linecap="butt" transform="matrix(3.418653, 0, 0, 3.412584, 82.784442, 31.718143)" fill="none" stroke-linejoin="round" d="M 17.66867 54.201003 C 15.989007 54.122022 10.988865 53.630962 7.038799 49.54109 C 6.939391 49.441504 5.329427 47.661557 4.349052 45.711055 C 0.459545 37.981162 3.229276 28.391195 10.53867 24.281864 L 44.738678 5.041263 C 52.049214 0.931932 61.128538 3.851961 65.029471 11.581854 C 66.218947 13.951302 66.789119 16.501606 66.789119 19.011846 C 66.789119 24.68135 63.908553 30.161985 58.838711 33.011046 C 56.409483 34.381205 51.548743 37.191346 51.548743 37.191346 C 56.99908 37.100918 62.289449 40.161741 65.019188 45.581709 C 66.208664 47.951156 66.778835 50.50146 66.778835 53.011701 C 66.778835 58.681205 63.899412 64.16184 58.82957 67.012045 L 24.629562 86.251501 C 17.319026 90.361977 8.238559 87.441948 4.338769 79.712055 C 0.449262 71.991319 3.218993 62.39105 10.529529 58.281718 C 12.909624 56.921862 15.288576 55.562005 17.66867 54.201003 Z M 17.66867 54.201003 " stroke="#ff0000" stroke-width="4.69" stroke-opacity="1" stroke-miterlimit="4"/></g><path fill="#ff0000" d="M 240.621094 185.523438 L 173.207031 224.355469 L 173.207031 146.652344 Z M 240.621094 185.523438 " fill-opacity="1" fill-rule="nonzero"/></svg>