<svg xmlns="http://www.w3.org/2000/svg" xmlns:xlink="http://www.w3.org/1999/xlink" width="500" zoomAndPan="magnify" viewBox="0 0 375 374.999991" height="500" preserveAspectRatio="xMidYMid meet" version="1.0"><defs><clipPath id="a325e4609a"><path d="M 53.023438 110.984375 L 337.273438 110.984375 L 337.273438 231.734375 L 53.023438 231.734375 Z M 53.023438 110.984375 " clip-rule="nonzero"/></clipPath></defs><g clip-path="url(#a325e4609a)"><path fill="#ff0000" d="M 71.414062 110.992188 L 318.882812 110.992188 C 319.476562 110.992188 320.070312 111.019531 320.664062 111.078125 C 321.253906 111.136719 321.84375 111.222656 322.425781 111.339844 C 323.011719 111.457031 323.585938 111.601562 324.15625 111.773438 C 324.726562 111.945312 325.285156 112.144531 325.835938 112.375 C 326.386719 112.601562 326.925781 112.855469 327.449219 113.136719 C 327.972656 113.417969 328.484375 113.722656 328.980469 114.050781 C 329.472656 114.382812 329.953125 114.738281 330.410156 115.113281 C 330.871094 115.492188 331.3125 115.890625 331.734375 116.3125 C 332.15625 116.734375 332.554688 117.171875 332.929688 117.632812 C 333.308594 118.09375 333.664062 118.570312 333.992188 119.066406 C 334.324219 119.558594 334.628906 120.070312 334.910156 120.59375 C 335.191406 121.117188 335.445312 121.65625 335.671875 122.207031 C 335.902344 122.753906 336.101562 123.316406 336.273438 123.882812 C 336.445312 124.453125 336.589844 125.03125 336.707031 125.613281 C 336.824219 126.199219 336.910156 126.785156 336.96875 127.378906 C 337.027344 127.96875 337.058594 128.5625 337.058594 129.15625 L 337.058594 213.574219 C 337.058594 214.167969 337.027344 214.761719 336.96875 215.351562 C 336.910156 215.945312 336.824219 216.53125 336.707031 217.117188 C 336.589844 217.699219 336.445312 218.277344 336.273438 218.847656 C 336.101562 219.414062 335.902344 219.976562 335.671875 220.523438 C 335.445312 221.074219 335.191406 221.613281 334.910156 222.136719 C 334.628906 222.660156 334.324219 223.171875 333.992188 223.664062 C 333.664062 224.160156 333.308594 224.636719 332.929688 225.097656 C 332.554688 225.558594 332.15625 225.996094 331.734375 226.417969 C 331.3125 226.839844 330.871094 227.238281 330.410156 227.617188 C 329.953125 227.992188 329.472656 228.347656 328.980469 228.675781 C 328.484375 229.007812 327.972656 229.3125 327.449219 229.59375 C 326.925781 229.875 326.386719 230.128906 325.835938 230.355469 C 325.285156 230.585938 324.726562 230.785156 324.15625 230.957031 C 323.585938 231.128906 323.011719 231.273438 322.425781 231.390625 C 321.84375 231.507812 321.253906 231.59375 320.664062 231.652344 C 320.070312 231.710938 319.476562 231.738281 318.882812 231.738281 L 71.414062 231.738281 C 70.816406 231.738281 70.222656 231.710938 69.632812 231.652344 C 69.039062 231.59375 68.453125 231.507812 67.867188 231.390625 C 67.285156 231.273438 66.707031 231.128906 66.136719 230.957031 C 65.566406 230.785156 65.007812 230.585938 64.457031 230.355469 C 63.90625 230.128906 63.371094 229.875 62.84375 229.59375 C 62.320312 229.3125 61.808594 229.007812 61.316406 228.675781 C 60.820312 228.347656 60.34375 227.992188 59.882812 227.617188 C 59.421875 227.238281 58.980469 226.839844 58.5625 226.417969 C 58.140625 225.996094 57.742188 225.558594 57.363281 225.097656 C 56.984375 224.636719 56.632812 224.160156 56.300781 223.664062 C 55.96875 223.171875 55.664062 222.660156 55.382812 222.136719 C 55.101562 221.613281 54.847656 221.074219 54.621094 220.523438 C 54.394531 219.976562 54.191406 219.414062 54.019531 218.847656 C 53.847656 218.277344 53.703125 217.699219 53.585938 217.117188 C 53.472656 216.53125 53.382812 215.945312 53.324219 215.351562 C 53.265625 214.761719 53.238281 214.167969 53.238281 213.574219 L 53.238281 129.15625 C 53.238281 128.5625 53.265625 127.96875 53.324219 127.378906 C 53.382812 126.785156 53.472656 126.199219 53.585938 125.613281 C 53.703125 125.03125 53.847656 124.453125 54.019531 123.882812 C 54.191406 123.316406 54.394531 122.753906 54.621094 122.207031 C 54.847656 121.65625 55.101562 121.117188 55.382812 120.59375 C 55.664062 120.070312 55.96875 119.558594 56.300781 119.066406 C 56.632812 118.570312 56.984375 118.09375 57.363281 117.632812 C 57.742188 117.171875 58.140625 116.734375 58.5625 116.3125 C 58.980469 115.890625 59.421875 115.492188 59.882812 115.113281 C 60.34375 114.738281 60.820312 114.382812 61.316406 114.050781 C 61.808594 113.722656 62.320312 113.417969 62.84375 113.136719 C 63.371094 112.855469 63.90625 112.601562 64.457031 112.375 C 65.007812 112.144531 65.566406 111.945312 66.136719 111.773438 C 66.707031 111.601562 67.285156 111.457031 67.867188 111.339844 C 68.453125 111.222656 69.039062 111.136719 69.632812 111.078125 C 70.222656 111.019531 70.816406 110.992188 71.414062 110.992188 Z M 71.414062 110.992188 " fill-opacity="1" fill-rule="nonzero"/></g><path fill="#ffffff" d="M 171.335938 143.699219 L 162.984375 143.699219 L 162.984375 199.03125 L 196.421875 199.03125 L 196.421875 191.84375 L 171.335938 191.84375 Z M 171.335938 143.699219 " fill-opacity="1" fill-rule="nonzero"/><path fill="#ffffff" d="M 205.933594 143.699219 L 214.285156 143.699219 L 214.285156 199.03125 L 205.933594 199.03125 Z M 205.933594 143.699219 " fill-opacity="1" fill-rule="nonzero"/><path fill="#ffffff" d="M 247.316406 188.765625 L 246.695312 188.765625 L 231.289062 143.699219 L 222.261719 143.699219 L 242.179688 199.03125 L 251.828125 199.03125 L 271.75 143.699219 L 262.722656 143.699219 Z M 247.316406 188.765625 " fill-opacity="1" fill-rule="nonzero"/><path fill="#ffffff" d="M 288.074219 191.84375 L 288.074219 174.90625 L 312.617188 174.90625 L 312.617188 167.746094 L 288.074219 167.746094 L 288.074219 150.886719 L 314.429688 150.886719 L 314.429688 143.699219 L 279.722656 143.699219 L 279.722656 199.03125 L 314.75 199.03125 L 314.75 191.84375 Z M 288.074219 191.84375 " fill-opacity="1" fill-rule="nonzero"/><path fill="#ffffff" d="M 122.792969 151.804688 C 123.433594 152.445312 124.039062 153.117188 124.617188 153.816406 C 125.191406 154.515625 125.730469 155.242188 126.234375 155.996094 C 126.738281 156.75 127.203125 157.527344 127.628906 158.324219 C 128.058594 159.125 128.445312 159.941406 128.792969 160.78125 C 129.136719 161.617188 129.441406 162.46875 129.707031 163.335938 C 129.96875 164.203125 130.191406 165.082031 130.367188 165.96875 C 130.542969 166.859375 130.675781 167.753906 130.765625 168.65625 C 130.855469 169.558594 130.898438 170.460938 130.898438 171.367188 C 130.898438 172.273438 130.855469 173.175781 130.765625 174.078125 C 130.675781 174.980469 130.542969 175.875 130.367188 176.765625 C 130.191406 177.652344 129.96875 178.53125 129.707031 179.398438 C 129.441406 180.265625 129.136719 181.117188 128.792969 181.953125 C 128.445312 182.789062 128.058594 183.609375 127.628906 184.40625 C 127.203125 185.207031 126.738281 185.984375 126.234375 186.738281 C 125.730469 187.488281 125.191406 188.21875 124.617188 188.917969 C 124.039062 189.617188 123.433594 190.289062 122.792969 190.929688 C 122.152344 191.570312 121.480469 192.175781 120.777344 192.753906 C 120.078125 193.328125 119.351562 193.867188 118.597656 194.371094 C 117.84375 194.871094 117.066406 195.339844 116.265625 195.765625 C 115.46875 196.191406 114.648438 196.578125 113.8125 196.925781 C 112.972656 197.273438 112.121094 197.578125 111.253906 197.839844 C 110.386719 198.101562 109.507812 198.324219 108.621094 198.5 C 107.730469 198.675781 106.835938 198.808594 105.933594 198.898438 C 105.03125 198.988281 104.125 199.03125 103.21875 199.03125 C 102.3125 199.03125 101.410156 198.988281 100.507812 198.898438 C 99.605469 198.808594 98.710938 198.675781 97.820312 198.5 C 96.929688 198.324219 96.054688 198.101562 95.1875 197.839844 C 94.316406 197.578125 93.464844 197.273438 92.628906 196.925781 C 91.789062 196.578125 90.972656 196.191406 90.171875 195.765625 C 89.375 195.339844 88.597656 194.871094 87.84375 194.371094 C 87.089844 193.867188 86.363281 193.328125 85.660156 192.753906 C 84.960938 192.175781 84.289062 191.570312 83.648438 190.929688 C 83.007812 190.289062 82.398438 189.617188 81.824219 188.917969 C 81.25 188.21875 80.710938 187.488281 80.207031 186.738281 C 79.703125 185.984375 79.238281 185.207031 78.808594 184.40625 C 78.382812 183.609375 77.996094 182.789062 77.648438 181.953125 C 77.300781 181.117188 76.996094 180.265625 76.734375 179.398438 C 76.472656 178.53125 76.25 177.652344 76.074219 176.765625 C 75.898438 175.875 75.765625 174.980469 75.675781 174.078125 C 75.585938 173.175781 75.542969 172.273438 75.542969 171.367188 C 75.542969 170.460938 75.585938 169.558594 75.675781 168.65625 C 75.765625 167.753906 75.898438 166.859375 76.074219 165.96875 C 76.25 165.082031 76.472656 164.203125 76.734375 163.335938 C 76.996094 162.46875 77.300781 161.617188 77.648438 160.78125 C 77.996094 159.941406 78.382812 159.125 78.808594 158.324219 C 79.238281 157.527344 79.703125 156.75 80.207031 155.996094 C 80.710938 155.242188 81.25 154.515625 81.824219 153.816406 C 82.398438 153.117188 83.007812 152.445312 83.648438 151.804688 C 84.289062 151.164062 84.960938 150.554688 85.660156 149.980469 C 86.363281 149.40625 87.089844 148.867188 87.84375 148.363281 C 88.597656 147.859375 89.375 147.394531 90.171875 146.96875 C 90.972656 146.542969 91.789062 146.15625 92.628906 145.808594 C 93.464844 145.460938 94.316406 145.15625 95.1875 144.894531 C 96.054688 144.628906 96.929688 144.410156 97.820312 144.234375 C 98.710938 144.058594 99.605469 143.925781 100.507812 143.835938 C 101.410156 143.746094 102.3125 143.703125 103.21875 143.703125 C 104.125 143.703125 105.03125 143.746094 105.933594 143.835938 C 106.835938 143.925781 107.730469 144.058594 108.621094 144.234375 C 109.507812 144.410156 110.386719 144.628906 111.253906 144.894531 C 112.121094 145.15625 112.972656 145.460938 113.8125 145.808594 C 114.648438 146.15625 115.46875 146.542969 116.265625 146.96875 C 117.066406 147.394531 117.84375 147.859375 118.597656 148.363281 C 119.351562 148.867188 120.078125 149.40625 120.777344 149.980469 C 121.480469 150.554688 122.152344 151.164062 122.792969 151.804688 Z M 122.792969 151.804688 " fill-opacity="1" fill-rule="nonzero"/></svg>