<svg xmlns="http://www.w3.org/2000/svg" xmlns:xlink="http://www.w3.org/1999/xlink" width="500" zoomAndPan="magnify" viewBox="0 0 375 374.999991" height="500" preserveAspectRatio="xMidYMid meet" version="1.0"><path fill="#9e9e9e" d="M 100.476562 28.863281 C 89.003906 28.863281 77.882812 29.914062 67.453125 31.074219 C 48.246094 33.214844 32.835938 48.601562 30.773438 67.867188 C 29.664062 78.25 28.679688 89.285156 28.679688 100.660156 C 28.679688 112.035156 29.664062 123.066406 30.773438 133.453125 C 32.835938 152.71875 48.246094 168.101562 67.453125 170.242188 C 77.882812 171.40625 89.003906 172.453125 100.476562 172.453125 C 105.84375 172.453125 111.136719 172.226562 116.316406 171.863281 C 121.691406 159.894531 129.089844 148.796875 138.832031 139.058594 C 148.589844 129.296875 159.710938 121.890625 171.707031 116.511719 C 172.054688 111.324219 172.273438 106.03125 172.273438 100.660156 C 172.273438 89.285156 171.289062 78.25 170.179688 67.867188 C 168.117188 48.601562 152.707031 33.214844 133.5 31.074219 C 123.070312 29.914062 111.949219 28.863281 100.476562 28.863281 Z M 100.476562 202.433594 C 102.679688 202.433594 104.867188 202.472656 107.039062 202.542969 C 105.4375 211.664062 104.691406 221.023438 104.691406 230.453125 C 104.691406 264.398438 114.371094 297.386719 138.832031 321.847656 C 143.808594 326.824219 149.136719 331.191406 154.757812 334.984375 C 148.777344 339.761719 141.464844 342.925781 133.5 343.8125 C 123.070312 344.976562 111.949219 346.027344 100.476562 346.027344 C 89.003906 346.027344 77.882812 344.976562 67.453125 343.8125 C 48.246094 341.671875 32.835938 326.289062 30.773438 307.023438 C 29.664062 296.636719 28.679688 285.605469 28.679688 274.230469 C 28.679688 262.855469 29.664062 251.820312 30.773438 241.4375 C 32.835938 222.171875 48.246094 206.785156 67.453125 204.644531 C 77.882812 203.484375 89.003906 202.433594 100.476562 202.433594 Z M 344.21875 133.453125 C 343.335938 141.699219 340.007812 149.230469 334.984375 155.320312 C 331.136719 149.578125 326.699219 144.132812 321.621094 139.058594 C 297.164062 114.597656 264.167969 104.917969 230.226562 104.917969 C 220.96875 104.917969 211.785156 105.636719 202.824219 107.179688 C 202.757812 105.019531 202.71875 102.847656 202.71875 100.660156 C 202.71875 89.285156 203.703125 78.25 204.8125 67.867188 C 206.875 48.601562 222.285156 33.214844 241.492188 31.074219 C 251.921875 29.914062 263.042969 28.863281 274.515625 28.863281 C 285.988281 28.863281 297.109375 29.914062 307.539062 31.074219 C 326.746094 33.214844 342.15625 48.601562 344.21875 67.867188 C 345.328125 78.25 346.3125 89.285156 346.3125 100.660156 C 346.3125 112.035156 345.328125 123.066406 344.21875 133.453125 Z M 183.214844 183.441406 C 173.707031 192.949219 167.457031 208.039062 167.457031 230.453125 C 167.457031 252.867188 173.707031 267.957031 183.214844 277.464844 C 192.71875 286.972656 207.8125 293.21875 230.226562 293.21875 C 252.636719 293.21875 267.730469 286.972656 277.238281 277.464844 C 286.742188 267.957031 292.996094 252.867188 292.996094 230.453125 C 292.996094 208.039062 286.742188 192.949219 277.238281 183.441406 C 267.730469 173.933594 252.636719 167.683594 230.226562 167.683594 C 207.8125 167.683594 192.71875 173.933594 183.214844 183.441406 Z M 159.003906 159.230469 C 176.660156 141.578125 201.511719 133.449219 230.226562 133.449219 C 258.941406 133.449219 283.792969 141.578125 301.445312 159.230469 C 319.101562 176.886719 327.230469 201.738281 327.230469 230.453125 C 327.230469 252.523438 322.429688 272.3125 312.191406 288.300781 L 340.792969 316.90625 C 347.480469 323.589844 347.480469 334.429688 340.792969 341.113281 C 334.109375 347.800781 323.269531 347.800781 316.582031 341.113281 L 287.960938 312.492188 C 271.988281 322.679688 252.242188 327.457031 230.226562 327.457031 C 201.511719 327.457031 176.660156 319.328125 159.003906 301.671875 C 141.347656 284.019531 133.21875 259.167969 133.21875 230.453125 C 133.21875 201.738281 141.347656 176.886719 159.003906 159.230469 Z M 159.003906 159.230469 " fill-opacity="1" fill-rule="evenodd"/></svg>