<svg xmlns="http://www.w3.org/2000/svg" xmlns:xlink="http://www.w3.org/1999/xlink" width="500" zoomAndPan="magnify" viewBox="0 0 375 374.999991" height="500" preserveAspectRatio="xMidYMid meet" version="1.0"><defs><clipPath id="108a169cb7"><path d="M 18.4375 205 L 356.6875 205 L 356.6875 315 L 18.4375 315 Z M 18.4375 205 " clip-rule="nonzero"/></clipPath><clipPath id="2b71cb62c1"><path d="M 122 37.5 L 251 37.5 L 251 250 L 122 250 Z M 122 37.5 " clip-rule="nonzero"/></clipPath></defs><g clip-path="url(#108a169cb7)"><path fill="#9e9e9e" d="M 217.371094 205.476562 L 212.886719 214.734375 L 218.195312 214.734375 C 218.285156 214.734375 218.375 214.734375 218.457031 214.742188 C 250.648438 216.636719 279.9375 221.421875 300.941406 228.222656 C 324.574219 235.875 336.558594 245.421875 336.558594 256.601562 C 336.558594 272.585938 311.464844 282.519531 290.421875 288.035156 C 262.480469 295.363281 225.417969 299.394531 186.050781 299.394531 C 146.675781 299.394531 109.601562 295.363281 81.664062 288.035156 C 60.613281 282.519531 35.527344 272.585938 35.527344 256.601562 C 35.527344 245.421875 47.511719 235.875 71.140625 228.230469 C 92.136719 221.429688 121.429688 216.636719 153.621094 214.746094 C 153.703125 214.738281 153.792969 214.738281 153.882812 214.738281 L 159.195312 214.738281 L 154.796875 205.648438 C 116.691406 208.175781 82.003906 215.152344 56.832031 225.363281 C 32.070312 235.410156 18.4375 247.65625 18.4375 259.855469 C 18.4375 286.542969 86.371094 315.117188 187.507812 315.117188 C 288.625 315.117188 356.558594 286.542969 356.558594 259.855469 C 356.558594 233.898438 295.667969 210.207031 217.371094 205.476562 Z M 217.371094 205.476562 " fill-opacity="1" fill-rule="nonzero"/></g><path fill="#9e9e9e" d="M 190.117188 261.816406 C 189.363281 263.386719 187.777344 264.375 186.042969 264.375 C 184.304688 264.375 182.722656 263.386719 181.964844 261.816406 L 163.574219 223.792969 L 154.019531 223.792969 C 122.628906 225.648438 94.191406 230.28125 73.925781 236.84375 C 55.554688 242.789062 44.582031 250.179688 44.582031 256.601562 C 44.582031 262.570312 54.929688 271.664062 83.964844 279.28125 C 111.171875 286.414062 147.429688 290.335938 186.046875 290.335938 C 224.660156 290.335938 260.910156 286.414062 288.117188 279.28125 C 317.152344 271.664062 327.5 262.570312 327.5 256.601562 C 327.5 250.179688 316.527344 242.789062 298.15625 236.84375 C 277.890625 230.28125 249.445312 225.648438 218.058594 223.792969 L 208.507812 223.792969 Z M 190.117188 261.816406 " fill-opacity="1" fill-rule="nonzero"/><g clip-path="url(#2b71cb62c1)"><path fill="#9e9e9e" d="M 161.632812 198.992188 L 186.042969 249.445312 L 201.6875 217.113281 L 210.441406 199.007812 C 210.503906 198.839844 210.585938 198.683594 210.675781 198.53125 L 210.707031 198.464844 L 243.539062 130.589844 C 253.191406 110.628906 252.058594 87.359375 240.519531 68.347656 C 229.226562 49.757812 209.628906 38.285156 188.09375 37.660156 C 187.410156 37.636719 186.730469 37.628906 186.042969 37.628906 C 185.355469 37.628906 184.675781 37.636719 183.996094 37.660156 C 162.457031 38.285156 142.855469 49.757812 131.574219 68.347656 C 120.027344 87.359375 118.902344 110.628906 128.554688 130.589844 Z M 186.042969 62.589844 C 209.203125 62.589844 227.988281 81.367188 227.988281 104.53125 C 227.988281 127.691406 209.203125 146.476562 186.042969 146.476562 C 162.878906 146.476562 144.101562 127.691406 144.101562 104.53125 C 144.101562 81.367188 162.878906 62.589844 186.042969 62.589844 Z M 186.042969 62.589844 " fill-opacity="1" fill-rule="nonzero"/></g></svg>