<svg xmlns="http://www.w3.org/2000/svg" xmlns:xlink="http://www.w3.org/1999/xlink" width="500" zoomAndPan="magnify" viewBox="0 0 375 374.999991" height="500" preserveAspectRatio="xMidYMid meet" version="1.0"><defs><clipPath id="078c7fda92"><path d="M 34 9.078125 L 337 9.078125 L 337 352 L 34 352 Z M 34 9.078125 " clip-rule="nonzero"/></clipPath><clipPath id="4961f31f69"><path d="M 50 23 L 337 23 L 337 352 L 50 352 Z M 50 23 " clip-rule="nonzero"/></clipPath><clipPath id="013fa0603e"><path d="M 192.996094 9.289062 L 251.707031 9.074219 C 250.644531 49.617188 330.191406 125.8125 336.574219 134.511719 C 303.820312 138.546875 273.191406 141.09375 251.707031 123.261719 L 251.492188 245.519531 C 251.070312 278.632812 236.820312 303.25 219.585938 319.59375 C 218.101562 321.078125 216.609375 322.5625 214.910156 323.839844 C 192.789062 342.515625 171.09375 351.21875 141.316406 351.007812 C 111.960938 350.582031 89.839844 339.542969 71.121094 323.414062 C 57.082031 311.316406 45.808594 295.609375 39.425781 273.960938 C 25.601562 226.417969 43.46875 180.144531 83.03125 153.195312 C 83.671875 152.554688 84.519531 151.917969 85.371094 151.492188 C 103.453125 138.972656 131.53125 131.542969 157.691406 135.789062 L 157.691406 195.640625 C 139.613281 190.972656 123.445312 195.003906 111.535156 204.980469 C 111.324219 204.980469 111.324219 205.191406 111.109375 205.40625 C 99.625 215.167969 93.027344 229.601562 93.882812 245.945312 C 96.007812 275.234375 120.253906 293.488281 146.632812 292.214844 C 146.632812 292.214844 146.84375 292.214844 146.84375 292.214844 C 172.367188 289.664062 193.425781 268.867188 192.789062 240.847656 Z M 192.996094 9.289062 " clip-rule="evenodd"/></clipPath></defs><path fill="#fe2c55" d="M 206.167969 24.144531 L 264.878906 23.933594 C 263.8125 64.472656 343.359375 140.667969 349.742188 149.371094 C 316.988281 153.40625 286.359375 155.953125 264.878906 138.121094 L 264.660156 260.378906 C 264.238281 293.488281 249.988281 318.109375 232.753906 334.449219 C 231.269531 335.9375 229.78125 337.421875 228.078125 338.695312 C 205.957031 357.375 184.261719 366.078125 154.480469 365.863281 C 125.128906 365.441406 103.003906 354.402344 84.289062 338.273438 C 70.253906 326.175781 58.976562 310.46875 52.597656 288.816406 C 38.769531 241.277344 56.636719 195.003906 96.203125 168.050781 C 96.839844 167.414062 97.6875 166.773438 98.542969 166.351562 C 116.621094 153.828125 144.699219 146.398438 170.859375 150.644531 L 170.859375 210.5 C 152.78125 205.828125 136.613281 209.863281 124.703125 219.835938 C 124.492188 219.835938 124.492188 220.050781 124.277344 220.261719 C 112.792969 230.027344 106.195312 244.460938 107.050781 260.800781 C 109.175781 290.09375 133.425781 308.34375 159.800781 307.074219 C 159.800781 307.074219 160.011719 307.074219 160.011719 307.074219 C 185.535156 304.523438 206.59375 283.726562 205.957031 255.707031 Z M 206.167969 24.144531 " fill-opacity="1" fill-rule="evenodd"/><g clip-path="url(#078c7fda92)"><path fill="#25f4ee" d="M 193 9.289062 L 251.707031 9.074219 C 250.644531 49.613281 330.191406 125.8125 336.574219 134.511719 C 303.820312 138.546875 273.191406 141.09375 251.707031 123.261719 L 251.492188 245.519531 C 251.070312 278.628906 236.820312 303.25 219.585938 319.589844 C 218.097656 321.078125 216.613281 322.566406 214.910156 323.835938 C 192.789062 342.515625 171.09375 351.21875 141.3125 351.003906 C 111.960938 350.582031 89.835938 339.542969 71.121094 323.414062 C 57.085938 311.316406 45.808594 295.609375 39.429688 273.957031 C 25.601562 226.417969 43.46875 180.148438 83.03125 153.191406 C 83.671875 152.554688 84.519531 151.914062 85.371094 151.492188 C 103.453125 138.96875 131.53125 131.542969 157.691406 135.785156 L 157.691406 195.644531 C 139.613281 190.972656 123.445312 195.003906 111.535156 204.976562 C 111.324219 204.976562 111.324219 205.195312 111.105469 205.402344 C 99.625 215.167969 93.027344 229.601562 93.878906 245.941406 C 96.007812 275.234375 120.253906 293.488281 146.632812 292.214844 C 146.632812 292.214844 146.84375 292.214844 146.84375 292.214844 C 172.367188 289.667969 193.425781 268.867188 192.789062 240.847656 Z M 193 9.289062 " fill-opacity="1" fill-rule="evenodd"/></g><g clip-path="url(#4961f31f69)"><g clip-path="url(#013fa0603e)"><path fill="#000000" d="M 208.386719 24.152344 L 267.097656 23.941406 C 266.035156 64.480469 345.582031 140.675781 351.960938 149.378906 C 319.210938 153.410156 288.578125 155.957031 267.097656 138.128906 L 266.878906 260.386719 C 266.457031 293.496094 252.207031 318.117188 234.976562 334.457031 C 233.488281 335.945312 232 337.429688 230.296875 338.703125 C 208.175781 357.382812 186.480469 366.082031 156.703125 365.871094 C 127.347656 365.449219 105.226562 354.410156 86.511719 338.277344 C 72.472656 326.183594 61.199219 310.476562 54.816406 288.824219 C 40.992188 241.285156 58.859375 195.011719 98.421875 168.058594 C 99.0625 167.421875 99.910156 166.78125 100.761719 166.359375 C 118.839844 153.835938 146.921875 146.40625 173.082031 150.652344 L 173.082031 210.507812 C 155 205.835938 138.835938 209.871094 126.921875 219.84375 C 126.714844 219.84375 126.714844 220.058594 126.496094 220.269531 C 115.015625 230.03125 108.417969 244.46875 109.269531 260.808594 C 111.394531 290.101562 135.644531 308.351562 162.019531 307.082031 C 162.019531 307.082031 162.234375 307.082031 162.234375 307.082031 C 187.757812 304.53125 208.816406 283.734375 208.175781 255.714844 Z M 208.386719 24.152344 " fill-opacity="1" fill-rule="evenodd"/></g></g></svg>