<svg xmlns="http://www.w3.org/2000/svg" xmlns:xlink="http://www.w3.org/1999/xlink" width="500" zoomAndPan="magnify" viewBox="0 0 375 374.999991" height="500" preserveAspectRatio="xMidYMid meet" version="1.0"><defs><clipPath id="843bd36aff"><path d="M 19.894531 139 L 358.144531 139 L 358.144531 357.613281 L 19.894531 357.613281 Z M 19.894531 139 " clip-rule="nonzero"/></clipPath><clipPath id="fc7050f682"><path d="M 33 26.113281 L 119 26.113281 L 119 108 L 33 108 Z M 33 26.113281 " clip-rule="nonzero"/></clipPath><clipPath id="b7bee87b28"><path d="M 146 26.113281 L 232 26.113281 L 232 108 L 146 108 Z M 146 26.113281 " clip-rule="nonzero"/></clipPath><clipPath id="943983a40a"><path d="M 259 26.113281 L 345 26.113281 L 345 108 L 259 108 Z M 259 26.113281 " clip-rule="nonzero"/></clipPath></defs><path fill="#020288" d="M 121.703125 225.488281 C 124.449219 220.960938 126.03125 215.65625 126.03125 209.984375 C 126.03125 193.453125 112.582031 180.003906 96.054688 180.003906 C 79.515625 180.003906 66.058594 193.453125 66.058594 209.984375 C 66.058594 215.65625 67.640625 220.960938 70.386719 225.488281 C 60.804688 232.042969 54.785156 243.003906 54.785156 254.910156 L 54.785156 265.671875 C 54.785156 269.320312 57.746094 272.277344 61.394531 272.277344 L 130.695312 272.277344 C 134.347656 272.277344 137.304688 269.320312 137.304688 265.671875 L 137.304688 254.910156 C 137.304688 243.003906 131.285156 232.042969 121.703125 225.488281 Z M 96.054688 193.210938 C 105.296875 193.210938 112.816406 200.734375 112.816406 209.984375 C 112.816406 219.234375 105.296875 226.761719 96.054688 226.761719 C 86.800781 226.761719 79.273438 219.234375 79.273438 209.984375 C 79.273438 200.734375 86.800781 193.210938 96.054688 193.210938 Z M 124.089844 259.070312 L 68 259.070312 L 68 254.910156 C 68 246.628906 72.636719 239.070312 79.824219 235.179688 C 84.503906 238.203125 90.078125 239.96875 96.054688 239.96875 C 102.027344 239.96875 107.59375 238.203125 112.273438 235.179688 C 119.457031 239.074219 124.089844 246.632812 124.089844 254.910156 Z M 124.089844 259.070312 " fill-opacity="1" fill-rule="nonzero"/><path fill="#020288" d="M 295.738281 225 L 319.09375 203.539062 C 321.777344 201.074219 321.953125 196.894531 319.484375 194.210938 C 317.015625 191.523438 312.835938 191.347656 310.152344 193.816406 L 290.910156 211.496094 L 290.910156 197.96875 C 290.910156 194.320312 287.953125 191.363281 284.304688 191.363281 C 280.65625 191.363281 277.699219 194.320312 277.699219 197.96875 L 277.699219 254.328125 C 277.699219 257.976562 280.65625 260.933594 284.304688 260.933594 C 287.953125 260.933594 290.910156 257.976562 290.910156 254.328125 L 290.910156 238.703125 L 312.039062 259.082031 C 313.320312 260.316406 314.972656 260.933594 316.625 260.933594 C 318.355469 260.933594 320.082031 260.257812 321.378906 258.914062 C 323.914062 256.289062 323.839844 252.109375 321.214844 249.578125 Z M 295.738281 225 " fill-opacity="1" fill-rule="nonzero"/><path fill="#020288" d="M 193.9375 247.59375 C 193.90625 247.59375 193.878906 247.59375 193.851562 247.59375 C 188.527344 247.660156 182.886719 247.707031 178.125 247.71875 C 181.164062 243.644531 185.320312 237.953125 190.867188 230.03125 C 194.394531 224.988281 196.710938 220.191406 197.757812 215.777344 C 198.035156 214.621094 198.199219 213.289062 198.199219 212.101562 C 198.199219 200.667969 188.894531 191.363281 177.457031 191.363281 C 167.546875 191.363281 158.980469 198.402344 157.078125 208.097656 C 156.375 211.675781 158.710938 215.148438 162.292969 215.847656 C 165.871094 216.546875 169.34375 214.214844 170.042969 210.636719 C 170.734375 207.121094 173.851562 204.570312 177.457031 204.570312 C 181.496094 204.570312 184.800781 207.765625 184.980469 211.761719 L 184.824219 213.054688 C 184.113281 215.769531 182.503906 218.9375 180.039062 222.464844 C 171.273438 234.984375 166.050781 241.816406 163.246094 245.484375 C 159.722656 250.097656 158.113281 252.203125 159.222656 255.835938 C 159.875 257.980469 161.492188 259.625 163.65625 260.359375 C 164.558594 260.664062 165.375 260.941406 176.191406 260.941406 C 180.414062 260.941406 186.15625 260.898438 194.019531 260.800781 C 197.664062 260.753906 200.585938 257.761719 200.539062 254.113281 C 200.496094 250.496094 197.546875 247.59375 193.9375 247.59375 Z M 193.9375 247.59375 " fill-opacity="1" fill-rule="nonzero"/><path fill="#020288" d="M 234.007812 191.457031 C 221.765625 191.457031 211.804688 201.414062 211.804688 213.652344 L 211.804688 238.625 C 211.804688 250.875 221.765625 260.839844 234.007812 260.839844 C 246.261719 260.839844 256.230469 250.875 256.230469 238.625 L 256.230469 213.652344 C 256.230469 201.414062 246.261719 191.457031 234.007812 191.457031 Z M 243.019531 238.625 C 243.019531 243.589844 238.976562 247.632812 234.007812 247.632812 C 229.050781 247.632812 225.015625 243.589844 225.015625 238.625 L 225.015625 213.652344 C 225.015625 208.699219 229.050781 204.664062 234.007812 204.664062 C 238.976562 204.664062 243.019531 208.699219 243.019531 213.652344 Z M 243.019531 238.625 " fill-opacity="1" fill-rule="nonzero"/><g clip-path="url(#843bd36aff)"><path fill="#020288" d="M 320.539062 139.308594 L 57.496094 139.308594 C 36.765625 139.308594 19.898438 156.167969 19.898438 176.890625 L 19.898438 275.40625 C 19.898438 296.117188 36.765625 312.96875 57.496094 312.96875 L 148.101562 312.96875 L 183.96875 355.277344 C 185.226562 356.757812 187.066406 357.613281 189.007812 357.613281 C 190.949219 357.613281 192.792969 356.761719 194.046875 355.28125 L 229.933594 312.96875 L 320.539062 312.96875 C 341.273438 312.96875 358.136719 296.117188 358.136719 275.40625 L 358.136719 176.890625 C 358.136719 156.167969 341.269531 139.308594 320.539062 139.308594 Z M 344.925781 275.40625 C 344.925781 288.835938 333.984375 299.761719 320.539062 299.761719 L 226.875 299.761719 C 224.933594 299.761719 223.089844 300.617188 221.835938 302.097656 L 189.011719 340.796875 L 156.203125 302.097656 C 154.949219 300.617188 153.105469 299.761719 151.164062 299.761719 L 57.496094 299.761719 C 44.050781 299.761719 33.113281 288.835938 33.113281 275.40625 L 33.113281 176.890625 C 33.113281 163.449219 44.050781 152.515625 57.496094 152.515625 L 320.539062 152.515625 C 333.988281 152.515625 344.925781 163.449219 344.925781 176.890625 Z M 344.925781 275.40625 " fill-opacity="1" fill-rule="nonzero"/></g><g clip-path="url(#fc7050f682)"><path fill="#fff59b" d="M 96.558594 77.683594 L 118.355469 57.074219 L 88.601562 53.199219 L 75.734375 26.113281 L 62.851562 53.199219 L 33.117188 57.074219 L 54.894531 77.683594 L 49.390625 107.144531 L 75.734375 92.808594 L 102.066406 107.144531 Z M 96.558594 77.683594 " fill-opacity="1" fill-rule="evenodd"/></g><g clip-path="url(#b7bee87b28)"><path fill="#fff59b" d="M 215.355469 107.144531 L 209.851562 77.683594 L 231.628906 57.074219 L 201.894531 53.199219 L 189.007812 26.113281 L 176.144531 53.199219 L 146.390625 57.074219 L 168.1875 77.683594 L 162.679688 107.144531 L 189.007812 92.808594 Z M 215.355469 107.144531 " fill-opacity="1" fill-rule="evenodd"/></g><g clip-path="url(#943983a40a)"><path fill="#fff59b" d="M 328.628906 107.144531 L 323.144531 77.683594 L 344.921875 57.074219 L 315.164062 53.199219 L 302.300781 26.113281 L 289.417969 53.199219 L 259.679688 57.074219 L 281.460938 77.683594 L 275.953125 107.144531 L 302.300781 92.808594 Z M 328.628906 107.144531 " fill-opacity="1" fill-rule="evenodd"/></g></svg>