<svg xmlns="http://www.w3.org/2000/svg" xmlns:xlink="http://www.w3.org/1999/xlink" width="500" zoomAndPan="magnify" viewBox="0 0 375 374.999991" height="500" preserveAspectRatio="xMidYMid meet" version="1.0"><defs><clipPath id="e2e2c863cf"><path d="M 9.039062 122 L 360.039062 122 L 360.039062 262.125 L 9.039062 262.125 Z M 9.039062 122 " clip-rule="nonzero"/></clipPath></defs><g clip-path="url(#e2e2c863cf)"><path fill="#000000" d="M 348.078125 165.871094 C 344.488281 158.796875 337.140625 153.9375 328.675781 153.9375 L 109.8125 153.9375 C 100.222656 140.425781 88.996094 129.683594 82.234375 123.765625 C 80.488281 122.238281 78.09375 121.871094 75.980469 122.808594 C 73.863281 123.746094 72.523438 125.765625 72.484375 128.082031 C 72.289062 138.996094 69.871094 164.804688 51.726562 168.691406 C 30.839844 173.164062 20.507812 183.414062 15.519531 191.222656 C 10.03125 199.816406 9.617188 207.359375 9.601562 207.722656 C 9.066406 225.125 14.144531 238.746094 24.695312 248.207031 C 25.199219 248.664062 25.71875 249.105469 26.25 249.539062 C 26.269531 249.554688 26.285156 249.574219 26.304688 249.589844 C 26.324219 249.605469 26.347656 249.621094 26.367188 249.636719 C 26.578125 249.808594 26.789062 249.976562 27.003906 250.144531 C 27.070312 250.199219 27.136719 250.25 27.207031 250.304688 C 27.414062 250.464844 27.628906 250.628906 27.84375 250.789062 C 27.910156 250.835938 27.972656 250.886719 28.039062 250.933594 C 28.246094 251.085938 28.449219 251.234375 28.65625 251.382812 C 28.71875 251.425781 28.777344 251.46875 28.839844 251.511719 C 29.050781 251.660156 29.261719 251.808594 29.476562 251.957031 C 29.535156 251.996094 29.59375 252.035156 29.652344 252.078125 C 29.886719 252.234375 30.125 252.394531 30.359375 252.546875 C 30.421875 252.589844 30.484375 252.628906 30.546875 252.667969 C 30.789062 252.828125 31.035156 252.980469 31.28125 253.136719 C 31.332031 253.167969 31.386719 253.199219 31.4375 253.230469 C 31.699219 253.390625 31.960938 253.550781 32.230469 253.710938 C 32.25 253.722656 32.269531 253.734375 32.289062 253.746094 C 32.5625 253.90625 32.839844 254.066406 33.117188 254.222656 C 33.140625 254.238281 33.164062 254.25 33.183594 254.261719 C 33.464844 254.421875 33.75 254.578125 34.039062 254.734375 C 34.074219 254.753906 34.113281 254.773438 34.152344 254.792969 C 34.433594 254.945312 34.71875 255.097656 35.007812 255.242188 C 35.042969 255.261719 35.082031 255.28125 35.117188 255.300781 C 35.410156 255.449219 35.710938 255.601562 36.007812 255.746094 C 36.027344 255.753906 36.042969 255.761719 36.058594 255.769531 C 36.375 255.921875 36.6875 256.074219 37.007812 256.222656 C 37.007812 256.222656 37.011719 256.222656 37.011719 256.222656 C 37.320312 256.367188 37.632812 256.507812 37.945312 256.648438 C 37.984375 256.664062 38.019531 256.679688 38.058594 256.695312 C 38.359375 256.828125 38.660156 256.957031 38.960938 257.085938 C 39.011719 257.105469 39.058594 257.128906 39.109375 257.148438 C 39.410156 257.273438 39.714844 257.398438 40.023438 257.523438 C 40.066406 257.539062 40.105469 257.554688 40.148438 257.570312 C 40.46875 257.699219 40.792969 257.824219 41.117188 257.945312 C 48.257812 260.640625 55.707031 261.949219 63.121094 261.949219 C 70.871094 261.949219 78.589844 260.519531 85.890625 257.75 C 89.53125 260.496094 94.058594 262.125 98.957031 262.125 L 338.265625 262.125 C 350.257812 262.125 360.015625 252.371094 360.015625 240.378906 L 360.015625 185.277344 C 360.011719 176.8125 355.15625 169.464844 348.078125 165.871094 Z M 348.078125 165.871094 " fill-opacity="1" fill-rule="nonzero"/></g><path fill="#7f86ff" d="M 350.421875 175.6875 L 350.421875 230.785156 C 350.421875 242.777344 340.667969 252.53125 328.675781 252.53125 L 96.589844 252.53125 C 95.148438 253.40625 93.679688 254.21875 92.183594 254.972656 C 94.246094 255.929688 96.539062 256.46875 98.957031 256.46875 L 338.265625 256.46875 C 347.140625 256.46875 354.359375 249.25 354.359375 240.375 L 354.359375 185.277344 C 354.359375 181.238281 352.863281 177.546875 350.398438 174.71875 C 350.414062 175.039062 350.421875 175.359375 350.421875 175.6875 Z M 350.421875 175.6875 " fill-opacity="1" fill-rule="nonzero"/><path fill="#ffffff" d="M 113.617188 159.59375 C 115.066406 161.875 116.449219 164.21875 117.746094 166.621094 C 131 191.167969 130.917969 213.425781 117.5 232.773438 C 117.222656 233.171875 116.941406 233.574219 116.652344 233.972656 C 116.648438 233.976562 116.640625 233.984375 116.636719 233.992188 C 116.097656 234.734375 115.535156 235.480469 114.945312 236.21875 C 114.941406 236.226562 114.933594 236.234375 114.929688 236.242188 C 114.785156 236.421875 114.640625 236.605469 114.492188 236.785156 C 114.484375 236.792969 114.480469 236.800781 114.472656 236.808594 C 113.867188 237.558594 113.238281 238.300781 112.589844 239.039062 C 112.554688 239.078125 112.519531 239.117188 112.488281 239.15625 C 112.367188 239.292969 112.246094 239.429688 112.125 239.566406 C 112.074219 239.621094 112.023438 239.679688 111.972656 239.734375 C 111.863281 239.855469 111.753906 239.976562 111.644531 240.097656 C 111.589844 240.160156 111.53125 240.21875 111.476562 240.28125 C 111.367188 240.398438 111.261719 240.515625 111.15625 240.628906 C 111.097656 240.691406 111.039062 240.753906 110.980469 240.816406 C 110.867188 240.9375 110.753906 241.058594 110.636719 241.179688 C 110.585938 241.234375 110.535156 241.289062 110.484375 241.34375 C 110.320312 241.515625 110.152344 241.691406 109.984375 241.863281 C 108.253906 243.648438 106.4375 245.320312 104.554688 246.878906 L 328.675781 246.878906 C 337.550781 246.878906 344.769531 239.65625 344.769531 230.785156 L 344.769531 175.6875 C 344.769531 166.8125 337.550781 159.59375 328.675781 159.59375 Z M 153.769531 189.605469 C 153.769531 189.796875 153.691406 189.890625 153.539062 189.890625 L 145.800781 189.890625 L 145.859375 223.476562 C 145.859375 223.667969 145.78125 223.765625 145.628906 223.765625 L 138.988281 223.765625 C 138.816406 223.765625 138.730469 223.667969 138.730469 223.476562 L 138.730469 189.894531 L 131.082031 189.894531 C 130.890625 189.894531 130.792969 189.796875 130.792969 189.605469 L 130.851562 183.019531 C 130.851562 182.867188 130.929688 182.789062 131.082031 182.789062 L 153.453125 182.789062 C 153.664062 182.789062 153.769531 182.867188 153.769531 183.019531 Z M 179.992188 211.402344 L 180.050781 223.476562 C 180.050781 223.667969 179.953125 223.765625 179.761719 223.765625 L 173.09375 223.765625 C 172.9375 223.765625 172.863281 223.707031 172.863281 223.59375 L 172.863281 211.402344 C 172.863281 209.980469 172.363281 208.753906 171.367188 207.71875 C 170.371094 206.683594 169.144531 206.167969 167.683594 206.167969 L 163.804688 206.167969 L 163.746094 223.476562 C 163.746094 223.667969 163.667969 223.761719 163.515625 223.761719 L 156.84375 223.761719 C 156.691406 223.761719 156.613281 223.667969 156.613281 223.476562 L 156.730469 183.019531 C 156.730469 182.863281 156.804688 182.789062 156.960938 182.789062 L 168.863281 182.789062 C 170.992188 182.789062 172.945312 183.304688 174.730469 184.339844 C 176.511719 185.375 177.933594 186.765625 179 188.511719 C 180.0625 190.253906 180.59375 192.230469 180.59375 194.433594 C 180.59375 195.871094 180.375 197.175781 179.933594 198.34375 C 179.492188 199.515625 178.980469 200.5 178.394531 201.308594 C 177.8125 202.113281 177.277344 202.707031 176.800781 203.089844 C 178.929688 205.449219 179.992188 208.21875 179.992188 211.402344 Z M 204.261719 216.519531 C 204.414062 216.519531 204.492188 216.617188 204.492188 216.808594 L 204.492188 223.535156 C 204.492188 223.6875 204.414062 223.765625 204.261719 223.765625 L 185.226562 223.765625 C 185.074219 223.765625 184.996094 223.671875 184.996094 223.480469 L 185.054688 183.019531 C 185.054688 182.867188 185.128906 182.789062 185.285156 182.789062 L 204.203125 182.789062 C 204.359375 182.789062 204.433594 182.886719 204.433594 183.078125 L 204.433594 189.664062 C 204.433594 189.816406 204.359375 189.894531 204.203125 189.894531 L 192.128906 189.894531 L 192.128906 199.09375 L 204.203125 199.09375 C 204.359375 199.09375 204.433594 199.171875 204.433594 199.324219 L 204.492188 205.996094 C 204.492188 206.148438 204.414062 206.226562 204.261719 206.226562 L 192.128906 206.226562 L 192.128906 216.519531 Z M 231.636719 223.765625 L 226.460938 223.765625 L 216.253906 202.085938 L 216.683594 223.304688 C 216.683594 223.613281 216.5 223.765625 216.136719 223.765625 L 210.242188 223.765625 C 209.933594 223.765625 209.78125 223.632812 209.78125 223.363281 L 209.722656 183.25 C 209.722656 182.945312 209.878906 182.789062 210.183594 182.789062 L 215.503906 182.789062 L 225.453125 205.996094 L 225.164062 183.25 C 225.164062 182.945312 225.339844 182.789062 225.683594 182.789062 L 231.519531 182.789062 C 231.75 182.789062 231.867188 182.945312 231.867188 183.25 L 231.921875 223.421875 C 231.925781 223.652344 231.828125 223.765625 231.636719 223.765625 Z M 260.191406 211.34375 C 260.191406 213.605469 259.644531 215.675781 258.550781 217.554688 C 257.4375 219.414062 255.964844 220.894531 254.121094 221.996094 C 252.28125 223.097656 250.203125 223.667969 247.882812 223.707031 L 237.328125 223.765625 C 237.136719 223.765625 237.042969 223.671875 237.042969 223.480469 L 237.15625 183.019531 C 237.15625 182.867188 237.234375 182.789062 237.386719 182.789062 L 248.402344 182.734375 C 250.585938 182.675781 252.5625 183.171875 254.324219 184.226562 C 256.105469 185.28125 257.53125 186.707031 258.59375 188.496094 C 259.65625 190.289062 260.191406 192.269531 260.191406 194.433594 Z M 271.777344 223.765625 L 265.109375 223.765625 C 264.914062 223.765625 264.820312 223.671875 264.820312 223.480469 L 264.878906 183.019531 C 264.878906 182.867188 264.957031 182.789062 265.109375 182.789062 L 271.722656 182.789062 C 271.875 182.789062 271.953125 182.867188 271.953125 183.019531 L 272.011719 223.480469 C 272.007812 223.671875 271.933594 223.765625 271.777344 223.765625 Z M 299.09375 223.765625 L 293.921875 223.765625 L 283.710938 202.085938 L 284.144531 223.304688 C 284.144531 223.613281 283.960938 223.765625 283.597656 223.765625 L 277.703125 223.765625 C 277.394531 223.765625 277.242188 223.632812 277.242188 223.363281 L 277.183594 183.25 C 277.183594 182.945312 277.335938 182.789062 277.644531 182.789062 L 282.964844 182.789062 L 292.914062 205.996094 L 292.625 183.25 C 292.625 182.945312 292.796875 182.789062 293.144531 182.789062 L 298.980469 182.789062 C 299.210938 182.789062 299.324219 182.945312 299.324219 183.25 L 299.382812 223.421875 C 299.382812 223.652344 299.289062 223.765625 299.09375 223.765625 Z M 326.84375 196.5625 C 326.84375 196.71875 326.75 196.792969 326.558594 196.792969 L 319.941406 196.792969 C 319.789062 196.792969 319.710938 196.71875 319.710938 196.5625 L 319.710938 194.320312 C 319.710938 192.828125 319.292969 191.589844 318.449219 190.613281 C 317.605469 189.636719 316.550781 189.144531 315.285156 189.144531 C 314.152344 189.144531 313.148438 189.617188 312.265625 190.554688 C 311.382812 191.492188 310.941406 192.597656 310.941406 193.863281 L 310.941406 212.523438 C 310.941406 213.808594 311.371094 214.914062 312.234375 215.84375 C 313.097656 216.773438 314.113281 217.238281 315.285156 217.238281 C 316.546875 217.238281 317.601562 216.785156 318.445312 215.875 C 319.289062 214.964844 319.710938 213.847656 319.710938 212.523438 L 319.710938 209.621094 L 315.601562 209.621094 C 315.386719 209.621094 315.285156 209.523438 315.285156 209.332031 L 315.285156 202.746094 C 315.285156 202.554688 315.386719 202.460938 315.601562 202.460938 L 326.613281 202.460938 C 326.765625 202.460938 326.84375 202.554688 326.84375 202.746094 L 326.84375 212.523438 C 326.84375 214.726562 326.324219 216.722656 325.289062 218.503906 C 324.234375 220.289062 322.847656 221.707031 321.121094 222.761719 C 319.394531 223.816406 317.449219 224.339844 315.285156 224.339844 C 313.15625 224.339844 311.238281 223.8125 309.53125 222.761719 C 307.808594 221.707031 306.421875 220.289062 305.378906 218.503906 C 304.332031 216.722656 303.808594 214.726562 303.808594 212.523438 L 303.808594 193.859375 C 303.808594 191.714844 304.335938 189.757812 305.390625 187.996094 C 306.425781 186.210938 307.816406 184.789062 309.5625 183.726562 C 311.304688 182.660156 313.214844 182.128906 315.285156 182.128906 C 317.449219 182.128906 319.40625 182.648438 321.148438 183.683594 C 322.894531 184.738281 324.277344 186.144531 325.304688 187.910156 C 326.328125 189.671875 326.84375 191.65625 326.84375 193.863281 Z M 326.84375 196.5625 " fill-opacity="1" fill-rule="nonzero"/><path fill="#ffffff" d="M 168.863281 189.835938 L 163.804688 189.835938 L 163.804688 199.09375 L 168.863281 199.09375 C 170.074219 199.09375 171.152344 198.644531 172.097656 197.742188 C 173.046875 196.84375 173.523438 195.738281 173.523438 194.4375 C 173.523438 193.191406 173.0625 192.113281 172.140625 191.203125 C 171.222656 190.289062 170.128906 189.835938 168.863281 189.835938 Z M 168.863281 189.835938 " fill-opacity="1" fill-rule="nonzero"/><path fill="#ffffff" d="M 248.402344 189.777344 L 244.289062 189.835938 L 244.230469 216.519531 L 247.882812 216.519531 C 249.339844 216.519531 250.566406 216.011719 251.5625 214.996094 C 252.5625 213.980469 253.058594 212.761719 253.058594 211.34375 L 253.058594 194.378906 C 253.058594 193.132812 252.597656 192.042969 251.679688 191.113281 C 250.757812 190.183594 249.664062 189.738281 248.402344 189.777344 Z M 248.402344 189.777344 " fill-opacity="1" fill-rule="nonzero"/><path fill="#ff7878" d="M 45.367188 203.410156 C 47.023438 201.929688 49.339844 201.519531 51.414062 202.339844 C 53.5 203.164062 54.921875 205.066406 55.117188 207.300781 C 55.570312 212.429688 56.585938 216.480469 58.050781 219.011719 C 58.195312 219.261719 58.5 219.363281 58.773438 219.261719 C 65.292969 216.746094 80.601562 208.320312 81.929688 184.484375 C 82.0625 182.09375 83.605469 180.039062 85.859375 179.246094 C 88.097656 178.457031 90.570312 179.089844 92.15625 180.855469 C 99.246094 188.734375 111.308594 204.371094 116.507812 224.253906 C 125.191406 207.96875 124.050781 189.460938 113.082031 169.140625 C 102.996094 150.457031 87.238281 135.191406 78.742188 127.753906 C 78.625 127.652344 78.5 127.601562 78.371094 127.601562 C 78.292969 127.601562 78.210938 127.621094 78.128906 127.65625 C 77.90625 127.753906 77.792969 127.929688 77.785156 128.175781 C 77.664062 134.941406 76.824219 144.882812 73.503906 153.820312 C 69.316406 165.085938 62.363281 171.835938 52.835938 173.875 C 37.636719 177.132812 26.640625 183.847656 20.148438 193.832031 C 15.316406 201.265625 14.902344 207.871094 14.898438 207.9375 C 14.476562 221.679688 17.859375 232.765625 24.953125 240.929688 C 29.039062 224.480469 35.898438 211.867188 45.367188 203.410156 Z M 45.367188 203.410156 " fill-opacity="1" fill-rule="nonzero"/><path fill="#fff678" d="M 106.175781 238.171875 C 108.484375 235.792969 110.558594 233.335938 112.347656 230.875 C 112.449219 230.734375 112.496094 230.566406 112.46875 230.425781 C 108.433594 209.355469 95.539062 192.546875 88.210938 184.402344 C 88.152344 184.335938 87.96875 184.128906 87.621094 184.25 C 87.371094 184.335938 87.238281 184.515625 87.226562 184.777344 C 85.679688 212.457031 66.519531 221.957031 60.683594 224.207031 C 57.960938 225.261719 54.921875 224.191406 53.460938 221.667969 C 51.582031 218.421875 50.363281 213.746094 49.835938 207.769531 C 49.808594 207.46875 49.617188 207.332031 49.460938 207.269531 C 49.378906 207.238281 49.304688 207.222656 49.238281 207.222656 C 49.058594 207.222656 48.945312 207.324219 48.898438 207.367188 C 39.742188 215.542969 33.207031 228.167969 29.46875 244.886719 C 29.417969 245.109375 29.492188 245.34375 29.65625 245.476562 C 33.398438 248.53125 37.882812 251.054688 42.984375 252.980469 C 64.691406 261.171875 89.496094 255.359375 106.175781 238.171875 Z M 106.175781 238.171875 " fill-opacity="1" fill-rule="nonzero"/></svg>