<svg xmlns="http://www.w3.org/2000/svg" xmlns:xlink="http://www.w3.org/1999/xlink" width="500" zoomAndPan="magnify" viewBox="0 0 375 374.999991" height="500" preserveAspectRatio="xMidYMid meet" version="1.0"><defs><clipPath id="e9304f357a"><path d="M 7.707031 115.132812 L 87 115.132812 L 87 218 L 7.707031 218 Z M 7.707031 115.132812 " clip-rule="nonzero"/></clipPath><clipPath id="d754f91c84"><path d="M 9 115.132812 L 87 115.132812 L 87 215 L 9 215 Z M 9 115.132812 " clip-rule="nonzero"/></clipPath></defs><path fill="#f0768e" d="M 76.167969 136.082031 C 73.203125 136.136719 70.117188 136.441406 67.332031 137.492188 C 66.53125 137.800781 65.863281 138.257812 65.339844 138.824219 C 63.691406 139.378906 62.609375 140.570312 61.972656 142.039062 C 59.648438 143.636719 58.984375 146.890625 59.121094 149.691406 C 58.746094 165.910156 57.640625 182.128906 58.953125 198.335938 C 62.875 198.390625 66.792969 198.292969 70.667969 197.820312 C 70.628906 197.046875 70.585938 196.269531 70.546875 195.480469 C 71.265625 195.410156 71.984375 195.339844 72.707031 195.257812 C 72.496094 192.59375 72.359375 189.933594 72.277344 187.273438 C 78.6875 189.503906 85.375 191.058594 91.980469 192.59375 C 92.339844 191.667969 92.699219 190.738281 93.058594 189.808594 C 93.378906 189.878906 93.710938 189.960938 94.03125 190.03125 C 95.441406 186.328125 96.867188 182.644531 98.390625 178.984375 C 94.347656 178.066406 90.304688 177.140625 86.304688 176.058594 C 88.007812 174.464844 89.570312 172.71875 90.929688 170.832031 C 93.269531 168.171875 95.207031 165.175781 96.507812 161.863281 C 101.757812 148.085938 90.140625 135.46875 76.167969 136.082031 Z M 83.3125 154.808594 C 84.53125 157.746094 83.769531 160.644531 82.011719 163.292969 C 79.15625 166.339844 75.28125 168.917969 72.21875 170.625 C 72.359375 163.902344 72.621094 157.179688 72.828125 150.453125 C 76.832031 150.109375 81.332031 151.066406 83.3125 154.808594 Z M 83.3125 154.808594 " fill-opacity="1" fill-rule="nonzero"/><path fill="#f0768e" d="M 359.644531 162.625 C 351.65625 162.820312 343.679688 163.679688 335.691406 163.347656 C 335.632812 164.21875 335.59375 165.078125 335.550781 165.953125 C 334.914062 165.9375 334.277344 165.9375 333.640625 165.910156 C 333.53125 167.839844 333.433594 169.765625 333.390625 171.707031 C 333.351562 173.660156 333.351562 175.601562 333.40625 177.542969 C 337.253906 177.929688 341.132812 177.75 344.996094 177.527344 C 343.402344 178.859375 341.992188 180.5625 340.496094 181.824219 C 338.335938 183.933594 336.160156 186.039062 333.988281 188.144531 C 330.855469 188.269531 327.753906 187.578125 325.277344 185.582031 C 317.039062 176.15625 319.335938 159.242188 327.328125 148.347656 C 330.59375 144.730469 334.652344 142.027344 339.402344 141.027344 C 342.515625 140.253906 345.839844 140.722656 348.511719 142.527344 C 349.925781 143.511719 350.785156 145.132812 351.792969 146.574219 C 354.882812 144.203125 358.082031 141.957031 361.335938 139.808594 C 361.183594 139.519531 361.03125 139.226562 360.863281 138.949219 C 361.695312 138.382812 362.539062 137.8125 363.382812 137.246094 C 358.828125 128.457031 347.875 124.617188 338.527344 127.097656 C 330.511719 128.816406 323.644531 133.863281 318.476562 140.597656 C 303.175781 158.371094 300.421875 191.667969 321.457031 200.386719 C 317.867188 203.949219 314.308594 207.539062 310.820312 211.210938 C 306.609375 215.746094 302.691406 220.542969 299.035156 225.53125 C 297.140625 228.109375 298.09375 231.964844 300.671875 233.683594 C 304.257812 236.179688 308.273438 233.65625 310.113281 230.300781 C 312.550781 227.167969 315.058594 224.117188 317.648438 221.125 C 323.65625 214.511719 330.136719 208.328125 336.535156 202.0625 C 344.703125 200.664062 351.988281 195.796875 356.808594 189.117188 C 360.128906 185.402344 362.636719 180.921875 363.867188 175.960938 C 364.160156 174.742188 364.117188 173.644531 363.828125 172.691406 C 366.957031 169.460938 365.488281 162.765625 359.644531 162.625 Z M 359.644531 162.625 " fill-opacity="1" fill-rule="nonzero"/><g clip-path="url(#e9304f357a)"><path fill="#f0768e" d="M 36.5625 181.671875 C 36.34375 193.511719 35.554688 205.570312 37.019531 217.339844 C 37.1875 217.324219 37.351562 217.296875 37.519531 217.285156 C 41.121094 216.894531 44.71875 216.519531 48.335938 216.246094 C 48.320312 215.453125 48.292969 214.648438 48.277344 213.859375 C 48.984375 213.804688 49.675781 213.734375 50.382812 213.679688 C 49.675781 189.671875 50.496094 165.382812 51.683594 141.332031 C 51.492188 138.449219 52.53125 134.238281 52.808594 130.398438 C 57.929688 130.355469 63.054688 130.3125 68.191406 130.355469 C 73.191406 130.355469 78.203125 130.382812 83.203125 130.644531 C 83.269531 129.773438 83.355469 128.886719 83.421875 128.011719 C 84.03125 128.039062 84.640625 128.054688 85.25 128.09375 C 85.515625 124.960938 85.789062 121.828125 86.011719 118.695312 C 86.066406 117.933594 86.125 117.1875 86.179688 116.421875 C 60.839844 115.230469 35.484375 117.046875 10.171875 115.71875 C 10.144531 116.605469 10.101562 117.476562 10.074219 118.363281 C 9.425781 118.335938 8.773438 118.308594 8.121094 118.28125 C 7.996094 122.203125 7.84375 126.140625 7.707031 130.078125 C 18.105469 130.398438 28.53125 130.660156 38.960938 130.519531 C 37.285156 147.53125 37.019531 164.59375 36.5625 181.671875 Z M 36.5625 181.671875 " fill-opacity="1" fill-rule="nonzero"/></g><path fill="#f0768e" d="M 217.089844 184.777344 C 218.195312 183.40625 219.25 181.949219 220.246094 180.425781 C 227.335938 169.820312 227.515625 155.195312 221.367188 144.132812 C 215.621094 134.972656 201.164062 129.273438 190.628906 129.855469 C 188.523438 129.9375 185.90625 129.910156 184.230469 131.367188 C 183.425781 131.992188 182.816406 132.824219 182.445312 133.722656 C 182.359375 133.792969 182.277344 133.847656 182.195312 133.917969 C 180.324219 135.359375 179.550781 137.855469 180.105469 140.074219 C 179.992188 156.625 179.769531 173.257812 180.035156 189.824219 C 180.214844 191.363281 180.105469 193.164062 180.105469 194.953125 C 176.128906 195.160156 172.140625 197.140625 168.125 200.136719 C 156.425781 208.273438 136.96875 230.992188 150.996094 244.257812 C 174.496094 259.785156 216.644531 224.660156 193.730469 201.839844 C 203.0625 199.027344 211.535156 192.816406 217.089844 184.777344 Z M 193.785156 144.410156 C 198.035156 145.171875 202.007812 147.101562 205.75 149.207031 C 210.582031 152.257812 211.535156 158.246094 211.953125 163.511719 C 212.242188 168.945312 210.289062 174.007812 207.175781 178.34375 C 204.542969 181.324219 201.371094 183.875 198.117188 185.859375 C 196.71875 186.539062 195.28125 187.066406 193.796875 187.523438 C 193.6875 182.960938 193.660156 178.316406 193.671875 173.839844 C 193.703125 164.027344 193.839844 154.210938 193.785156 144.410156 Z M 163.292969 236.332031 C 152.230469 236.898438 160.9375 224.519531 164.070312 220.140625 C 168.375 214.609375 173.679688 209.6875 180.074219 206.707031 C 180.519531 206.789062 180.976562 206.832031 181.417969 206.816406 C 200.042969 218.40625 177.542969 236.414062 163.292969 236.332031 Z M 163.292969 236.332031 " fill-opacity="1" fill-rule="nonzero"/><path fill="#f0768e" d="M 163.375 186.316406 C 166.160156 186.359375 168.957031 186.425781 171.710938 186.703125 C 171.753906 185.789062 171.796875 184.875 171.835938 183.960938 C 172.15625 183.972656 172.488281 183.972656 172.804688 183.988281 C 173.125 184 173.441406 184.054688 173.746094 184.140625 C 174.078125 177.085938 174.398438 170.042969 174.730469 162.988281 C 175.175781 153.492188 175.617188 143.980469 176.046875 134.484375 C 175.660156 134.609375 175.242188 134.652344 174.828125 134.609375 C 171.324219 134.292969 167.820312 134.292969 164.316406 134.25 C 164.277344 135.109375 164.234375 135.96875 164.191406 136.828125 C 163.554688 136.816406 162.90625 136.816406 162.269531 136.800781 C 162.003906 142.429688 161.757812 148.058594 161.480469 153.683594 C 161.285156 157.734375 161.105469 161.78125 160.910156 165.828125 C 157.019531 160.683594 153.128906 155.554688 149.238281 150.414062 C 148.835938 150.414062 148.433594 150.425781 148.035156 150.425781 C 147.605469 150.425781 147.1875 150.441406 146.757812 150.441406 C 146.066406 150.441406 145.375 150.453125 144.683594 150.453125 C 144.171875 150.46875 143.65625 150.46875 143.144531 150.484375 C 142.4375 150.496094 141.71875 150.511719 141.011719 150.523438 C 139.917969 150.550781 138.824219 150.59375 137.730469 150.636719 C 137.730469 150.636719 137.730469 150.636719 137.730469 150.648438 C 137.480469 150.664062 137.21875 150.664062 136.96875 150.675781 C 136.902344 151.507812 136.832031 152.339844 136.777344 153.15625 C 136.167969 153.1875 135.542969 153.199219 134.933594 153.226562 C 133.964844 163.902344 133.894531 174.796875 133.589844 185.527344 C 137.414062 185.691406 141.222656 185.804688 145.027344 185.96875 C 145.152344 185.484375 145.238281 184.972656 145.25 184.445312 C 145.265625 184.070312 145.277344 183.710938 145.292969 183.351562 C 145.761719 183.363281 146.21875 183.378906 146.691406 183.40625 C 146.816406 183.40625 146.953125 183.417969 147.078125 183.417969 C 147.355469 179.980469 147.535156 176.53125 147.671875 173.0625 C 150.222656 176.433594 152.769531 179.789062 155.316406 183.15625 C 154.847656 183.378906 154.402344 183.65625 153.988281 184.015625 C 149.238281 188.035156 144.515625 192.082031 139.792969 196.144531 C 131.75 196.296875 123.691406 196.449219 115.644531 196.617188 C 115.824219 191.25 116.003906 185.886719 116.183594 180.523438 C 118.996094 180.464844 121.792969 180.410156 124.605469 180.355469 C 124.660156 179.511719 124.714844 178.679688 124.785156 177.832031 C 125.40625 177.820312 126.03125 177.804688 126.652344 177.789062 C 126.929688 173.882812 127.207031 169.972656 127.46875 166.0625 C 123.871094 166.0625 120.269531 166.160156 116.667969 166.242188 C 116.960938 157.539062 117.265625 148.847656 117.554688 140.140625 C 126.738281 140.597656 135.929688 141.042969 145.113281 141.5 C 145.167969 141.5 145.222656 141.5 145.277344 141.515625 C 145.359375 140.625 145.445312 139.753906 145.527344 138.867188 C 146.066406 138.894531 146.605469 138.921875 147.148438 138.949219 C 147.203125 138.949219 147.257812 138.949219 147.3125 138.964844 C 147.644531 135.054688 148.089844 131.171875 148.644531 127.292969 C 135.945312 126.640625 123.246094 126.042969 110.550781 125.40625 C 109.304688 125.351562 108.125 125.558594 107.074219 126.140625 C 107.019531 126.777344 106.976562 127.417969 106.933594 128.054688 C 106.269531 128.164062 105.632812 128.371094 105.039062 128.707031 C 104.011719 141.375 103.222656 154.03125 102.949219 166.730469 C 102.601562 180.714844 101.519531 194.6875 102.296875 208.675781 C 103.375 210.160156 105.289062 211.199219 107.15625 211.046875 C 112.40625 210.949219 117.667969 210.839844 122.914062 210.742188 C 113.539062 218.738281 104.304688 227.554688 92.453125 231.574219 C 78.367188 236.84375 103.363281 201.46875 82.5625 198.417969 C 72.554688 197.808594 54.441406 214.234375 46.546875 220.777344 C 41.492188 226.015625 23.0625 238.851562 36.660156 244.382812 C 39.582031 245.050781 42.644531 243.066406 43.445312 240.210938 C 53.996094 228.96875 66.085938 218.835938 79.40625 211.019531 C 78.410156 219.003906 74.65625 227.152344 76.929688 235.222656 C 78.8125 241.429688 85.636719 244.578125 91.773438 243.664062 C 108.472656 240.640625 120.921875 227.597656 133.507812 217.160156 C 142.894531 209.007812 152.3125 200.886719 161.785156 192.832031 C 163.679688 191.183594 164.191406 188.519531 163.375 186.316406 Z M 163.375 186.316406 " fill-opacity="1" fill-rule="nonzero"/><path fill="#f0768e" d="M 302.386719 180.09375 C 301.738281 179.664062 301.03125 179.386719 300.308594 179.234375 C 300.308594 179.09375 300.324219 178.941406 300.324219 178.816406 C 300.53125 164.332031 299.605469 149.75 300.144531 135.304688 C 296.226562 135 292.308594 134.859375 288.386719 134.761719 C 288.234375 135.621094 288.179688 136.496094 288.167969 137.371094 C 287.558594 137.355469 286.949219 137.328125 286.339844 137.3125 C 285.839844 139.988281 286.3125 142.777344 286.226562 145.480469 C 286.269531 154.058594 286.394531 162.640625 286.492188 171.21875 C 278.433594 161.421875 270.886719 151.203125 264.042969 140.515625 C 263.117188 140.488281 262.203125 140.488281 261.277344 140.488281 C 261.234375 140.488281 261.179688 140.488281 261.136719 140.488281 C 259.710938 140.503906 258.285156 140.542969 256.871094 140.613281 C 256.554688 140.625 256.25 140.640625 255.929688 140.640625 C 255.085938 140.695312 254.226562 140.738281 253.382812 140.792969 C 252.800781 140.835938 252.21875 140.863281 251.636719 140.902344 C 251.292969 140.933594 250.945312 140.945312 250.597656 140.972656 C 250.351562 141.625 250.199219 142.359375 250.183594 143.175781 C 250.183594 143.261719 250.183594 143.328125 250.183594 143.414062 C 249.644531 143.453125 249.105469 143.484375 248.5625 143.523438 C 248.316406 144.175781 248.164062 144.910156 248.148438 145.726562 C 248.121094 161.210938 248.34375 176.738281 249.074219 192.207031 C 247.761719 190.433594 245.488281 189.394531 243.246094 189.878906 C 242.042969 173.617188 243.355469 157.234375 243.632812 140.972656 C 239.785156 141.015625 235.933594 141.152344 232.097656 141.515625 C 232.015625 142.316406 231.960938 143.121094 231.90625 143.925781 C 231.296875 143.96875 230.671875 144.007812 230.0625 144.078125 C 229.605469 148.707031 229.566406 153.367188 229.414062 158.011719 C 229.039062 169.683594 228.417969 181.464844 229.675781 193.082031 C 232.238281 192.941406 234.800781 192.96875 237.363281 192.957031 C 235.867188 194.121094 234.453125 195.421875 233.054688 196.65625 C 223.625 205.5 214.570312 214.761719 206.511719 224.878906 C 202.464844 229.703125 196.984375 237.480469 203.171875 242.832031 C 209.042969 247.421875 216.035156 241.527344 221.132812 238.382812 C 225.46875 235.441406 229.785156 232.503906 234.148438 229.636719 C 230.535156 244.773438 245.960938 247.988281 256.527344 241.210938 C 268.117188 234.765625 277.449219 224.964844 285.730469 214.746094 C 292.5 206.375 298.066406 197.128906 304.050781 188.203125 C 305.792969 185.582031 305.046875 181.867188 302.386719 180.09375 Z M 241.695312 190.40625 C 241.488281 190.488281 241.28125 190.585938 241.074219 190.667969 C 241.074219 190.585938 241.058594 190.503906 241.058594 190.417969 C 241.265625 190.417969 241.472656 190.417969 241.695312 190.40625 Z M 280.121094 202.824219 C 271.285156 213.929688 259.460938 228.96875 245.40625 232.960938 C 246.375 227.847656 249.671875 223.203125 249.683594 217.921875 C 249.421875 214.109375 246.167969 210.699219 242.207031 211.574219 C 239.523438 211.890625 237.375 213.636719 235.144531 215.011719 C 231.546875 217.3125 227.945312 219.613281 224.414062 222.023438 C 230.699219 215.246094 237.125 208.480469 244.230469 202.535156 C 247.359375 200.550781 250.988281 199.167969 250.074219 194.46875 C 250.046875 194.328125 250.003906 194.175781 249.960938 194.039062 C 253.589844 193.855469 257.230469 193.664062 260.859375 193.789062 C 260.820312 192.929688 260.789062 192.054688 260.761719 191.195312 C 261.484375 191.195312 262.1875 191.210938 262.910156 191.238281 C 262.535156 182.171875 262.246094 173.089844 262.078125 164.011719 C 266.621094 170.304688 271.425781 176.40625 276.355469 182.394531 C 278.804688 185.347656 281.285156 188.285156 283.914062 191.085938 C 285.105469 191.085938 286.3125 191.070312 287.5 191.058594 C 287.710938 191.058594 287.917969 191.058594 288.140625 191.042969 C 285.492188 195.007812 282.863281 198.957031 280.121094 202.824219 Z M 280.121094 202.824219 " fill-opacity="1" fill-rule="nonzero"/><path fill="#f0768e" d="M 288.539062 246.878906 C 288.402344 254.640625 299.480469 255.308594 300.253906 247.574219 C 300.378906 239.796875 289.316406 239.144531 288.539062 246.878906 Z M 288.539062 246.878906 " fill-opacity="1" fill-rule="nonzero"/><g clip-path="url(#d754f91c84)"><path fill="#05d8d1" d="M 70.210938 127.789062 C 74.601562 127.789062 79.003906 127.820312 83.394531 128 C 84.003906 128.027344 84.613281 128.039062 85.222656 128.082031 C 85.484375 124.949219 85.761719 121.816406 85.984375 118.683594 C 86.039062 117.921875 86.09375 117.171875 86.152344 116.410156 C 60.839844 115.230469 35.484375 117.046875 10.171875 115.71875 C 10.144531 116.605469 10.101562 117.476562 10.074219 118.363281 C 9.964844 121.414062 9.851562 124.464844 9.742188 127.527344 C 20.15625 127.957031 30.570312 128 40.996094 127.957031 C 40.566406 133.222656 40.109375 138.476562 39.777344 143.746094 C 38.933594 166.742188 37.628906 189.824219 38.695312 212.835938 C 38.738281 213.511719 38.847656 214.179688 39.058594 214.789062 C 39.222656 214.773438 39.390625 214.746094 39.554688 214.734375 C 42.464844 214.414062 45.371094 214.109375 48.277344 213.859375 C 48.984375 213.804688 49.675781 213.734375 50.382812 213.679688 C 49.675781 189.671875 50.496094 165.382812 51.683594 141.332031 C 51.492188 138.449219 52.53125 134.238281 52.808594 130.398438 C 52.863281 129.523438 52.890625 128.679688 52.847656 127.859375 C 58.636719 127.820312 64.425781 127.777344 70.210938 127.789062 Z M 48.761719 122.925781 C 45.289062 151.203125 44.929688 179.691406 44.804688 208.136719 C 44.789062 209.300781 42.960938 209.410156 42.933594 208.136719 C 43.128906 179.691406 43.28125 151.132812 46.964844 122.898438 C 35.859375 122.730469 24.753906 122.566406 13.660156 122.398438 C 12.457031 122.355469 12.457031 120.539062 13.6875 120.527344 C 36.398438 120.859375 59.09375 121.191406 81.804688 121.539062 C 83.019531 121.582031 83.007812 123.382812 81.773438 123.410156 C 78.078125 123.355469 74.367188 123.300781 70.667969 123.242188 C 63.371094 123.148438 56.074219 123.035156 48.761719 122.925781 Z M 48.761719 122.925781 " fill-opacity="1" fill-rule="nonzero"/></g><path fill="#05d8d1" d="M 85.625 175.878906 C 87.535156 174.351562 89.347656 172.675781 90.957031 170.847656 C 93.296875 168.183594 95.234375 165.191406 96.535156 161.878906 C 101.757812 148.085938 90.152344 135.46875 76.179688 136.082031 C 73.21875 136.136719 70.128906 136.441406 67.347656 137.492188 C 66.542969 137.800781 65.878906 138.257812 65.351562 138.824219 C 63.703125 139.378906 62.625 140.570312 61.988281 142.039062 C 61.308594 143.59375 61.101562 145.449219 61.183594 147.128906 C 60.808594 163.347656 59.703125 179.566406 61.019531 195.769531 C 61.253906 195.769531 61.488281 195.769531 61.710938 195.785156 C 64.660156 195.8125 67.625 195.742188 70.558594 195.492188 C 71.277344 195.421875 72 195.355469 72.71875 195.269531 C 72.511719 192.609375 72.371094 189.949219 72.289062 187.285156 C 72.25 186.175781 72.21875 185.070312 72.191406 183.960938 C 78.9375 186.511719 86.039062 188.203125 93.074219 189.824219 C 93.394531 189.890625 93.726562 189.976562 94.042969 190.046875 C 95.457031 186.34375 96.882812 182.65625 98.40625 178.996094 C 94.363281 178.082031 90.320312 177.152344 86.316406 176.070312 C 86.082031 176.003906 85.859375 175.933594 85.625 175.878906 Z M 90.636719 184.25 C 82.8125 182.40625 75.046875 180.285156 67.375 177.886719 C 67.304688 181.285156 67.222656 184.679688 67.152344 188.089844 C 67.140625 188.601562 66.738281 189.019531 66.226562 189.019531 C 65.726562 189.019531 65.28125 188.589844 65.296875 188.089844 C 65.628906 173.355469 65.90625 158.605469 67.027344 143.898438 C 67.054688 143.386719 67.152344 142.777344 67.691406 142.554688 C 74.808594 141.363281 85.789062 143.675781 90.625 149.097656 C 93.394531 152.4375 92.671875 157.316406 90.886719 160.960938 C 86.941406 168.933594 78.8125 173.867188 70.792969 176.960938 C 77.511719 179.066406 84.335938 180.800781 91.175781 182.449219 C 92.3125 182.796875 91.84375 184.554688 90.636719 184.25 Z M 90.636719 184.25 " fill-opacity="1" fill-rule="nonzero"/><path fill="#05d8d1" d="M 88.863281 160.808594 C 91.09375 156.75 91.691406 151.34375 87.257812 148.570312 C 81.914062 145.117188 75.140625 143.566406 68.828125 144.3125 C 68.136719 154.792969 67.691406 165.355469 67.429688 175.90625 C 67.554688 175.90625 67.679688 175.949219 67.789062 176.003906 C 76.125 173.273438 84.476562 168.65625 88.863281 160.808594 Z M 72.21875 170.625 C 72.359375 163.902344 72.621094 157.179688 72.828125 150.453125 C 72.859375 149.691406 72.871094 148.929688 72.898438 148.167969 C 73.660156 148 74.421875 147.863281 75.183594 147.875 C 78.992188 147.640625 83.476562 148.570312 85.363281 152.257812 C 86.980469 156.179688 85.097656 160.019531 82.023438 163.304688 C 79.15625 166.355469 75.28125 168.917969 72.21875 170.625 Z M 72.21875 170.625 " fill-opacity="1" fill-rule="nonzero"/><path fill="#05d8d1" d="M 116.214844 180.507812 C 116.242188 179.664062 116.269531 178.832031 116.296875 177.984375 C 119.132812 177.929688 121.972656 177.875 124.8125 177.820312 C 125.433594 177.804688 126.058594 177.789062 126.679688 177.777344 C 126.957031 173.867188 127.234375 169.957031 127.5 166.050781 C 123.898438 166.050781 120.296875 166.148438 116.699219 166.230469 C 116.988281 157.523438 117.292969 148.832031 117.582031 140.128906 C 117.613281 139.242188 117.640625 138.351562 117.667969 137.480469 C 126.957031 137.9375 136.261719 138.394531 145.554688 138.851562 C 146.09375 138.878906 146.636719 138.90625 147.175781 138.9375 C 147.230469 138.9375 147.285156 138.9375 147.339844 138.949219 C 147.671875 135.039062 148.117188 131.160156 148.671875 127.277344 C 135.972656 126.625 123.273438 126.03125 110.578125 125.390625 C 109.332031 125.335938 108.152344 125.546875 107.101562 126.128906 C 107.046875 126.765625 107.003906 127.402344 106.964844 128.039062 C 106.90625 128.707031 106.867188 129.371094 106.8125 130.023438 C 106.8125 130.023438 106.8125 130.035156 106.796875 130.035156 C 105.882812 141.402344 105.273438 152.757812 105.011719 164.152344 C 104.773438 175.917969 103.832031 187.6875 104.125 199.445312 C 104.136719 199.679688 104.136719 199.914062 104.152344 200.152344 C 104.164062 200.59375 104.179688 201.039062 104.195312 201.480469 C 104.195312 201.480469 104.195312 201.480469 104.195312 201.496094 C 104.222656 202.519531 104.261719 203.53125 104.289062 204.558594 C 104.304688 205.070312 104.332031 205.585938 104.347656 206.097656 C 104.46875 206.261719 104.59375 206.417969 104.734375 206.582031 C 105.746094 207.621094 107.269531 208.453125 108.761719 208.453125 C 114.496094 208.34375 120.230469 208.230469 125.960938 208.121094 C 127.539062 206.761719 129.105469 205.390625 130.683594 204.03125 C 129.519531 204.058594 128.355469 204.101562 127.195312 204.128906 C 121.722656 204.28125 116.253906 204.433594 110.785156 204.585938 C 110.21875 205.125 109.191406 204.667969 109.234375 203.878906 C 109.34375 199.957031 109.457031 196.035156 109.582031 192.109375 C 109.816406 183.972656 110.050781 175.824219 110.285156 167.6875 C 110.523438 159.492188 110.757812 151.300781 110.992188 143.09375 C 111.101562 139.101562 111.226562 135.109375 111.339844 131.105469 C 111.339844 130.410156 112.183594 129.9375 112.765625 130.328125 C 120.867188 130.605469 128.964844 130.882812 137.066406 131.160156 C 139.03125 131.226562 141 131.296875 142.980469 131.367188 C 143.492188 131.382812 143.90625 131.78125 143.90625 132.296875 C 143.90625 132.792969 143.476562 133.253906 142.964844 133.222656 C 139.171875 133.101562 135.378906 132.960938 131.582031 132.835938 C 125.449219 132.628906 119.300781 132.421875 113.167969 132.210938 C 112.792969 145.464844 112.390625 158.71875 112.015625 171.96875 C 115.605469 171.71875 119.191406 171.46875 122.761719 171.21875 C 123.289062 171.125 123.855469 171.457031 123.925781 172.011719 C 123.996094 172.496094 123.636719 173.023438 123.121094 173.0625 C 119.398438 173.328125 115.671875 173.578125 111.960938 173.839844 C 111.683594 183.460938 111.40625 193.082031 111.132812 202.699219 C 118.402344 202.507812 125.65625 202.300781 132.925781 202.089844 C 135.226562 200.09375 137.539062 198.113281 139.835938 196.117188 C 131.789062 196.269531 123.730469 196.421875 115.6875 196.585938 C 115.851562 191.222656 116.03125 185.859375 116.214844 180.507812 Z M 116.214844 180.507812 " fill-opacity="1" fill-rule="nonzero"/><path fill="#05d8d1" d="M 174.839844 134.597656 C 171.339844 134.277344 167.835938 134.277344 164.332031 134.238281 C 164.289062 135.097656 164.25 135.957031 164.207031 136.816406 C 163.984375 141.582031 163.765625 146.351562 163.542969 151.121094 C 163.277344 156.816406 163.015625 162.515625 162.753906 168.210938 C 162.144531 167.410156 161.546875 166.617188 160.9375 165.8125 C 157.046875 160.671875 153.15625 155.542969 149.265625 150.398438 C 148.863281 150.398438 148.460938 150.414062 148.0625 150.414062 C 147.632812 150.414062 147.214844 150.425781 146.789062 150.425781 C 146.09375 150.425781 145.402344 150.441406 144.710938 150.441406 C 144.199219 150.453125 143.6875 150.453125 143.171875 150.46875 C 142.46875 150.484375 141.746094 150.496094 141.039062 150.511719 C 139.945312 150.539062 138.851562 150.578125 137.757812 150.621094 C 137.757812 150.621094 137.757812 150.621094 137.757812 150.636719 C 137.511719 150.648438 137.246094 150.648438 136.996094 150.664062 C 136.929688 151.496094 136.859375 152.328125 136.804688 153.144531 C 136.027344 163.027344 135.945312 173.0625 135.667969 182.960938 C 138.894531 183.101562 142.105469 183.210938 145.332031 183.335938 C 145.804688 183.351562 146.261719 183.363281 146.730469 183.390625 C 146.855469 183.390625 146.996094 183.40625 147.121094 183.40625 C 147.398438 179.96875 147.578125 176.515625 147.714844 173.050781 C 147.785156 171.371094 147.839844 169.710938 147.894531 168.03125 C 151.578125 172.898438 155.261719 177.761719 158.957031 182.628906 C 159.832031 182.78125 160.675781 183.113281 161.410156 183.65625 C 162.253906 183.667969 163.097656 183.695312 163.945312 183.722656 C 166.574219 183.792969 169.21875 183.875 171.851562 183.960938 C 172.167969 183.972656 172.5 183.972656 172.820312 183.988281 C 173.136719 184 173.457031 184.054688 173.761719 184.140625 C 174.09375 177.085938 174.414062 170.042969 174.746094 162.988281 C 175.1875 153.492188 175.632812 143.980469 176.058594 134.484375 C 175.671875 134.597656 175.242188 134.636719 174.839844 134.597656 Z M 169.484375 162.695312 C 169.234375 166.796875 168.984375 170.914062 168.707031 175.019531 C 168.582031 176.890625 168.472656 178.773438 168.347656 180.660156 C 168.292969 181.519531 166.992188 181.785156 166.617188 181.019531 C 158.929688 173.644531 151.328125 166.160156 143.671875 158.757812 C 143.214844 164.898438 142.800781 170.984375 142.328125 177.113281 C 142.46875 178.152344 141.402344 178.914062 140.625 178.054688 C 140.460938 177.847656 140.417969 177.609375 140.429688 177.359375 C 140.695312 173.632812 140.984375 169.890625 141.25 166.160156 C 141.582031 162.902344 141.527344 159.605469 142.066406 156.402344 C 142.300781 155.792969 143.132812 155.625 143.589844 156.097656 C 146.441406 158.898438 149.320312 161.667969 152.1875 164.457031 C 156.992188 169.128906 161.796875 173.796875 166.601562 178.46875 C 167.324219 167.074219 168.015625 155.679688 168.75 144.285156 C 168.859375 142.582031 168.957031 140.890625 169.066406 139.183594 C 169.09375 138.671875 169.621094 138.3125 170.105469 138.367188 C 170.632812 138.4375 170.964844 138.894531 170.921875 139.40625 C 170.453125 147.140625 169.980469 154.917969 169.484375 162.695312 Z M 169.484375 162.695312 " fill-opacity="1" fill-rule="nonzero"/><path fill="#05d8d1" d="M 206.523438 140.042969 C 201.261719 137.660156 195.515625 136.300781 189.796875 136.773438 C 189.464844 155.875 189.144531 174.976562 188.828125 194.078125 C 203.394531 190.628906 218.101562 179.234375 219.179688 163.402344 C 219.652344 154.199219 215.179688 143.980469 206.523438 140.042969 Z M 207.175781 178.34375 C 204.542969 181.324219 201.371094 183.875 198.117188 185.859375 C 196.71875 186.539062 195.28125 187.066406 193.796875 187.523438 C 193.6875 182.960938 193.660156 178.316406 193.671875 173.839844 C 193.714844 164.027344 193.855469 154.226562 193.796875 144.410156 C 193.796875 143.46875 193.785156 142.527344 193.769531 141.582031 C 193.867188 141.597656 193.964844 141.597656 194.0625 141.609375 C 198.976562 142.082031 203.546875 144.257812 207.8125 146.65625 C 212.644531 149.707031 213.601562 155.695312 214.015625 160.960938 C 214.347656 167.492188 211.453125 173.492188 207.175781 178.34375 Z M 207.175781 178.34375 " fill-opacity="1" fill-rule="nonzero"/><path fill="#05d8d1" d="M 190.628906 129.84375 C 188.523438 129.925781 185.90625 129.898438 184.230469 131.351562 C 183.425781 131.976562 182.816406 132.808594 182.445312 133.710938 C 181.945312 134.902344 181.835938 136.261719 182.152344 137.507812 C 181.945312 138.949219 182.082031 140.472656 182.070312 141.929688 C 182.113281 148.195312 182.054688 154.460938 182.027344 160.714844 C 181.960938 169.558594 181.847656 178.402344 182.070312 187.246094 C 182.332031 189.546875 181.960938 192.429688 182.277344 194.992188 C 185.226562 195.339844 188.175781 196.726562 191.125 199.5 C 191.402344 199.71875 191.664062 199.941406 191.929688 200.179688 C 202.246094 198.125 210.648438 192.777344 217.089844 184.761719 C 218.195312 183.390625 219.25 181.9375 220.246094 180.410156 C 227.335938 169.804688 227.515625 155.183594 221.367188 144.121094 C 215.621094 134.957031 201.164062 129.261719 190.628906 129.84375 Z M 194.035156 194.507812 C 192.082031 195.203125 190.085938 195.8125 188.023438 196.128906 C 187.414062 196.226562 186.929688 195.644531 186.945312 195.0625 C 187.082031 187.257812 187.207031 179.441406 187.34375 171.636719 C 187.496094 163.445312 187.59375 155.25 187.761719 147.058594 C 187.84375 143.46875 187.886719 139.878906 187.941406 136.273438 C 187.941406 135.984375 188.09375 135.734375 188.316406 135.566406 C 188.371094 135.441406 188.46875 135.332031 188.59375 135.234375 C 190.265625 134.484375 192.273438 134.75 194.0625 134.875 C 201.816406 135.664062 210.25 138.078125 215.164062 144.535156 C 230.007812 164.277344 214.859375 187.730469 194.035156 194.507812 Z M 194.035156 194.507812 " fill-opacity="1" fill-rule="nonzero"/><path fill="#05d8d1" d="M 232.085938 141.554688 C 232.003906 142.359375 231.945312 143.164062 231.890625 143.96875 C 231.613281 147.808594 231.558594 151.660156 231.433594 155.5 C 231.0625 167.171875 230.4375 178.957031 231.699219 190.570312 C 234.8125 190.390625 237.929688 190.488281 241.042969 190.417969 C 241.265625 190.417969 241.472656 190.40625 241.695312 190.40625 C 242.152344 190.226562 242.625 190.058594 243.109375 189.933594 C 243.148438 189.921875 243.191406 189.921875 243.234375 189.90625 C 242.027344 173.644531 243.34375 157.261719 243.621094 141 C 239.769531 141.054688 235.921875 141.195312 232.085938 141.554688 Z M 238.34375 145.921875 C 237.570312 153.492188 237.238281 161.171875 237.320312 168.753906 C 237.304688 173.160156 237.347656 177.554688 237.363281 181.964844 C 237.363281 182.933594 237.375 183.917969 237.390625 184.886719 C 237.390625 185.402344 237.042969 185.84375 236.515625 185.886719 C 236.03125 185.914062 235.535156 185.527344 235.519531 185.011719 C 235.476562 172.011719 235.105469 158.992188 236.460938 146.0625 C 236.503906 145.617188 236.558594 145.105469 237.027344 144.894531 C 237.695312 144.550781 238.539062 145.171875 238.34375 145.921875 Z M 238.34375 145.921875 " fill-opacity="1" fill-rule="nonzero"/><path fill="#05d8d1" d="M 300.144531 135.304688 C 296.226562 135 292.308594 134.859375 288.386719 134.761719 C 288.234375 135.621094 288.179688 136.496094 288.167969 137.371094 C 288.140625 139.214844 288.332031 141.085938 288.277344 142.929688 C 288.320312 153.214844 288.5 163.5 288.609375 173.785156 C 287.902344 172.9375 287.210938 172.09375 286.503906 171.234375 C 278.445312 161.433594 270.898438 151.21875 264.058594 140.53125 C 263.132812 140.503906 262.21875 140.503906 261.289062 140.503906 C 261.246094 140.503906 261.191406 140.503906 261.152344 140.503906 C 259.722656 140.515625 258.296875 140.558594 256.886719 140.625 C 256.566406 140.640625 256.261719 140.65625 255.945312 140.65625 C 255.101562 140.710938 254.242188 140.75 253.394531 140.808594 C 252.816406 140.847656 252.234375 140.875 251.652344 140.917969 C 251.304688 140.945312 250.960938 140.960938 250.613281 140.988281 C 250.363281 141.640625 250.210938 142.375 250.199219 143.191406 C 250.199219 143.273438 250.199219 143.34375 250.199219 143.425781 C 250.171875 159.4375 250.40625 175.503906 251.207031 191.5 C 254.394531 191.347656 257.578125 191.167969 260.761719 191.183594 C 261.484375 191.183594 262.1875 191.195312 262.910156 191.222656 C 262.535156 182.15625 262.246094 173.078125 262.078125 164 C 262.050781 162.140625 262.007812 160.285156 261.996094 158.425781 C 267.175781 165.773438 272.65625 172.910156 278.40625 179.828125 C 280.855469 182.78125 283.332031 185.71875 285.964844 188.519531 C 287.15625 188.519531 288.359375 188.507812 289.550781 188.492188 C 289.632812 188.492188 289.730469 188.492188 289.8125 188.492188 C 290.519531 187.425781 291.214844 186.359375 291.917969 185.289062 C 291.433594 184.929688 290.9375 184.582031 290.535156 184.140625 C 287.957031 181.355469 285.398438 178.539062 282.835938 175.753906 C 274.238281 166.394531 265.636719 157.027344 257.050781 147.65625 C 257.148438 160.074219 257.355469 172.480469 257.273438 184.886719 C 257.316406 186.109375 255.515625 186.234375 255.402344 185.011719 C 255.320312 178.207031 255.488281 171.621094 255.375 164.914062 C 255.375 158.59375 254.976562 152.117188 255.253906 145.851562 C 255.445312 145.3125 255.945312 145.144531 256.375 145.257812 C 256.761719 145.019531 257.261719 145.132812 257.5625 145.464844 C 260.277344 148.390625 262.949219 151.34375 265.652344 154.265625 C 271.148438 160.253906 276.632812 166.230469 282.128906 172.21875 C 285.769531 175.988281 289.054688 180.1875 292.929688 183.710938 C 293.054688 172.011719 293.179688 160.3125 293.289062 148.625 C 293.332031 145.949219 293.332031 143.261719 293.375 140.570312 C 293.46875 139.40625 295.214844 139.488281 295.242188 140.613281 C 295.117188 152.757812 294.992188 164.886719 294.867188 177.027344 C 294.855469 178.375 294.839844 179.703125 294.828125 181.046875 C 296.226562 179.511719 298.359375 178.84375 300.367188 179.234375 C 300.367188 179.09375 300.378906 178.941406 300.378906 178.816406 C 300.546875 164.332031 299.605469 149.75 300.144531 135.304688 Z M 300.144531 135.304688 " fill-opacity="1" fill-rule="nonzero"/><path fill="#05d8d1" d="M 325.277344 185.582031 C 317.039062 176.15625 319.335938 159.242188 327.328125 148.347656 C 330.996094 143.359375 335.855469 139.628906 341.449219 138.464844 C 344.566406 137.6875 347.890625 138.160156 350.5625 139.960938 C 351.972656 140.945312 352.832031 142.566406 353.84375 144.007812 C 356.128906 142.25 358.480469 140.570312 360.863281 138.9375 C 361.695312 138.367188 362.539062 137.800781 363.382812 137.230469 C 358.828125 128.441406 347.875 124.601562 338.527344 127.082031 C 330.511719 128.800781 323.644531 133.847656 318.476562 140.585938 C 306.597656 156.082031 303.839844 180.5625 317.34375 194.230469 C 319.378906 195.894531 321.550781 197.15625 323.78125 198.085938 C 324.984375 196.894531 326.203125 195.699219 327.421875 194.523438 C 317.316406 190.875 311.566406 178.125 314.15625 163.277344 C 316.746094 146.128906 332.710938 127.167969 351.53125 132.558594 C 353.136719 133.042969 354.6875 133.722656 356.199219 134.472656 C 356.65625 134.707031 356.847656 135.261719 356.625 135.71875 C 356.40625 136.175781 355.824219 136.371094 355.378906 136.148438 C 344.84375 130.160156 332.808594 135.039062 325.289062 143.496094 C 315.238281 155.488281 310.875 175.988281 321.730469 188.714844 C 323.824219 190.917969 326.316406 192.289062 328.988281 192.996094 C 330.648438 191.375 332.3125 189.769531 333.988281 188.144531 C 330.855469 188.269531 327.753906 187.578125 325.277344 185.582031 Z M 325.277344 185.582031 " fill-opacity="1" fill-rule="nonzero"/><path fill="#05d8d1" d="M 359.644531 162.625 C 351.65625 162.820312 343.679688 163.679688 335.691406 163.347656 C 335.632812 164.21875 335.59375 165.078125 335.550781 165.953125 C 335.496094 167.019531 335.453125 168.074219 335.441406 169.140625 C 335.398438 171.09375 335.398438 173.035156 335.453125 174.976562 C 335.480469 174.976562 335.523438 174.992188 335.550781 174.992188 C 341.007812 175.433594 346.464844 175.019531 351.917969 174.6875 C 351.808594 174.992188 351.683594 175.28125 351.558594 175.574219 C 353.414062 176.128906 354.757812 177.679688 355.351562 179.480469 C 356.960938 176.570312 358.148438 173.519531 358.453125 170.984375 C 353.234375 170.722656 347.945312 170.332031 342.753906 170.234375 C 342.058594 170.234375 341.367188 170.222656 340.675781 170.234375 C 340.382812 170.277344 340.078125 170.167969 339.859375 169.957031 C 339.164062 169.238281 339.898438 168.226562 340.8125 168.363281 C 346.933594 168.335938 353.039062 168.863281 359.148438 169.140625 C 359.425781 169.167969 359.617188 169.28125 359.769531 169.433594 C 360.019531 169.515625 360.242188 169.695312 360.335938 170.027344 C 360.378906 173.769531 358.273438 178.691406 355.503906 182.863281 C 355.242188 183.902344 354.675781 184.859375 353.734375 185.609375 C 353.484375 185.816406 353.25 186.039062 353 186.246094 C 351.792969 187.6875 350.546875 188.9375 349.371094 189.835938 C 349.011719 190.085938 348.636719 190.335938 348.277344 190.570312 C 345.730469 193.023438 343.25 195.546875 340.6875 197.960938 C 340.203125 198.429688 339.734375 198.902344 339.25 199.386719 C 345.882812 198 352.152344 194.300781 356.808594 189.101562 C 360.128906 185.386719 362.636719 180.910156 363.867188 175.949219 C 364.160156 174.726562 364.117188 173.632812 363.828125 172.675781 C 366.957031 169.460938 365.488281 162.765625 359.644531 162.625 Z M 359.644531 162.625 " fill-opacity="1" fill-rule="nonzero"/><path fill="#ffffff" d="M 81.789062 123.425781 C 83.007812 123.394531 83.019531 121.609375 81.816406 121.554688 C 59.105469 121.21875 36.410156 120.886719 13.703125 120.539062 C 12.457031 120.554688 12.46875 122.371094 13.675781 122.414062 C 24.78125 122.578125 35.886719 122.746094 46.976562 122.910156 C 43.308594 151.148438 43.140625 179.703125 42.949219 208.148438 C 42.976562 209.425781 44.804688 209.3125 44.816406 208.148438 C 44.941406 179.703125 45.300781 151.21875 48.777344 122.9375 C 56.074219 123.050781 63.386719 123.148438 70.683594 123.257812 C 74.378906 123.3125 78.078125 123.367188 81.789062 123.425781 Z M 81.789062 123.425781 " fill-opacity="1" fill-rule="nonzero"/><path fill="#ffffff" d="M 90.871094 160.960938 C 92.671875 157.332031 93.394531 152.4375 90.609375 149.097656 C 85.777344 143.675781 74.808594 141.347656 67.679688 142.554688 C 67.140625 142.777344 67.054688 143.386719 67.015625 143.898438 C 65.878906 158.605469 65.617188 173.339844 65.28125 188.089844 C 65.269531 188.601562 65.710938 189.019531 66.210938 189.019531 C 66.722656 189.019531 67.140625 188.589844 67.140625 188.089844 C 67.207031 184.695312 67.277344 181.296875 67.359375 177.886719 C 75.03125 180.285156 82.785156 182.40625 90.625 184.25 C 91.8125 184.542969 92.300781 182.796875 91.136719 182.449219 C 84.296875 180.800781 77.46875 179.066406 70.753906 176.960938 C 78.796875 173.882812 86.925781 168.933594 90.871094 160.960938 Z M 67.789062 175.988281 C 67.679688 175.933594 67.554688 175.90625 67.429688 175.890625 C 67.691406 165.34375 68.136719 154.792969 68.828125 144.300781 C 75.128906 143.550781 81.898438 145.105469 87.257812 148.554688 C 91.703125 151.316406 91.09375 156.734375 88.863281 160.796875 C 84.476562 168.65625 76.125 173.273438 67.789062 175.988281 Z M 67.789062 175.988281 " fill-opacity="1" fill-rule="nonzero"/><path fill="#ffffff" d="M 111.949219 173.839844 C 115.671875 173.578125 119.398438 173.328125 123.109375 173.0625 C 123.621094 173.023438 123.96875 172.496094 123.910156 172.011719 C 123.84375 171.457031 123.273438 171.125 122.75 171.21875 C 119.164062 171.46875 115.574219 171.71875 112.003906 171.96875 C 112.378906 158.71875 112.765625 145.464844 113.152344 132.210938 C 119.285156 132.421875 125.433594 132.628906 131.570312 132.835938 C 135.363281 132.960938 139.15625 133.101562 142.953125 133.222656 C 143.464844 133.238281 143.894531 132.78125 143.894531 132.296875 C 143.894531 131.769531 143.464844 131.382812 142.964844 131.367188 C 141 131.296875 139.03125 131.226562 137.054688 131.160156 C 128.953125 130.882812 120.851562 130.605469 112.75 130.328125 C 112.167969 129.925781 111.324219 130.410156 111.324219 131.105469 C 111.214844 135.097656 111.089844 139.101562 110.980469 143.09375 C 110.742188 151.285156 110.492188 159.480469 110.273438 167.6875 C 110.050781 175.824219 109.800781 183.972656 109.566406 192.109375 C 109.441406 196.035156 109.34375 199.957031 109.21875 203.878906 C 109.179688 204.683594 110.21875 205.140625 110.769531 204.585938 C 116.242188 204.433594 121.710938 204.28125 127.179688 204.128906 C 128.34375 204.101562 129.507812 204.058594 130.667969 204.03125 C 131.417969 203.394531 132.152344 202.742188 132.898438 202.105469 C 125.628906 202.300781 118.375 202.519531 111.101562 202.714844 C 111.394531 193.082031 111.671875 183.460938 111.949219 173.839844 Z M 111.949219 173.839844 " fill-opacity="1" fill-rule="nonzero"/><path fill="#ffffff" d="M 170.132812 138.339844 C 169.648438 138.285156 169.136719 138.660156 169.09375 139.15625 C 168.984375 140.863281 168.886719 142.554688 168.777344 144.257812 C 168.054688 155.652344 167.351562 167.046875 166.628906 178.441406 C 161.824219 173.769531 157.019531 169.097656 152.214844 164.429688 C 149.347656 161.640625 146.46875 158.871094 143.617188 156.070312 C 143.160156 155.613281 142.328125 155.765625 142.09375 156.375 C 141.554688 159.578125 141.609375 162.875 141.277344 166.132812 C 141 169.863281 140.722656 173.605469 140.460938 177.332031 C 140.445312 177.582031 140.488281 177.832031 140.652344 178.027344 C 141.429688 178.886719 142.480469 178.125 142.355469 177.085938 C 142.828125 170.957031 143.257812 164.871094 143.699219 158.730469 C 151.355469 166.132812 158.960938 173.617188 166.644531 180.992188 C 167.019531 181.769531 168.320312 181.507812 168.375 180.632812 C 168.5 178.746094 168.609375 176.875 168.734375 174.992188 C 169.011719 170.886719 169.246094 166.769531 169.511719 162.667969 C 170.007812 154.890625 170.480469 147.128906 170.976562 139.351562 C 170.992188 138.867188 170.660156 138.394531 170.132812 138.339844 Z M 170.132812 138.339844 " fill-opacity="1" fill-rule="nonzero"/><path fill="#ffffff" d="M 194.0625 134.875 C 192.273438 134.75 190.253906 134.484375 188.59375 135.234375 C 188.46875 135.332031 188.371094 135.457031 188.316406 135.566406 C 188.09375 135.734375 187.941406 135.984375 187.941406 136.273438 C 187.871094 139.863281 187.84375 143.46875 187.761719 147.058594 C 187.59375 155.25 187.496094 163.445312 187.34375 171.636719 C 187.207031 179.441406 187.082031 187.257812 186.945312 195.0625 C 186.929688 195.644531 187.429688 196.214844 188.023438 196.128906 C 190.074219 195.8125 192.066406 195.214844 194.035156 194.507812 C 214.859375 187.730469 230.023438 164.277344 215.164062 144.535156 C 210.25 138.078125 201.816406 135.664062 194.0625 134.875 Z M 219.179688 163.402344 C 218.101562 179.234375 203.394531 190.628906 188.828125 194.078125 C 189.144531 174.976562 189.464844 155.875 189.796875 136.773438 C 195.527344 136.289062 201.277344 137.660156 206.523438 140.042969 C 215.179688 143.980469 219.652344 154.199219 219.179688 163.402344 Z M 219.179688 163.402344 " fill-opacity="1" fill-rule="nonzero"/><path fill="#ffffff" d="M 237.015625 144.882812 C 236.542969 145.089844 236.488281 145.601562 236.449219 146.046875 C 235.089844 158.992188 235.464844 171.996094 235.507812 185 C 235.507812 185.511719 236.019531 185.898438 236.503906 185.871094 C 237.027344 185.832031 237.375 185.386719 237.375 184.875 C 237.363281 183.902344 237.363281 182.917969 237.347656 181.949219 C 237.332031 177.542969 237.292969 173.160156 237.304688 168.738281 C 237.238281 161.144531 237.570312 153.476562 238.332031 145.910156 C 238.539062 145.171875 237.695312 144.550781 237.015625 144.882812 Z M 237.015625 144.882812 " fill-opacity="1" fill-rule="nonzero"/><path fill="#ffffff" d="M 293.332031 140.570312 C 293.289062 143.246094 293.277344 145.9375 293.25 148.625 C 293.125 160.324219 293 172.011719 292.886719 183.710938 C 289.011719 180.1875 285.742188 176.003906 282.085938 172.21875 C 276.589844 166.230469 271.105469 160.253906 265.609375 154.265625 C 262.921875 151.328125 260.238281 148.390625 257.523438 145.464844 C 257.203125 145.132812 256.71875 145.019531 256.332031 145.257812 C 255.902344 145.144531 255.402344 145.3125 255.210938 145.851562 C 254.949219 152.117188 255.335938 158.59375 255.335938 164.914062 C 255.445312 171.636719 255.28125 178.21875 255.363281 185.011719 C 255.460938 186.246094 257.273438 186.109375 257.230469 184.886719 C 257.300781 172.46875 257.109375 160.0625 257.011719 147.65625 C 265.609375 157.011719 274.207031 166.394531 282.792969 175.753906 C 285.371094 178.539062 287.917969 181.355469 290.492188 184.140625 C 290.894531 184.582031 291.394531 184.929688 291.878906 185.289062 C 292.667969 184.097656 293.457031 182.90625 294.246094 181.714844 C 294.410156 181.476562 294.589844 181.257812 294.773438 181.046875 C 294.785156 179.71875 294.800781 178.375 294.8125 177.027344 C 294.9375 164.886719 295.0625 152.742188 295.1875 140.613281 C 295.171875 139.488281 293.429688 139.40625 293.332031 140.570312 Z M 293.332031 140.570312 " fill-opacity="1" fill-rule="nonzero"/><path fill="#ffffff" d="M 325.289062 143.496094 C 332.796875 135.039062 344.828125 130.160156 355.378906 136.148438 C 355.835938 136.386719 356.40625 136.175781 356.625 135.71875 C 356.847656 135.261719 356.65625 134.695312 356.199219 134.472656 C 354.6875 133.722656 353.152344 133.042969 351.53125 132.558594 C 332.710938 127.152344 316.746094 146.117188 314.15625 163.277344 C 311.566406 178.125 317.316406 190.875 327.421875 194.523438 C 327.949219 194.007812 328.476562 193.496094 328.988281 192.984375 C 326.316406 192.277344 323.808594 190.890625 321.730469 188.699219 C 310.875 175.976562 315.238281 155.488281 325.289062 143.496094 Z M 325.289062 143.496094 " fill-opacity="1" fill-rule="nonzero"/><path fill="#ffffff" d="M 360.324219 170.042969 C 360.214844 169.722656 360.003906 169.527344 359.757812 169.445312 C 359.617188 169.292969 359.410156 169.183594 359.132812 169.15625 C 353.027344 168.878906 346.921875 168.351562 340.800781 168.378906 C 339.886719 168.238281 339.152344 169.253906 339.84375 169.972656 C 340.066406 170.195312 340.371094 170.292969 340.660156 170.25 C 341.351562 170.222656 342.046875 170.25 342.738281 170.25 C 347.945312 170.347656 353.234375 170.734375 358.441406 171 C 358.136719 173.535156 356.960938 176.597656 355.339844 179.496094 C 355.699219 180.589844 355.769531 181.785156 355.476562 182.878906 C 358.246094 178.707031 360.367188 173.785156 360.324219 170.042969 Z M 360.324219 170.042969 " fill-opacity="1" fill-rule="nonzero"/><path fill="#ffffff" d="M 349.355469 189.851562 C 350.535156 188.949219 351.78125 187.703125 352.984375 186.261719 C 351.363281 187.648438 349.8125 189.101562 348.277344 190.585938 C 348.625 190.351562 348.996094 190.101562 349.355469 189.851562 Z M 349.355469 189.851562 " fill-opacity="1" fill-rule="nonzero"/></svg>