<svg xmlns="http://www.w3.org/2000/svg" xmlns:xlink="http://www.w3.org/1999/xlink" width="500" zoomAndPan="magnify" viewBox="0 0 375 374.999991" height="500" preserveAspectRatio="xMidYMid meet" version="1.0"><defs><clipPath id="e0ae387d14"><path d="M 13.441406 118 L 216 118 L 216 320.792969 L 13.441406 320.792969 Z M 13.441406 118 " clip-rule="nonzero"/></clipPath><clipPath id="844887637c"><path d="M 13.441406 113 L 221 113 L 221 320.792969 L 13.441406 320.792969 Z M 13.441406 113 " clip-rule="nonzero"/></clipPath><clipPath id="359e27249c"><path d="M 95 270 L 143 270 L 143 320.792969 L 95 320.792969 Z M 95 270 " clip-rule="nonzero"/></clipPath></defs><g clip-path="url(#e0ae387d14)"><path fill="#e55151" d="M 215.398438 219.6875 C 215.398438 221.167969 215.363281 222.644531 215.300781 224.113281 C 215.226562 225.945312 215.09375 227.773438 214.921875 229.582031 C 214.292969 236.070312 213.050781 242.371094 211.253906 248.433594 C 209.085938 255.738281 206.117188 262.699219 202.441406 269.207031 C 189.664062 291.851562 168.394531 309.074219 142.949219 316.535156 C 133.9375 319.179688 124.398438 320.59375 114.53125 320.59375 C 113.949219 320.59375 113.375 320.585938 112.792969 320.578125 C 57.871094 319.652344 13.640625 274.835938 13.640625 219.6875 C 13.640625 163.957031 58.804688 118.773438 114.523438 118.773438 C 138.113281 118.773438 159.8125 126.875 176.996094 140.445312 C 178.625 141.734375 180.214844 143.0625 181.753906 144.445312 C 192.785156 154.320312 201.640625 166.589844 207.488281 180.429688 C 210.789062 188.246094 213.136719 196.570312 214.367188 205.238281 C 215.046875 209.964844 215.398438 214.785156 215.398438 219.6875 Z M 215.398438 219.6875 " fill-opacity="1" fill-rule="nonzero"/></g><g clip-path="url(#844887637c)"><path stroke-linecap="butt" transform="matrix(0.692164, 0, 0, 0.692374, 13.466941, 80.956379)" fill="none" stroke-linejoin="miter" d="M 291.739345 200.370265 C 291.739345 202.508515 291.688554 204.641124 291.598257 206.76245 C 291.49103 209.408464 291.29915 212.048837 291.050834 214.661001 C 290.142226 224.032068 288.347583 233.132328 285.751558 241.888436 C 282.619398 252.438644 278.330314 262.492371 273.01975 271.891648 C 254.559758 304.597292 223.830727 329.472087 187.068761 340.247968 C 174.049133 344.067482 160.267629 346.109822 146.012068 346.109822 C 145.171181 346.109822 144.341582 346.098538 143.500696 346.087254 C 64.152639 344.750142 0.250929 280.021514 0.250929 200.370265 C 0.250929 119.878384 65.501443 54.619424 146.00078 54.619424 C 180.082069 54.619424 211.431888 66.320564 236.257784 85.920255 C 238.611137 87.782056 240.908055 89.700276 243.131606 91.697481 C 259.06894 105.960008 271.862826 123.680973 280.311193 143.669949 C 285.079978 154.959236 288.47174 166.98196 290.249453 179.501164 C 291.231427 186.327769 291.739345 193.289778 291.739345 200.370265 Z M 291.739345 200.370265 " stroke="#535b6a" stroke-width="0.5" stroke-opacity="1" stroke-miterlimit="10"/></g><path fill="#535b6a" d="M 72.507812 269.363281 L 68.964844 270.6875 C 66.820312 271.492188 64.429688 270.398438 63.628906 268.25 L 53.074219 239.9375 C 52.269531 237.792969 53.363281 235.402344 55.507812 234.601562 L 59.054688 233.277344 Z M 72.507812 269.363281 " fill-opacity="1" fill-rule="nonzero"/><path fill="#535b6a" d="M 244.332031 191.515625 C 259.324219 231.734375 259.898438 268.652344 245.617188 273.984375 C 243.703125 274.695312 241.617188 274.808594 239.402344 274.363281 C 239.363281 274.355469 239.320312 274.351562 239.277344 274.335938 C 228.640625 272.113281 215.101562 257.171875 203.535156 235.308594 C 199.597656 227.863281 195.894531 219.625 192.605469 210.804688 C 189.261719 201.84375 186.640625 193.050781 184.734375 184.730469 C 178.554688 157.71875 179.960938 135.738281 189.132812 129.472656 C 189.816406 128.992188 190.542969 128.621094 191.320312 128.328125 C 205.605469 123.011719 229.339844 151.292969 244.332031 191.515625 Z M 244.332031 191.515625 " fill-opacity="1" fill-rule="nonzero"/><path fill="#ffffff" d="M 184.742188 184.742188 C 186.644531 193.058594 189.269531 201.859375 192.613281 210.816406 C 195.902344 219.640625 199.605469 227.878906 203.542969 235.320312 C 215.101562 257.1875 228.640625 272.128906 239.285156 274.351562 C 198.601562 265.8125 155.625 267.597656 125.507812 270.859375 C 113.035156 272.210938 102.769531 273.816406 95.792969 275.042969 C 89.34375 276.179688 85.695312 276.996094 85.695312 276.996094 C 80.210938 279.039062 74.109375 276.253906 72.066406 270.769531 L 58.207031 233.609375 C 56.160156 228.121094 58.949219 222.019531 64.429688 219.972656 C 64.429688 219.972656 141.890625 175.609375 189.042969 129.207031 L 189.136719 129.5 C 179.96875 135.742188 178.554688 157.734375 184.742188 184.742188 Z M 184.742188 184.742188 " fill-opacity="1" fill-rule="nonzero"/><path fill="#535b6a" d="M 81.992188 277.859375 C 77.617188 277.859375 73.484375 275.175781 71.863281 270.832031 L 58.007812 233.671875 C 56.996094 230.964844 57.101562 228.039062 58.304688 225.40625 C 59.503906 222.78125 61.648438 220.78125 64.355469 219.769531 C 65.101562 219.339844 142.300781 174.910156 188.894531 129.046875 L 189.125 128.828125 L 189.378906 129.566406 L 189.253906 129.65625 C 180.367188 135.730469 178.679688 157.332031 184.945312 184.703125 C 186.894531 193.230469 189.539062 201.996094 192.808594 210.75 C 196.019531 219.367188 199.695312 227.609375 203.722656 235.222656 C 215.261719 257.039062 228.882812 271.949219 239.292969 274.140625 C 239.300781 274.140625 239.3125 274.148438 239.320312 274.148438 L 239.238281 274.542969 C 239.238281 274.542969 239.238281 274.542969 239.230469 274.542969 C 239.222656 274.542969 239.214844 274.542969 239.210938 274.539062 C 198.164062 265.929688 154.730469 267.890625 125.519531 271.0625 C 112.6875 272.453125 102.285156 274.101562 95.820312 275.242188 C 89.453125 276.363281 85.761719 277.183594 85.730469 277.1875 C 84.496094 277.640625 83.238281 277.859375 81.992188 277.859375 Z M 185.765625 132.636719 C 138.878906 177.339844 65.28125 219.699219 64.527344 220.128906 C 61.898438 221.113281 59.828125 223.039062 58.679688 225.566406 C 57.523438 228.09375 57.425781 230.917969 58.394531 233.519531 L 72.253906 270.679688 C 74.253906 276.054688 80.253906 278.796875 85.625 276.789062 C 85.6875 276.773438 89.375 275.949219 95.757812 274.828125 C 102.230469 273.6875 112.648438 272.039062 125.488281 270.640625 C 153.894531 267.558594 195.726562 265.613281 235.777344 273.414062 C 225.746094 269.128906 213.898438 255.324219 203.363281 235.398438 C 199.320312 227.761719 195.644531 219.515625 192.425781 210.875 C 189.160156 202.101562 186.507812 193.320312 184.550781 184.777344 C 179.089844 160.96875 179.667969 141.457031 185.765625 132.636719 Z M 185.765625 132.636719 " fill-opacity="1" fill-rule="nonzero"/><path fill="#e55151" d="M 222.535156 225.738281 L 203.542969 235.3125 C 199.605469 227.871094 195.902344 219.632812 192.613281 210.8125 C 189.269531 201.851562 186.644531 193.058594 184.742188 184.734375 L 204.449219 180.339844 Z M 222.535156 225.738281 " fill-opacity="1" fill-rule="nonzero"/><path fill="#c1c8d2" d="M 221.660156 200.003906 C 221.941406 200.753906 222.203125 201.507812 222.453125 202.261719 C 222.703125 203.019531 222.9375 203.773438 223.15625 204.53125 C 223.375 205.285156 223.578125 206.039062 223.761719 206.785156 C 223.949219 207.535156 224.113281 208.277344 224.265625 209.007812 C 224.414062 209.742188 224.542969 210.464844 224.65625 211.175781 C 224.769531 211.886719 224.863281 212.582031 224.9375 213.265625 C 225.011719 213.945312 225.066406 214.613281 225.101562 215.257812 C 225.136719 215.90625 225.152344 216.53125 225.148438 217.136719 C 225.148438 217.742188 225.125 218.320312 225.082031 218.878906 C 225.039062 219.4375 224.976562 219.96875 224.894531 220.472656 C 224.816406 220.976562 224.714844 221.453125 224.597656 221.898438 C 224.476562 222.347656 224.339844 222.761719 224.183594 223.148438 C 224.027344 223.53125 223.855469 223.882812 223.664062 224.203125 C 223.472656 224.523438 223.265625 224.804688 223.042969 225.058594 C 222.816406 225.308594 222.578125 225.519531 222.320312 225.699219 C 222.066406 225.878906 221.796875 226.023438 221.511719 226.128906 C 221.226562 226.234375 220.929688 226.304688 220.621094 226.335938 C 220.3125 226.367188 219.988281 226.363281 219.65625 226.320312 C 219.324219 226.277344 218.980469 226.199219 218.625 226.082031 C 218.273438 225.964844 217.910156 225.8125 217.542969 225.625 C 217.171875 225.433594 216.796875 225.210938 216.414062 224.949219 C 216.03125 224.691406 215.644531 224.398438 215.253906 224.066406 C 214.863281 223.738281 214.46875 223.378906 214.070312 222.984375 C 213.675781 222.589844 213.277344 222.167969 212.878906 221.710938 C 212.480469 221.257812 212.082031 220.773438 211.6875 220.261719 C 211.289062 219.75 210.894531 219.210938 210.507812 218.644531 C 210.117188 218.082031 209.730469 217.496094 209.351562 216.882812 C 208.96875 216.273438 208.597656 215.640625 208.230469 214.988281 C 207.863281 214.335938 207.503906 213.667969 207.15625 212.980469 C 206.804688 212.292969 206.464844 211.59375 206.136719 210.878906 C 205.804688 210.164062 205.488281 209.4375 205.183594 208.703125 C 204.875 207.96875 204.585938 207.226562 204.304688 206.476562 C 204.023438 205.726562 203.761719 204.972656 203.511719 204.21875 C 203.261719 203.460938 203.027344 202.703125 202.808594 201.949219 C 202.589844 201.191406 202.386719 200.441406 202.203125 199.691406 C 202.015625 198.945312 201.851562 198.203125 201.699219 197.46875 C 201.550781 196.738281 201.421875 196.015625 201.308594 195.304688 C 201.195312 194.59375 201.101562 193.898438 201.027344 193.214844 C 200.953125 192.53125 200.898438 191.867188 200.863281 191.222656 C 200.828125 190.574219 200.8125 189.949219 200.8125 189.34375 C 200.816406 188.738281 200.839844 188.15625 200.882812 187.601562 C 200.925781 187.042969 200.988281 186.511719 201.070312 186.007812 C 201.148438 185.503906 201.25 185.027344 201.367188 184.578125 C 201.488281 184.132812 201.625 183.71875 201.78125 183.332031 C 201.9375 182.949219 202.109375 182.59375 202.300781 182.277344 C 202.492188 181.957031 202.699219 181.671875 202.921875 181.421875 C 203.148438 181.171875 203.386719 180.957031 203.640625 180.777344 C 203.898438 180.601562 204.167969 180.457031 204.453125 180.351562 C 204.734375 180.246094 205.035156 180.175781 205.34375 180.144531 C 205.652344 180.113281 205.976562 180.117188 206.308594 180.160156 C 206.640625 180.203125 206.984375 180.28125 207.339844 180.398438 C 207.691406 180.515625 208.050781 180.667969 208.421875 180.855469 C 208.792969 181.042969 209.167969 181.269531 209.550781 181.527344 C 209.933594 181.789062 210.320312 182.082031 210.710938 182.410156 C 211.101562 182.738281 211.496094 183.101562 211.894531 183.492188 C 212.289062 183.886719 212.6875 184.3125 213.085938 184.765625 C 213.484375 185.222656 213.882812 185.707031 214.277344 186.21875 C 214.675781 186.730469 215.066406 187.269531 215.457031 187.832031 C 215.847656 188.398438 216.234375 188.984375 216.613281 189.597656 C 216.996094 190.207031 217.367188 190.839844 217.734375 191.492188 C 218.101562 192.144531 218.460938 192.8125 218.808594 193.5 C 219.160156 194.183594 219.5 194.886719 219.828125 195.601562 C 220.160156 196.316406 220.476562 197.039062 220.78125 197.777344 C 221.089844 198.511719 221.378906 199.253906 221.660156 200.003906 Z M 221.660156 200.003906 " fill-opacity="1" fill-rule="nonzero"/><g clip-path="url(#359e27249c)"><path fill="#535b6a" d="M 142.941406 316.53125 C 133.929688 319.175781 124.394531 320.585938 114.523438 320.585938 C 113.941406 320.585938 113.367188 320.578125 112.785156 320.574219 C 112.695312 320.371094 112.613281 320.171875 112.535156 319.964844 L 95.785156 275.035156 C 102.761719 273.804688 113.027344 272.203125 125.5 270.847656 Z M 142.941406 316.53125 " fill-opacity="1" fill-rule="nonzero"/></g><path fill="#535b6a" d="M 272.214844 245.972656 L 272.3125 243.960938 L 323.589844 246.398438 L 323.496094 248.410156 Z M 272.214844 245.972656 " fill-opacity="1" fill-rule="nonzero"/><path fill="#535b6a" d="M 252.335938 168.316406 L 267.222656 163.585938 L 267.835938 165.503906 L 252.945312 170.234375 Z M 252.335938 168.316406 " fill-opacity="1" fill-rule="nonzero"/><path fill="#535b6a" d="M 269.398438 162.878906 L 272.5 161.789062 L 273.167969 163.691406 L 270.066406 164.78125 Z M 269.398438 162.878906 " fill-opacity="1" fill-rule="nonzero"/><path fill="#535b6a" d="M 295.175781 198.703125 L 300.617188 198.226562 L 300.792969 200.234375 L 295.351562 200.710938 Z M 295.175781 198.703125 " fill-opacity="1" fill-rule="nonzero"/><path fill="#535b6a" d="M 230.914062 136.621094 L 282.4375 111.792969 L 283.3125 113.605469 L 231.785156 138.4375 Z M 230.914062 136.621094 " fill-opacity="1" fill-rule="nonzero"/><path fill="#535b6a" d="M 286.648438 109.847656 L 291.914062 107.820312 L 292.636719 109.699219 L 287.371094 111.726562 Z M 286.648438 109.847656 " fill-opacity="1" fill-rule="nonzero"/><path fill="#c1c8d2" d="M 333.128906 90.523438 C 334.058594 90.675781 334.960938 90.914062 335.84375 91.242188 C 336.726562 91.570312 337.566406 91.980469 338.371094 92.476562 C 339.171875 92.972656 339.914062 93.539062 340.605469 94.179688 C 341.292969 94.820312 341.914062 95.523438 342.464844 96.285156 C 343.015625 97.050781 343.488281 97.859375 343.878906 98.714844 C 344.269531 99.574219 344.574219 100.457031 344.792969 101.375 C 345.007812 102.289062 345.132812 103.21875 345.167969 104.160156 C 345.203125 105.101562 345.144531 106.035156 344.996094 106.964844 C 344.84375 107.894531 344.605469 108.800781 344.277344 109.683594 C 343.949219 110.566406 343.535156 111.40625 343.042969 112.210938 C 342.546875 113.011719 341.980469 113.753906 341.339844 114.445312 C 340.699219 115.132812 339.996094 115.753906 339.234375 116.304688 C 338.46875 116.855469 337.660156 117.328125 336.804688 117.71875 C 335.949219 118.113281 335.0625 118.417969 334.148438 118.632812 C 333.230469 118.851562 332.304688 118.976562 331.363281 119.011719 C 330.421875 119.042969 329.488281 118.984375 328.558594 118.835938 C 327.628906 118.6875 326.722656 118.445312 325.839844 118.117188 C 324.957031 117.789062 324.117188 117.378906 323.316406 116.882812 C 322.515625 116.390625 321.769531 115.820312 321.082031 115.179688 C 320.390625 114.539062 319.769531 113.835938 319.21875 113.074219 C 318.667969 112.308594 318.199219 111.5 317.808594 110.644531 C 317.414062 109.789062 317.109375 108.902344 316.894531 107.984375 C 316.675781 107.070312 316.550781 106.140625 316.515625 105.199219 C 316.484375 104.257812 316.542969 103.324219 316.691406 102.394531 C 316.839844 101.464844 317.082031 100.558594 317.410156 99.675781 C 317.738281 98.792969 318.148438 97.953125 318.644531 97.152344 C 319.136719 96.351562 319.703125 95.605469 320.34375 94.914062 C 320.988281 94.226562 321.6875 93.605469 322.453125 93.054688 C 323.214844 92.503906 324.023438 92.03125 324.878906 91.640625 C 325.738281 91.25 326.621094 90.945312 327.539062 90.726562 C 328.453125 90.511719 329.382812 90.382812 330.324219 90.351562 C 331.261719 90.316406 332.199219 90.375 333.128906 90.523438 Z M 333.128906 90.523438 " fill-opacity="1" fill-rule="nonzero"/><path fill="#535b6a" d="M 330.851562 119.21875 C 322.835938 119.21875 316.316406 112.695312 316.316406 104.675781 C 316.316406 96.660156 322.835938 90.136719 330.851562 90.136719 C 338.867188 90.136719 345.386719 96.660156 345.386719 104.675781 C 345.394531 112.695312 338.875 119.21875 330.851562 119.21875 Z M 330.851562 90.539062 C 323.058594 90.539062 316.71875 96.882812 316.71875 104.675781 C 316.71875 112.472656 323.058594 118.816406 330.851562 118.816406 C 338.644531 118.816406 344.984375 112.472656 344.984375 104.675781 C 344.992188 96.882812 338.644531 90.539062 330.851562 90.539062 Z M 330.851562 90.539062 " fill-opacity="1" fill-rule="nonzero"/><path fill="#e55151" d="M 329.558594 105.382812 L 337.511719 98.070312 L 324.199219 101.933594 Z M 329.558594 105.382812 " fill-opacity="1" fill-rule="nonzero"/><path fill="#e55151" d="M 329.898438 105.730469 L 333.074219 111.28125 L 337.511719 98.070312 Z M 329.898438 105.730469 " fill-opacity="1" fill-rule="nonzero"/><path fill="#c1c8d2" d="M 342.722656 224.296875 C 342.722656 225.140625 342.640625 225.976562 342.476562 226.800781 C 342.3125 227.628906 342.070312 228.429688 341.746094 229.207031 C 341.425781 229.988281 341.027344 230.726562 340.5625 231.425781 C 340.09375 232.125 339.5625 232.773438 338.964844 233.371094 C 338.371094 233.964844 337.722656 234.496094 337.023438 234.964844 C 336.320312 235.433594 335.582031 235.828125 334.804688 236.152344 C 334.027344 236.472656 333.226562 236.71875 332.398438 236.882812 C 331.574219 237.046875 330.738281 237.128906 329.898438 237.128906 C 329.054688 237.128906 328.21875 237.046875 327.394531 236.882812 C 326.570312 236.71875 325.765625 236.472656 324.988281 236.152344 C 324.210938 235.828125 323.472656 235.433594 322.769531 234.964844 C 322.070312 234.496094 321.421875 233.964844 320.828125 233.371094 C 320.230469 232.773438 319.699219 232.125 319.230469 231.425781 C 318.765625 230.726562 318.371094 229.988281 318.046875 229.207031 C 317.726562 228.429688 317.480469 227.628906 317.316406 226.800781 C 317.152344 225.976562 317.070312 225.140625 317.070312 224.296875 C 317.070312 223.457031 317.152344 222.621094 317.316406 221.796875 C 317.480469 220.96875 317.726562 220.167969 318.046875 219.390625 C 318.371094 218.609375 318.765625 217.871094 319.230469 217.171875 C 319.699219 216.46875 320.230469 215.820312 320.828125 215.226562 C 321.421875 214.632812 322.070312 214.097656 322.769531 213.632812 C 323.472656 213.164062 324.210938 212.769531 324.988281 212.445312 C 325.765625 212.125 326.570312 211.878906 327.394531 211.714844 C 328.21875 211.550781 329.054688 211.46875 329.898438 211.46875 C 330.738281 211.46875 331.574219 211.550781 332.398438 211.714844 C 333.226562 211.878906 334.027344 212.125 334.804688 212.445312 C 335.582031 212.769531 336.320312 213.164062 337.023438 213.632812 C 337.722656 214.097656 338.371094 214.632812 338.964844 215.226562 C 339.5625 215.820312 340.09375 216.46875 340.5625 217.171875 C 341.027344 217.871094 341.425781 218.609375 341.746094 219.390625 C 342.070312 220.167969 342.3125 220.96875 342.476562 221.796875 C 342.640625 222.621094 342.722656 223.457031 342.722656 224.296875 Z M 342.722656 224.296875 " fill-opacity="1" fill-rule="nonzero"/><path fill="#535b6a" d="M 329.898438 237.320312 C 322.710938 237.320312 316.871094 231.476562 316.871094 224.292969 C 316.871094 217.105469 322.710938 211.261719 329.898438 211.261719 C 337.082031 211.261719 342.921875 217.105469 342.921875 224.292969 C 342.921875 231.476562 337.082031 237.320312 329.898438 237.320312 Z M 329.898438 211.667969 C 322.933594 211.667969 317.273438 217.332031 317.273438 224.296875 C 317.273438 231.265625 322.933594 236.925781 329.898438 236.925781 C 336.859375 236.925781 342.515625 231.265625 342.515625 224.296875 C 342.515625 217.332031 336.859375 211.667969 329.898438 211.667969 Z M 329.898438 211.667969 " fill-opacity="1" fill-rule="nonzero"/><path fill="#e55151" d="M 324.933594 230.496094 L 324.933594 218.09375 L 334.859375 218.09375 L 334.859375 230.496094 L 330.234375 226.410156 Z M 324.933594 230.496094 " fill-opacity="1" fill-rule="nonzero"/><path fill="#c1c8d2" d="M 295.257812 143.445312 C 296.128906 143.585938 296.976562 143.808594 297.800781 144.117188 C 298.625 144.421875 299.414062 144.808594 300.164062 145.269531 C 300.914062 145.734375 301.609375 146.265625 302.253906 146.867188 C 302.898438 147.464844 303.480469 148.121094 303.996094 148.835938 C 304.511719 149.550781 304.953125 150.308594 305.320312 151.109375 C 305.683594 151.910156 305.96875 152.742188 306.171875 153.597656 C 306.375 154.457031 306.492188 155.324219 306.523438 156.203125 C 306.558594 157.085938 306.503906 157.960938 306.363281 158.828125 C 306.222656 159.699219 305.996094 160.546875 305.691406 161.375 C 305.382812 162.199219 305 162.988281 304.535156 163.738281 C 304.074219 164.488281 303.542969 165.183594 302.941406 165.828125 C 302.34375 166.472656 301.6875 167.054688 300.972656 167.570312 C 300.257812 168.085938 299.5 168.527344 298.699219 168.894531 C 297.898438 169.261719 297.070312 169.546875 296.210938 169.75 C 295.355469 169.949219 294.484375 170.070312 293.605469 170.101562 C 292.726562 170.132812 291.851562 170.078125 290.980469 169.9375 C 290.113281 169.796875 289.265625 169.574219 288.4375 169.265625 C 287.613281 168.957031 286.824219 168.574219 286.078125 168.109375 C 285.328125 167.648438 284.628906 167.117188 283.984375 166.515625 C 283.339844 165.917969 282.757812 165.261719 282.242188 164.546875 C 281.726562 163.832031 281.289062 163.074219 280.921875 162.273438 C 280.554688 161.472656 280.269531 160.640625 280.066406 159.785156 C 279.863281 158.925781 279.746094 158.058594 279.714844 157.179688 C 279.683594 156.296875 279.738281 155.421875 279.878906 154.550781 C 280.015625 153.683594 280.242188 152.835938 280.546875 152.007812 C 280.855469 151.183594 281.242188 150.394531 281.703125 149.644531 C 282.164062 148.894531 282.695312 148.199219 283.296875 147.554688 C 283.898438 146.910156 284.554688 146.328125 285.269531 145.8125 C 285.980469 145.296875 286.738281 144.855469 287.539062 144.488281 C 288.339844 144.121094 289.171875 143.835938 290.027344 143.632812 C 290.882812 143.429688 291.753906 143.3125 292.632812 143.28125 C 293.511719 143.25 294.386719 143.304688 295.257812 143.445312 Z M 295.257812 143.445312 " fill-opacity="1" fill-rule="nonzero"/><path fill="#535b6a" d="M 293.128906 170.3125 C 285.617188 170.3125 279.507812 164.199219 279.507812 156.6875 C 279.507812 149.175781 285.617188 143.0625 293.128906 143.0625 C 300.640625 143.0625 306.75 149.175781 306.75 156.6875 C 306.75 164.199219 300.640625 170.3125 293.128906 170.3125 Z M 293.128906 143.472656 C 285.839844 143.472656 279.914062 149.40625 279.914062 156.6875 C 279.914062 163.972656 285.847656 169.90625 293.128906 169.90625 C 300.417969 169.90625 306.34375 163.972656 306.34375 156.6875 C 306.34375 149.40625 300.417969 143.472656 293.128906 143.472656 Z M 293.128906 143.472656 " fill-opacity="1" fill-rule="nonzero"/><path fill="#e55151" d="M 299.683594 152.367188 C 298.972656 151.839844 298.113281 151.773438 297.226562 151.757812 C 294.484375 151.71875 293.414062 154.824219 293.414062 154.824219 C 293.414062 154.824219 291.355469 151.550781 289.039062 151.71875 C 288.832031 151.730469 288.683594 151.71875 288.511719 151.71875 C 287.820312 151.71875 287.140625 151.9375 286.574219 152.367188 C 286.046875 152.753906 285.667969 153.273438 285.445312 153.84375 C 284.914062 155.191406 285.355469 156.738281 286.441406 157.691406 L 293.128906 163.589844 L 299.816406 157.691406 C 300.902344 156.730469 301.351562 155.191406 300.8125 153.84375 C 300.589844 153.273438 300.210938 152.753906 299.683594 152.367188 Z M 299.683594 152.367188 " fill-opacity="1" fill-rule="nonzero"/><path fill="#c1c8d2" d="M 267.261719 81.324219 C 268.097656 81.457031 268.914062 81.671875 269.707031 81.96875 C 270.5 82.265625 271.257812 82.636719 271.980469 83.082031 C 272.703125 83.527344 273.371094 84.039062 273.992188 84.613281 C 274.613281 85.191406 275.171875 85.824219 275.667969 86.511719 C 276.164062 87.199219 276.589844 87.929688 276.941406 88.699219 C 277.292969 89.46875 277.566406 90.269531 277.761719 91.09375 C 277.960938 91.917969 278.070312 92.753906 278.101562 93.601562 C 278.132812 94.449219 278.082031 95.292969 277.945312 96.128906 C 277.8125 96.964844 277.59375 97.78125 277.300781 98.574219 C 277.003906 99.371094 276.632812 100.128906 276.1875 100.851562 C 275.742188 101.570312 275.234375 102.242188 274.65625 102.863281 C 274.078125 103.484375 273.445312 104.042969 272.757812 104.539062 C 272.070312 105.035156 271.34375 105.460938 270.570312 105.8125 C 269.800781 106.164062 269.003906 106.441406 268.179688 106.636719 C 267.351562 106.832031 266.515625 106.945312 265.671875 106.972656 C 264.824219 107.003906 263.980469 106.953125 263.144531 106.816406 C 262.308594 106.683594 261.492188 106.46875 260.699219 106.171875 C 259.902344 105.875 259.144531 105.503906 258.425781 105.058594 C 257.703125 104.613281 257.03125 104.101562 256.410156 103.527344 C 255.789062 102.949219 255.230469 102.316406 254.734375 101.628906 C 254.238281 100.941406 253.816406 100.210938 253.464844 99.441406 C 253.109375 98.671875 252.835938 97.871094 252.640625 97.046875 C 252.445312 96.222656 252.332031 95.386719 252.300781 94.539062 C 252.269531 93.691406 252.324219 92.847656 252.457031 92.011719 C 252.59375 91.175781 252.808594 90.359375 253.105469 89.566406 C 253.402344 88.769531 253.769531 88.011719 254.214844 87.289062 C 254.660156 86.570312 255.171875 85.898438 255.75 85.277344 C 256.328125 84.65625 256.957031 84.097656 257.644531 83.601562 C 258.332031 83.105469 259.0625 82.679688 259.832031 82.328125 C 260.605469 81.976562 261.402344 81.699219 262.226562 81.503906 C 263.050781 81.308594 263.886719 81.195312 264.734375 81.167969 C 265.582031 81.136719 266.421875 81.1875 267.261719 81.324219 Z M 267.261719 81.324219 " fill-opacity="1" fill-rule="nonzero"/><path fill="#535b6a" d="M 265.214844 107.183594 C 257.988281 107.183594 252.105469 101.296875 252.105469 94.070312 C 252.105469 86.839844 257.980469 80.957031 265.214844 80.957031 C 272.445312 80.957031 278.324219 86.839844 278.324219 94.070312 C 278.324219 101.296875 272.441406 107.183594 265.214844 107.183594 Z M 265.214844 81.359375 C 258.210938 81.359375 252.503906 87.054688 252.503906 94.070312 C 252.503906 101.078125 258.203125 106.78125 265.214844 106.78125 C 272.226562 106.78125 277.921875 101.082031 277.921875 94.070312 C 277.914062 87.0625 272.21875 81.359375 265.214844 81.359375 Z M 265.214844 81.359375 " fill-opacity="1" fill-rule="nonzero"/><path fill="#e55151" d="M 258.375 98.765625 L 258.417969 91.929688 C 258.417969 91.730469 258.589844 91.5625 258.789062 91.570312 L 261.351562 91.648438 C 261.351562 91.648438 264.078125 88.855469 263.824219 85.871094 C 263.671875 84.121094 264.527344 84.460938 265.261719 85.046875 C 265.871094 85.53125 266.21875 86.28125 266.195312 87.054688 L 266.085938 90.523438 L 270.746094 90.550781 C 270.890625 90.550781 271.027344 90.582031 271.160156 90.628906 C 271.179688 90.636719 271.359375 90.703125 271.519531 90.84375 C 271.742188 91.03125 271.984375 91.390625 271.976562 91.820312 C 271.96875 92.316406 271.625 92.789062 271.105469 92.988281 C 271.617188 93.191406 271.984375 93.640625 272.03125 94.144531 C 272.09375 94.804688 271.625 95.460938 270.898438 95.640625 C 270.898438 95.640625 272.507812 96.429688 271.429688 97.539062 C 271.132812 97.84375 270.710938 98.003906 270.28125 97.988281 L 269.089844 97.941406 C 269.78125 97.996094 270.300781 98.613281 270.238281 99.289062 C 270.175781 99.96875 269.574219 100.480469 268.890625 100.425781 C 267.199219 100.425781 265.511719 100.417969 263.824219 100.417969 C 263.421875 100.417969 263.027344 100.292969 262.695312 100.066406 C 262.382812 99.851562 262.070312 99.628906 261.761719 99.414062 C 261.371094 99.144531 260.910156 99.007812 260.4375 99.011719 C 259.84375 99.027344 259.242188 99.035156 258.644531 99.046875 C 258.5 99.042969 258.375 98.917969 258.375 98.765625 Z M 258.375 98.765625 " fill-opacity="1" fill-rule="nonzero"/><path fill="#c1c8d2" d="M 348.660156 154.15625 C 349.496094 154.292969 350.3125 154.507812 351.105469 154.804688 C 351.898438 155.097656 352.65625 155.46875 353.378906 155.914062 C 354.101562 156.359375 354.773438 156.871094 355.390625 157.449219 C 356.011719 158.027344 356.570312 158.660156 357.066406 159.347656 C 357.5625 160.03125 357.988281 160.761719 358.339844 161.535156 C 358.691406 162.304688 358.96875 163.101562 359.164062 163.925781 C 359.359375 164.753906 359.472656 165.589844 359.5 166.4375 C 359.53125 167.285156 359.480469 168.125 359.34375 168.960938 C 359.210938 169.800781 358.996094 170.617188 358.699219 171.410156 C 358.402344 172.203125 358.03125 172.960938 357.585938 173.683594 C 357.140625 174.40625 356.632812 175.078125 356.054688 175.699219 C 355.476562 176.320312 354.84375 176.878906 354.15625 177.375 C 353.46875 177.871094 352.742188 178.292969 351.96875 178.648438 C 351.199219 179 350.402344 179.273438 349.578125 179.46875 C 348.753906 179.664062 347.917969 179.777344 347.070312 179.808594 C 346.222656 179.839844 345.378906 179.785156 344.542969 179.652344 C 343.707031 179.515625 342.890625 179.300781 342.097656 179.003906 C 341.300781 178.710938 340.542969 178.339844 339.824219 177.894531 C 339.101562 177.449219 338.429688 176.9375 337.808594 176.359375 C 337.191406 175.78125 336.632812 175.148438 336.136719 174.460938 C 335.640625 173.773438 335.214844 173.046875 334.863281 172.273438 C 334.507812 171.503906 334.234375 170.707031 334.039062 169.882812 C 333.84375 169.054688 333.730469 168.21875 333.699219 167.371094 C 333.671875 166.523438 333.722656 165.683594 333.859375 164.847656 C 333.992188 164.007812 334.207031 163.191406 334.503906 162.398438 C 334.800781 161.605469 335.167969 160.847656 335.613281 160.125 C 336.058594 159.402344 336.570312 158.730469 337.148438 158.109375 C 337.726562 157.488281 338.359375 156.929688 339.046875 156.433594 C 339.730469 155.9375 340.460938 155.515625 341.230469 155.160156 C 342.003906 154.808594 342.800781 154.535156 343.625 154.339844 C 344.449219 154.144531 345.285156 154.03125 346.132812 154 C 346.980469 153.96875 347.820312 154.019531 348.660156 154.15625 Z M 348.660156 154.15625 " fill-opacity="1" fill-rule="nonzero"/><path fill="#535b6a" d="M 346.613281 180.019531 C 339.386719 180.019531 333.503906 174.136719 333.503906 166.90625 C 333.503906 159.679688 339.386719 153.792969 346.613281 153.792969 C 353.839844 153.792969 359.722656 159.679688 359.722656 166.90625 C 359.722656 174.136719 353.839844 180.019531 346.613281 180.019531 Z M 346.613281 154.195312 C 339.609375 154.195312 333.90625 159.894531 333.90625 166.90625 C 333.90625 173.914062 339.601562 179.621094 346.613281 179.621094 C 353.625 179.621094 359.320312 173.921875 359.320312 166.90625 C 359.320312 159.894531 353.617188 154.195312 346.613281 154.195312 Z M 346.613281 154.195312 " fill-opacity="1" fill-rule="nonzero"/><path fill="#e55151" d="M 339.78125 171.59375 L 339.824219 164.761719 C 339.824219 164.558594 339.996094 164.394531 340.195312 164.402344 L 342.757812 164.476562 C 342.757812 164.476562 345.484375 161.6875 345.226562 158.703125 C 345.074219 156.953125 345.933594 157.289062 346.667969 157.878906 C 347.277344 158.363281 347.621094 159.113281 347.601562 159.886719 L 347.492188 163.355469 L 352.148438 163.382812 C 352.296875 163.382812 352.433594 163.410156 352.566406 163.460938 C 352.585938 163.464844 352.765625 163.535156 352.925781 163.675781 C 353.148438 163.859375 353.390625 164.222656 353.382812 164.652344 C 353.375 165.148438 353.027344 165.621094 352.507812 165.820312 C 353.023438 166.019531 353.390625 166.472656 353.4375 166.976562 C 353.5 167.632812 353.027344 168.292969 352.300781 168.472656 C 352.300781 168.472656 353.914062 169.261719 352.835938 170.371094 C 352.539062 170.675781 352.113281 170.832031 351.6875 170.820312 L 350.496094 170.769531 C 351.1875 170.828125 351.707031 171.441406 351.644531 172.121094 C 351.582031 172.800781 350.980469 173.3125 350.292969 173.257812 C 348.605469 173.257812 346.917969 173.25 345.226562 173.25 C 344.828125 173.25 344.433594 173.125 344.101562 172.898438 C 343.789062 172.683594 343.476562 172.460938 343.164062 172.246094 C 342.777344 171.976562 342.3125 171.835938 341.84375 171.84375 C 341.25 171.859375 340.644531 171.863281 340.050781 171.878906 C 339.90625 171.871094 339.78125 171.746094 339.78125 171.59375 Z M 339.78125 171.59375 " fill-opacity="1" fill-rule="nonzero"/><path fill="#535b6a" d="M 266.777344 203.027344 L 292.980469 199.144531 L 293.277344 201.136719 L 267.074219 205.019531 Z M 266.777344 203.027344 " fill-opacity="1" fill-rule="nonzero"/></svg>