<svg xmlns="http://www.w3.org/2000/svg" xmlns:xlink="http://www.w3.org/1999/xlink" width="500" zoomAndPan="magnify" viewBox="0 0 375 374.999991" height="500" preserveAspectRatio="xMidYMid meet" version="1.0"><defs><clipPath id="85f6f6385b"><path d="M 7.734375 15.46875 L 366.984375 15.46875 L 366.984375 374.71875 L 7.734375 374.71875 Z M 7.734375 15.46875 " clip-rule="nonzero"/></clipPath></defs><path fill="#273376" d="M 332.167969 88.859375 C 311.183594 60.285156 281.957031 38.148438 247.984375 25.960938 L 247.984375 130.949219 L 332.167969 88.859375 " fill-opacity="1" fill-rule="nonzero"/><path fill="#273376" d="M 126.9375 130.953125 L 126.9375 25.859375 C 92.882812 38.011719 63.574219 60.152344 42.539062 88.753906 L 126.933594 130.949219 L 126.9375 130.953125 " fill-opacity="1" fill-rule="nonzero"/><path fill="#273376" d="M 126.933594 259.148438 L 42.539062 301.34375 C 63.574219 329.949219 92.882812 352.085938 126.9375 364.242188 L 126.9375 259.148438 L 126.933594 259.148438 " fill-opacity="1" fill-rule="nonzero"/><path fill="#273376" d="M 247.984375 364.140625 C 281.957031 351.945312 311.183594 329.8125 332.167969 301.238281 L 247.984375 259.148438 L 247.984375 364.140625 " fill-opacity="1" fill-rule="nonzero"/><path fill="#ffffff" d="M 126.9375 130.953125 L 126.933594 130.949219 L 42.539062 88.753906 C 36.550781 96.894531 31.234375 105.5625 26.667969 114.671875 L 65.535156 134.085938 L 25.8125 134.085938 L 19.496094 130.957031 C 19.042969 132.140625 18.601562 133.328125 18.175781 134.523438 L 126.9375 134.523438 L 126.9375 130.953125 " fill-opacity="1" fill-rule="nonzero"/><path fill="#ffffff" d="M 247.984375 134.523438 L 267.910156 134.523438 L 339.066406 98.949219 C 336.878906 95.503906 334.578125 92.140625 332.167969 88.859375 L 247.984375 130.949219 L 247.984375 134.523438 " fill-opacity="1" fill-rule="nonzero"/><path fill="#ffffff" d="M 348.820312 255.824219 L 355.195312 258.984375 C 355.625 257.851562 356.046875 256.71875 356.457031 255.574219 L 247.984375 255.574219 L 247.984375 259.148438 L 332.167969 301.238281 C 338.15625 293.082031 343.472656 284.402344 348.039062 275.277344 L 309.09375 255.824219 L 348.820312 255.824219 " fill-opacity="1" fill-rule="nonzero"/><path fill="#ffffff" d="M 65.523438 255.574219 L 18.175781 255.574219 C 20.570312 262.277344 23.359375 268.792969 26.503906 275.101562 L 65.519531 255.578125 L 65.523438 255.574219 " fill-opacity="1" fill-rule="nonzero"/><path fill="#ffffff" d="M 126.9375 259.148438 L 126.9375 255.574219 L 106.335938 255.574219 L 35.472656 291.007812 C 37.707031 294.539062 40.066406 297.984375 42.539062 301.34375 L 126.933594 259.148438 L 126.9375 259.148438 " fill-opacity="1" fill-rule="nonzero"/><path fill="#ffffff" d="M 356.457031 134.523438 C 354.039062 127.765625 351.226562 121.203125 348.050781 114.847656 L 308.730469 134.523438 L 356.457031 134.523438 " fill-opacity="1" fill-rule="nonzero"/><path fill="#ffffff" d="M 247.984375 255.574219 L 356.457031 255.574219 C 359.257812 247.738281 361.542969 239.65625 363.246094 231.363281 L 223.777344 231.363281 L 223.777344 370.949219 C 232.070312 369.238281 240.152344 366.949219 247.984375 364.140625 L 247.984375 255.574219 " fill-opacity="1" fill-rule="nonzero"/><path fill="#ffffff" d="M 223.777344 158.734375 L 363.246094 158.734375 C 361.542969 150.441406 359.257812 142.359375 356.457031 134.523438 L 308.730469 134.523438 L 308.726562 134.527344 L 267.910156 134.527344 L 267.910156 134.523438 L 247.984375 134.523438 L 247.984375 25.960938 C 240.152344 23.148438 232.070312 20.859375 223.777344 19.148438 L 223.777344 158.734375 " fill-opacity="1" fill-rule="nonzero"/><path fill="#ffffff" d="M 151.144531 231.363281 L 11.382812 231.363281 C 13.085938 239.65625 15.371094 247.738281 18.175781 255.574219 L 65.523438 255.574219 L 65.90625 255.382812 L 106.71875 255.382812 L 106.335938 255.574219 L 126.9375 255.574219 L 126.9375 364.242188 C 134.769531 367.039062 142.851562 369.316406 151.144531 371.011719 L 151.144531 231.363281 " fill-opacity="1" fill-rule="nonzero"/><path fill="#ffffff" d="M 151.144531 158.734375 L 151.144531 19.085938 C 142.851562 20.78125 134.769531 23.0625 126.9375 25.859375 L 126.9375 134.523438 L 18.175781 134.523438 C 15.371094 142.359375 13.085938 150.441406 11.382812 158.734375 L 151.144531 158.734375 " fill-opacity="1" fill-rule="nonzero"/><g clip-path="url(#85f6f6385b)"><path fill="#d21d2c" d="M 223.777344 231.363281 L 363.246094 231.363281 C 365.65625 219.636719 366.917969 207.492188 366.917969 195.050781 C 366.917969 182.609375 365.65625 170.464844 363.246094 158.734375 L 223.777344 158.734375 L 223.777344 19.148438 C 212.003906 16.722656 199.804688 15.441406 187.316406 15.441406 C 174.925781 15.441406 162.828125 16.699219 151.144531 19.085938 L 151.144531 158.734375 L 11.382812 158.734375 C 8.972656 170.464844 7.707031 182.609375 7.707031 195.050781 C 7.707031 207.492188 8.972656 219.636719 11.382812 231.363281 L 151.144531 231.363281 L 151.144531 371.011719 C 162.828125 373.402344 174.925781 374.65625 187.316406 374.65625 C 199.804688 374.65625 212.003906 373.378906 223.777344 370.949219 L 223.777344 231.363281 " fill-opacity="1" fill-rule="nonzero"/></g><path fill="#d21d2c" d="M 65.535156 134.085938 L 26.667969 114.671875 C 24.019531 119.953125 21.625 125.386719 19.496094 130.957031 L 25.8125 134.085938 L 65.535156 134.085938 " fill-opacity="1" fill-rule="nonzero"/><path fill="#d21d2c" d="M 267.910156 134.527344 L 308.726562 134.527344 L 308.730469 134.523438 L 348.050781 114.847656 C 345.316406 109.382812 342.320312 104.078125 339.066406 98.949219 L 267.910156 134.523438 L 267.910156 134.527344 " fill-opacity="1" fill-rule="nonzero"/><path fill="#d21d2c" d="M 348.820312 255.824219 L 309.09375 255.824219 L 348.039062 275.277344 C 350.679688 269.988281 353.070312 264.554688 355.195312 258.984375 L 348.820312 255.824219 " fill-opacity="1" fill-rule="nonzero"/><path fill="#d21d2c" d="M 106.335938 255.574219 L 106.71875 255.382812 L 65.90625 255.382812 L 65.519531 255.578125 L 26.503906 275.101562 C 29.230469 280.566406 32.226562 285.875 35.472656 291.007812 L 106.335938 255.574219 " fill-opacity="1" fill-rule="nonzero"/></svg>