<?xml version="1.0" standalone="no"?>
<!DOCTYPE svg PUBLIC "-//W3C//DTD SVG 20010904//EN"
 "http://www.w3.org/TR/2001/REC-SVG-20010904/DTD/svg10.dtd">
<svg version="1.0" xmlns="http://www.w3.org/2000/svg"
 width="512.000000pt" height="512.000000pt" viewBox="0 0 512.000000 512.000000"
 preserveAspectRatio="xMidYMid meet">

<g transform="translate(0.000000,512.000000) scale(0.100000,-0.100000)"
fill="#000000" stroke="none">
<path d="M1990 4139 c-561 -10 -1153 -35 -1266 -54 -344 -56 -504 -218 -587
-595 -32 -143 -45 -253 -57 -490 -26 -526 -21 -1001 16 -1400 34 -365 101
-568 234 -700 100 -100 221 -156 402 -185 254 -40 985 -58 2095 -52 1042 6
1465 23 1639 67 299 76 461 288 518 682 36 246 61 814 52 1173 -26 985 -107
1264 -418 1425 -144 75 -232 87 -788 110 -244 10 -1276 31 -1370 28 -25 -1
-236 -5 -470 -9z m798 -1284 c381 -208 689 -382 684 -387 -9 -9 -1430 -788
-1438 -788 -2 0 -4 358 -4 796 l0 796 33 -19 c17 -10 344 -189 725 -398z"/>
</g>
</svg>
